<svg width="24" height="24" viewBox="0 0 24 24" fill="none" xmlns="http://www.w3.org/2000/svg">
    <g clip-path="url(#clip0_1_1602)">
        <path d="M12 0C12.8297 0 13.5 0.670312 13.5 1.5V2.91094L14.2031 2.20781C14.6437 1.76719 15.3562 1.76719 15.7922 2.20781C16.2281 2.64844 16.2328 3.36094 15.7922 3.79688L13.4953 6.09375V9.38906L16.3734 7.71094L17.2031 4.6125C17.3625 4.0125 17.9812 3.65625 18.5812 3.81563C19.1812 3.975 19.5375 4.59375 19.3781 5.19375L19.1344 6.09844L20.2406 5.45156C20.9578 5.03438 21.8766 5.27813 22.2937 5.99063C22.7109 6.70312 22.4719 7.62656 21.7547 8.04375L20.5687 8.7375L21.5859 9.00937C22.1859 9.16875 22.5422 9.7875 22.3828 10.3875C22.2234 10.9875 21.6047 11.3438 21.0047 11.1844L17.8312 10.3359L14.9766 12L17.8312 13.6641L21.0047 12.8156C21.6047 12.6562 22.2234 13.0125 22.3828 13.6125C22.5422 14.2125 22.1859 14.8312 21.5859 14.9906L20.5687 15.2625L21.7547 15.9562C22.4719 16.3734 22.7109 17.2922 22.2937 18.0094C21.8766 18.7266 20.9578 18.9656 20.2406 18.5484L19.1344 17.9016L19.3781 18.8063C19.5375 19.4062 19.1812 20.025 18.5812 20.1844C17.9812 20.3438 17.3625 19.9875 17.2031 19.3875L16.3734 16.2891L13.5 14.6109V17.9062L15.7969 20.2031C16.2375 20.6437 16.2375 21.3562 15.7969 21.7922C15.3562 22.2281 14.6437 22.2328 14.2078 21.7922L13.5047 21.0891V22.5C13.5047 23.3297 12.8344 24 12.0047 24C11.175 24 10.5047 23.3297 10.5047 22.5V21.0891L9.80156 21.7922C9.36093 22.2328 8.64843 22.2328 8.21249 21.7922C7.77656 21.3516 7.77187 20.6391 8.21249 20.2031L10.5094 17.9062V14.6109L7.63124 16.2891L6.80156 19.3875C6.64218 19.9875 6.02343 20.3438 5.42343 20.1844C4.82343 20.025 4.46718 19.4062 4.62656 18.8063L4.87031 17.9016L3.75468 18.5438C3.03749 18.9609 2.11874 18.7172 1.70156 18.0047C1.28437 17.2922 1.52812 16.3687 2.24062 15.9516L3.42656 15.2578L2.40937 14.9859C1.80937 14.8266 1.45312 14.2078 1.61249 13.6078C1.77187 13.0078 2.39062 12.6516 2.99062 12.8109L6.16406 13.6594L9.02343 12L6.16874 10.3359L2.99531 11.1844C2.39531 11.3438 1.77656 10.9875 1.61718 10.3875C1.45781 9.7875 1.81406 9.16875 2.41406 9.00937L3.43124 8.7375L2.24531 8.04375C1.52812 7.62656 1.28906 6.70781 1.70624 5.99531C2.12343 5.28281 3.04218 5.03906 3.75937 5.45625L4.86562 6.10312L4.62187 5.19844C4.46249 4.59844 4.81874 3.97969 5.41874 3.82031C6.01874 3.66094 6.63749 4.01719 6.79687 4.61719L7.62656 7.71563L10.5 9.38906V6.08906L8.20312 3.79688C7.76249 3.35625 7.76249 2.64375 8.20312 2.20781C8.64374 1.77187 9.35624 1.76719 9.79218 2.20781L10.4953 2.91094V1.5C10.4953 0.670312 11.1656 0 11.9953 0H12Z" fill="#3B82F6"/>
    </g>
    <defs>
        <clipPath id="clip0_1_1602">
            <path d="M1.5 0H22.5V24H1.5V0Z" fill="white"/>
        </clipPath>
    </defs>
</svg>
