<svg width="32" height="32" viewBox="0 0 32 32" fill="none" xmlns="http://www.w3.org/2000/svg">
<path d="M28.4792 3.37075H25.4768V2.03C25.4768 1.34731 24.758 0.8125 23.8411 0.8125C22.9229 0.8125 22.2036 1.34731 22.2036 2.03V3.37075H17.6375V2.03C17.6375 1.34731 16.9181 0.8125 16 0.8125C15.0819 0.8125 14.3625 1.34731 14.3625 2.03V3.37075H9.79801V2.03C9.79801 1.34731 9.07882 0.8125 8.1605 0.8125C7.24219 0.8125 6.52301 1.34731 6.52301 2.03V3.37075H3.52257C2.99594 3.37133 2.49104 3.58078 2.11865 3.95316C1.74626 4.32554 1.53679 4.83043 1.53619 5.35706V29.2011C1.53681 29.7278 1.74628 30.2326 2.11867 30.605C2.49105 30.9774 2.99594 31.1869 3.52257 31.1875H28.4792C29.0056 31.1867 29.5102 30.9772 29.8823 30.6048C30.2544 30.2324 30.4635 29.7275 30.4638 29.2011V5.35706C30.4635 4.83065 30.2544 4.32586 29.8823 3.95347C29.5102 3.58108 29.0056 3.37151 28.4792 3.37075ZM23.2038 2.0375C23.2344 1.97187 23.4644 1.8125 23.8413 1.8125C24.217 1.8125 24.4464 1.97212 24.4769 2.0375V3.37075H23.2038V2.0375ZM15.3625 2.03806C15.3938 1.97225 15.624 1.8125 16 1.8125C16.376 1.8125 16.6063 1.97225 16.6375 2.03806V3.37075H15.3625V2.03806ZM7.52313 2.03806C7.55438 1.97225 7.78457 1.8125 8.16063 1.8125C8.53669 1.8125 8.76688 1.97225 8.79813 2.03806V3.37075H7.52313V2.03806Z" fill="#EAE8E8"/>
<path d="M14.8825 12.8226V15.0673C14.8825 15.1999 14.8298 15.327 14.7361 15.4208C14.6423 15.5146 14.5151 15.5673 14.3825 15.5673H11.8388C11.7062 15.5673 11.579 15.5146 11.4852 15.4208C11.3914 15.327 11.3388 15.1999 11.3388 15.0673V12.8226C11.3388 12.69 11.3914 12.5628 11.4852 12.4691C11.579 12.3753 11.7062 12.3226 11.8388 12.3226H14.3825C14.5151 12.3226 14.6423 12.3753 14.7361 12.4691C14.8298 12.5628 14.8825 12.69 14.8825 12.8226ZM20.1615 12.3226H17.6178C17.4852 12.3226 17.358 12.3753 17.2642 12.4691C17.1704 12.5628 17.1178 12.69 17.1178 12.8226V15.0673C17.1178 15.1999 17.1704 15.327 17.2642 15.4208C17.358 15.5146 17.4852 15.5673 17.6178 15.5673H20.1615C20.2941 15.5673 20.4213 15.5146 20.5151 15.4208C20.6088 15.327 20.6615 15.1999 20.6615 15.0673V12.8226C20.6615 12.69 20.6088 12.5628 20.5151 12.4691C20.4213 12.3753 20.2941 12.3226 20.1615 12.3226ZM8.60526 17.8146H6.05951C5.9269 17.8146 5.79972 17.8672 5.70596 17.961C5.61219 18.0548 5.55951 18.182 5.55951 18.3146V20.5592C5.55951 20.6918 5.61219 20.819 5.70596 20.9127C5.79972 21.0065 5.9269 21.0592 6.05951 21.0592H8.60532C8.73793 21.0592 8.86511 21.0065 8.95888 20.9127C9.05264 20.819 9.10532 20.6918 9.10532 20.5592V18.3146C9.10532 18.182 9.05264 18.0548 8.95888 17.961C8.86511 17.8672 8.73787 17.8146 8.60526 17.8146ZM14.3824 17.8146H11.8387C11.7061 17.8146 11.5789 17.8672 11.4851 17.961C11.3914 18.0548 11.3387 18.182 11.3387 18.3146V20.5592C11.3387 20.6918 11.3914 20.819 11.4851 20.9127C11.5789 21.0065 11.7061 21.0592 11.8387 21.0592H14.3824C14.5151 21.0592 14.6422 21.0065 14.736 20.9127C14.8298 20.819 14.8824 20.6918 14.8824 20.5592V18.3146C14.8824 18.182 14.8298 18.0548 14.736 17.961C14.6423 17.8673 14.5151 17.8146 14.3825 17.8146H14.3824ZM20.1614 17.8146H17.6177C17.4851 17.8146 17.3579 17.8672 17.2641 17.961C17.1704 18.0548 17.1177 18.182 17.1177 18.3146V20.5592C17.1177 20.6918 17.1704 20.819 17.2641 20.9127C17.3579 21.0065 17.4851 21.0592 17.6177 21.0592H20.1614C20.2941 21.0592 20.4212 21.0065 20.515 20.9127C20.6088 20.819 20.6614 20.6918 20.6614 20.5592V18.3146C20.6614 18.182 20.6088 18.0548 20.515 17.961C20.4213 17.8673 20.2941 17.8146 20.1615 17.8146H20.1614ZM8.6052 23.3083H6.05951C5.9269 23.3083 5.79972 23.361 5.70596 23.4548C5.61219 23.5485 5.55951 23.6757 5.55951 23.8083V26.0511C5.55951 26.1837 5.61219 26.3109 5.70596 26.4047C5.79972 26.4985 5.9269 26.5511 6.05951 26.5511H8.60532C8.73793 26.5511 8.86511 26.4985 8.95888 26.4047C9.05264 26.3109 9.10532 26.1837 9.10532 26.0511V23.8084C9.10532 23.6758 9.05264 23.5486 8.95888 23.4548C8.86511 23.3611 8.73793 23.3084 8.60532 23.3084L8.6052 23.3083ZM14.3824 23.3083H11.8386C11.706 23.3083 11.5788 23.361 11.4851 23.4548C11.3913 23.5485 11.3386 23.6757 11.3386 23.8083V26.0511C11.3386 26.1837 11.3913 26.3109 11.4851 26.4047C11.5788 26.4985 11.706 26.5511 11.8386 26.5511H14.3824C14.515 26.5511 14.6422 26.4985 14.7359 26.4047C14.8297 26.3109 14.8824 26.1837 14.8824 26.0511V23.8084C14.8824 23.6758 14.8297 23.5486 14.736 23.4549C14.6422 23.3611 14.5151 23.3084 14.3825 23.3084L14.3824 23.3083ZM8.60532 12.3226H6.05951C5.9269 12.3226 5.79972 12.3753 5.70596 12.4691C5.61219 12.5628 5.55951 12.69 5.55951 12.8226V15.0673C5.55951 15.1999 5.61219 15.327 5.70596 15.4208C5.79972 15.5146 5.9269 15.5673 6.05951 15.5673H8.60532C8.73793 15.5673 8.86511 15.5146 8.95888 15.4208C9.05264 15.327 9.10532 15.1999 9.10532 15.0673V12.8226C9.10532 12.69 9.05264 12.5628 8.95888 12.4691C8.86511 12.3753 8.73793 12.3226 8.60532 12.3226ZM25.9405 17.8146H23.3968C23.2642 17.8146 23.137 17.8672 23.0432 17.961C22.9494 18.0548 22.8968 18.182 22.8968 18.3146V20.5592C22.8968 20.6918 22.9494 20.819 23.0432 20.9127C23.137 21.0065 23.2642 21.0592 23.3968 21.0592H25.9405C26.0731 21.0592 26.2003 21.0065 26.2941 20.9127C26.3878 20.819 26.4405 20.6918 26.4405 20.5592V18.3146C26.4405 18.182 26.3878 18.0548 26.2941 17.961C26.2003 17.8672 26.0731 17.8146 25.9405 17.8146ZM20.1615 23.3083H17.6178C17.4852 23.3083 17.358 23.361 17.2642 23.4548C17.1704 23.5485 17.1178 23.6757 17.1178 23.8083V26.0511C17.1178 26.1837 17.1704 26.3109 17.2642 26.4047C17.358 26.4985 17.4852 26.5511 17.6178 26.5511H20.1615C20.2941 26.5511 20.4213 26.4985 20.5151 26.4047C20.6088 26.3109 20.6615 26.1837 20.6615 26.0511V23.8084C20.6615 23.6758 20.6088 23.5486 20.5151 23.4548C20.4213 23.3611 20.2941 23.3083 20.1615 23.3083Z" fill="#484868"/>
<path d="M8.60535 12.3226H7.98035C8.11295 12.3226 8.24013 12.3753 8.3339 12.4691C8.42767 12.5628 8.48035 12.69 8.48035 12.8226V15.0673C8.48035 15.1999 8.42767 15.327 8.3339 15.4208C8.24013 15.5146 8.11295 15.5673 7.98035 15.5673H8.60535C8.73795 15.5673 8.86513 15.5146 8.9589 15.4208C9.05267 15.327 9.10535 15.1999 9.10535 15.0673V12.8226C9.10535 12.69 9.05267 12.5628 8.9589 12.4691C8.86513 12.3753 8.73795 12.3226 8.60535 12.3226ZM14.3825 23.3084H13.7575C13.8901 23.3084 14.0173 23.3611 14.1111 23.4548C14.2049 23.5486 14.2575 23.6758 14.2575 23.8084V26.0512C14.2575 26.1838 14.2049 26.311 14.1111 26.4047C14.0173 26.4985 13.8901 26.5512 13.7575 26.5512H14.3825C14.5151 26.5512 14.6423 26.4985 14.7361 26.4047C14.8299 26.311 14.8825 26.1838 14.8825 26.0512V23.8084C14.8825 23.6758 14.8299 23.5486 14.7361 23.4548C14.6423 23.3611 14.5151 23.3084 14.3825 23.3084ZM14.3825 17.8146H13.7575C13.8901 17.8146 14.0173 17.8672 14.1111 17.961C14.2049 18.0548 14.2575 18.182 14.2575 18.3146V20.5592C14.2575 20.6918 14.2049 20.819 14.1111 20.9127C14.0173 21.0065 13.8901 21.0592 13.7575 21.0592H14.3825C14.5151 21.0592 14.6423 21.0065 14.7361 20.9127C14.8299 20.819 14.8825 20.6918 14.8825 20.5592V18.3146C14.8825 18.182 14.8299 18.0548 14.7361 17.961C14.6423 17.8672 14.5151 17.8146 14.3825 17.8146ZM8.60535 23.3084H7.98035C8.11295 23.3084 8.24013 23.3611 8.3339 23.4548C8.42767 23.5486 8.48035 23.6758 8.48035 23.8084V26.0512C8.48035 26.1838 8.42767 26.311 8.3339 26.4047C8.24013 26.4985 8.11295 26.5512 7.98035 26.5512H8.60535C8.73795 26.5512 8.86513 26.4985 8.9589 26.4047C9.05267 26.311 9.10535 26.1838 9.10535 26.0512V23.8084C9.10535 23.6758 9.05267 23.5486 8.9589 23.4548C8.86513 23.3611 8.73795 23.3084 8.60535 23.3084ZM8.60535 17.8146H7.98035C8.11295 17.8146 8.24013 17.8672 8.3339 17.961C8.42767 18.0548 8.48035 18.182 8.48035 18.3146V20.5592C8.48035 20.6918 8.42767 20.819 8.3339 20.9127C8.24013 21.0065 8.11295 21.0592 7.98035 21.0592H8.60535C8.73795 21.0592 8.86513 21.0065 8.9589 20.9127C9.05267 20.819 9.10535 20.6918 9.10535 20.5592V18.3146C9.10535 18.182 9.05267 18.0548 8.9589 17.961C8.86513 17.8672 8.73795 17.8146 8.60535 17.8146ZM20.1615 23.3084H19.5365C19.6691 23.3084 19.7963 23.3611 19.8901 23.4548C19.9839 23.5486 20.0365 23.6758 20.0365 23.8084V26.0512C20.0365 26.1838 19.9839 26.311 19.8901 26.4047C19.7963 26.4985 19.6691 26.5512 19.5365 26.5512H20.1615C20.2941 26.5512 20.4213 26.4985 20.5151 26.4047C20.6089 26.311 20.6615 26.1838 20.6615 26.0512V23.8084C20.6615 23.6758 20.6089 23.5486 20.5151 23.4548C20.4213 23.3611 20.2941 23.3084 20.1615 23.3084ZM20.1615 12.3226H19.5365C19.6691 12.3226 19.7963 12.3753 19.8901 12.4691C19.9839 12.5628 20.0365 12.69 20.0365 12.8226V15.0673C20.0365 15.1999 19.9839 15.327 19.8901 15.4208C19.7963 15.5146 19.6691 15.5673 19.5365 15.5673H20.1615C20.2941 15.5673 20.4213 15.5146 20.5151 15.4208C20.6089 15.327 20.6615 15.1999 20.6615 15.0673V12.8226C20.6615 12.69 20.6089 12.5628 20.5151 12.4691C20.4213 12.3753 20.2941 12.3226 20.1615 12.3226ZM14.3825 12.3226H13.7575C13.8901 12.3226 14.0173 12.3753 14.1111 12.4691C14.2049 12.5628 14.2575 12.69 14.2575 12.8226V15.0673C14.2575 15.1999 14.2049 15.327 14.1111 15.4208C14.0173 15.5146 13.8901 15.5673 13.7575 15.5673H14.3825C14.5151 15.5673 14.6423 15.5146 14.7361 15.4208C14.8299 15.327 14.8825 15.1999 14.8825 15.0673V12.8226C14.8825 12.69 14.8299 12.5628 14.7361 12.4691C14.6423 12.3753 14.5151 12.3226 14.3825 12.3226ZM25.9405 17.8146H25.3155C25.4481 17.8146 25.5753 17.8672 25.6691 17.961C25.7629 18.0548 25.8155 18.182 25.8155 18.3146V20.5592C25.8155 20.6918 25.7629 20.819 25.6691 20.9127C25.5753 21.0065 25.4481 21.0592 25.3155 21.0592H25.9405C26.0731 21.0592 26.2003 21.0065 26.2941 20.9127C26.3879 20.819 26.4405 20.6918 26.4405 20.5592V18.3146C26.4405 18.182 26.3879 18.0548 26.2941 17.961C26.2003 17.8672 26.0731 17.8146 25.9405 17.8146ZM20.1615 17.8146H19.5365C19.6691 17.8146 19.7963 17.8672 19.8901 17.961C19.9839 18.0548 20.0365 18.182 20.0365 18.3146V20.5592C20.0365 20.6918 19.9839 20.819 19.8901 20.9127C19.7963 21.0065 19.6691 21.0592 19.5365 21.0592H20.1615C20.2941 21.0592 20.4213 21.0065 20.5151 20.9127C20.6089 20.819 20.6615 20.6918 20.6615 20.5592V18.3146C20.6615 18.182 20.6089 18.0548 20.5151 17.961C20.4213 17.8672 20.2941 17.8146 20.1615 17.8146Z" fill="#3D3D54"/>
<path d="M24.3531 15.4238C24.2212 15.4238 24.0947 15.3717 24.0011 15.2789L22.9736 14.2601C22.8801 14.1666 22.8274 14.0399 22.8271 13.9076C22.8269 13.7754 22.879 13.6484 22.9721 13.5545C23.0652 13.4606 23.1917 13.4074 23.3239 13.4066C23.4562 13.4057 23.5833 13.4573 23.6777 13.55L24.3214 14.188L25.6301 12.6429C25.7158 12.5418 25.8382 12.4788 25.9704 12.4678C26.1025 12.4569 26.2336 12.4989 26.3348 12.5846C26.436 12.6703 26.499 12.7927 26.5099 12.9249C26.5209 13.057 26.4789 13.1881 26.3932 13.2893L24.7349 15.2469C24.6903 15.2996 24.6353 15.3424 24.5734 15.3727C24.5115 15.4031 24.4439 15.4203 24.375 15.4233C24.3677 15.4236 24.3604 15.4237 24.3531 15.4238Z" fill="#682C91"/>
<path d="M26.0904 29.5776C26.044 29.6241 25.9888 29.6609 25.9281 29.6861C25.8675 29.7112 25.8024 29.7242 25.7368 29.7242H3.52257C2.99594 29.7236 2.49105 29.5141 2.11867 29.1417C1.74628 28.7693 1.53681 28.2644 1.53619 27.7378V29.2011C1.53681 29.7278 1.74628 30.2326 2.11867 30.605C2.49105 30.9774 2.99594 31.1869 3.52257 31.1875H28.4792C29.0056 31.1867 29.5102 30.9772 29.8823 30.6048C30.2544 30.2324 30.4635 29.7276 30.4638 29.2011V24.9953C30.4638 25.1279 30.4112 25.255 30.3174 25.3488L26.0904 29.5776Z" fill="#D1C9C9"/>
<path d="M30.4638 24.9953V24.9297H26.6838C26.4186 24.9297 26.1643 25.0351 25.9767 25.2226C25.7892 25.4102 25.6838 25.6645 25.6838 25.9297V29.7242H25.7368C25.8025 29.7242 25.8675 29.7112 25.9282 29.6861C25.9888 29.6609 26.044 29.6241 26.0904 29.5776L30.3175 25.3487C30.4112 25.255 30.4638 25.1279 30.4638 24.9953Z" fill="#BCB3B3"/>
<path d="M28.4792 3.37074H23.2038V5.26337C23.2331 5.32899 23.4624 5.48956 23.8413 5.48956C23.9739 5.48956 24.101 5.54223 24.1948 5.636C24.2886 5.72977 24.3413 5.85695 24.3413 5.98956C24.3413 6.12216 24.2886 6.24934 24.1948 6.34311C24.101 6.43688 23.9739 6.48956 23.8413 6.48956C22.9231 6.48956 22.2038 5.95399 22.2038 5.27024V3.37074H15.3625V5.26299C15.3924 5.32887 15.6219 5.48956 16 5.48956C16.1326 5.48956 16.2598 5.54223 16.3536 5.636C16.4473 5.72977 16.5 5.85695 16.5 5.98956C16.5 6.12216 16.4473 6.24934 16.3536 6.34311C16.2598 6.43688 16.1326 6.48956 16 6.48956C15.0818 6.48956 14.3625 5.95399 14.3625 5.27024V3.37074H7.52326V5.26299C7.55313 5.32887 7.78269 5.48956 8.16076 5.48956C8.29336 5.48956 8.42054 5.54223 8.51431 5.636C8.60808 5.72977 8.66076 5.85695 8.66076 5.98956C8.66076 6.12216 8.60808 6.24934 8.51431 6.34311C8.42054 6.43688 8.29336 6.48956 8.16076 6.48956C7.24263 6.48956 6.52326 5.95399 6.52326 5.27024V3.37074H3.52257C2.99594 3.37132 2.49104 3.58078 2.11865 3.95316C1.74626 4.32553 1.53679 4.83042 1.53619 5.35706V9.61999H30.4638V5.35706C30.4635 4.83064 30.2544 4.32585 29.8823 3.95346C29.5102 3.58107 29.0056 3.3715 28.4792 3.37074Z" fill="#1E51DB"/>
<path d="M1.53619 9.62H30.4638V10.4007H1.53619V9.62Z" fill="#D1C9C9"/>
<path d="M16.5 5.98956C16.5 6.12217 16.4473 6.24935 16.3536 6.34312C16.2598 6.43688 16.1326 6.48956 16 6.48956C15.0818 6.48956 14.3625 5.954 14.3625 5.27025V2.03C14.3625 1.34731 15.0818 0.8125 16 0.8125C16.9182 0.8125 17.6375 1.34731 17.6375 2.03V3.37075H16.6375V2.03806C16.6063 1.97225 16.3759 1.8125 16 1.8125C15.6241 1.8125 15.3938 1.97225 15.3625 2.03806V5.26306C15.3924 5.32894 15.6219 5.48962 16 5.48962C16.1326 5.48962 16.2598 5.54229 16.3535 5.63605C16.4473 5.7298 16.5 5.85697 16.5 5.98956ZM8.16063 5.48956C7.78269 5.48956 7.55313 5.32888 7.52313 5.263V2.038C7.55438 1.97219 7.78457 1.81244 8.16063 1.81244C8.53669 1.81244 8.76688 1.97219 8.79813 2.038V3.37075H9.79813V2.03C9.79813 1.34731 9.07894 0.8125 8.16063 0.8125C7.24232 0.8125 6.52313 1.34731 6.52313 2.03V5.27025C6.52313 5.954 7.24238 6.48956 8.16063 6.48956C8.29324 6.48956 8.42042 6.43688 8.51419 6.34312C8.60795 6.24935 8.66063 6.12217 8.66063 5.98956C8.66063 5.85695 8.60795 5.72978 8.51419 5.63601C8.42042 5.54224 8.29324 5.48956 8.16063 5.48956ZM23.8411 5.48956C23.4624 5.48956 23.2331 5.329 23.2036 5.26337V2.0375C23.2343 1.97187 23.4643 1.8125 23.8411 1.8125C24.2169 1.8125 24.4463 1.97212 24.4768 2.0375V3.37075H25.4768V2.03C25.4768 1.34731 24.758 0.8125 23.8411 0.8125C22.9229 0.8125 22.2036 1.34731 22.2036 2.03V5.27025C22.2036 5.954 22.9228 6.48956 23.8411 6.48956C23.9737 6.48956 24.1009 6.43688 24.1947 6.34312C24.2885 6.24935 24.3411 6.12217 24.3411 5.98956C24.3411 5.85695 24.2885 5.72978 24.1947 5.63601C24.1009 5.54224 23.9737 5.48956 23.8411 5.48956Z" fill="#484868"/>
<path d="M8.16374 5.05212C7.93431 5.05214 7.71294 5.13669 7.54192 5.28962C7.60867 5.36425 7.82649 5.48962 8.16067 5.48962C8.29328 5.48962 8.42046 5.5423 8.51423 5.63607C8.608 5.72984 8.66067 5.85702 8.66067 5.98962C8.66067 6.12223 8.608 6.24941 8.51423 6.34318C8.42046 6.43695 8.29328 6.48962 8.16067 6.48962C7.85773 6.49239 7.55782 6.42913 7.2818 6.30425C7.33954 6.46593 7.44058 6.60863 7.5739 6.71679C7.70723 6.82495 7.8677 6.8944 8.03781 6.91756C8.20792 6.94072 8.38112 6.9167 8.5385 6.84812C8.69589 6.77955 8.83141 6.66905 8.93027 6.52869C9.02913 6.38834 9.08753 6.22352 9.09909 6.05223C9.11065 5.88095 9.07494 5.70977 8.99584 5.55741C8.91674 5.40504 8.7973 5.27733 8.65056 5.18822C8.50382 5.09911 8.33541 5.05204 8.16374 5.05212ZM16 5.05212C15.7714 5.05206 15.5508 5.13593 15.3799 5.28781C15.4449 5.36225 15.6634 5.48956 16 5.48956C16.1326 5.48956 16.2598 5.54224 16.3535 5.63601C16.4473 5.72978 16.5 5.85695 16.5 5.98956C16.5 6.12217 16.4473 6.24935 16.3535 6.34312C16.2598 6.43688 16.1326 6.48956 16 6.48956C15.6956 6.49236 15.3943 6.42849 15.1173 6.30244C15.1747 6.46434 15.2755 6.60736 15.4086 6.71586C15.5418 6.82436 15.7022 6.89416 15.8724 6.91764C16.0426 6.94112 16.2159 6.91738 16.3735 6.849C16.531 6.78062 16.6668 6.67024 16.7659 6.52993C16.865 6.38961 16.9236 6.22476 16.9353 6.05339C16.947 5.88201 16.9114 5.71072 16.8323 5.55821C16.7533 5.40571 16.6338 5.27788 16.487 5.18868C16.3403 5.09948 16.1718 5.05235 16 5.05244V5.05212ZM23.8402 5.05212C23.6118 5.05204 23.3913 5.13582 23.2205 5.28756C23.2844 5.36169 23.5029 5.48956 23.8411 5.48956C23.9737 5.48956 24.1009 5.54224 24.1947 5.63601C24.2884 5.72978 24.3411 5.85695 24.3411 5.98956C24.3411 6.12217 24.2884 6.24935 24.1947 6.34312C24.1009 6.43688 23.9737 6.48956 23.8411 6.48956C23.5364 6.49241 23.2347 6.4284 22.9574 6.30206C23.0147 6.46396 23.1155 6.60697 23.2487 6.71547C23.3818 6.82397 23.5423 6.89377 23.7124 6.91726C23.8826 6.94075 24.0559 6.91701 24.2135 6.84865C24.371 6.78029 24.5068 6.66993 24.6059 6.52963C24.705 6.38933 24.7636 6.22449 24.7753 6.05313C24.7871 5.88176 24.7515 5.71047 24.6725 5.55796C24.5935 5.40546 24.474 5.27761 24.3272 5.18839C24.1805 5.09917 24.012 5.05207 23.8402 5.05212Z" fill="#491F66"/>
</svg>
