<svg width="37" height="37" viewBox="0 0 37 37" fill="none" xmlns="http://www.w3.org/2000/svg">
    <path d="M29 0C33.4183 0 37 3.58172 37 8V29C37 33.4183 33.4183 37 29 37H8C3.58172 37 0 33.4183 0 29V8C0 3.58172 3.58172 0 8 0H29Z" fill="#1E51DB"/>
    <path d="M29 0C33.4183 0 37 3.58172 37 8V29C37 33.4183 33.4183 37 29 37H8C3.58172 37 0 33.4183 0 29V8C0 3.58172 3.58172 0 8 0H29Z" stroke="#E5E7EB"/>
    <g clip-path="url(#clip0_1_938)">
        <path d="M13.7812 13.0859L12.7617 16H24.2383L23.2188 13.0859C23.043 12.5859 22.5703 12.25 22.0391 12.25H14.9609C14.4297 12.25 13.957 12.5859 13.7812 13.0859ZM10.0469 16.1875L11.4219 12.2617C11.9492 10.7578 13.3672 9.75 14.9609 9.75H22.0391C23.6328 9.75 25.0508 10.7578 25.5781 12.2617L26.9531 16.1875C27.8594 16.5625 28.5 17.457 28.5 18.5V24.125V26C28.5 26.6914 27.9414 27.25 27.25 27.25H26C25.3086 27.25 24.75 26.6914 24.75 26V24.125H12.25V26C12.25 26.6914 11.6914 27.25 11 27.25H9.75C9.05859 27.25 8.5 26.6914 8.5 26V24.125V18.5C8.5 17.457 9.14062 16.5625 10.0469 16.1875ZM13.5 19.75C13.5 19.4185 13.3683 19.1005 13.1339 18.8661C12.8995 18.6317 12.5815 18.5 12.25 18.5C11.9185 18.5 11.6005 18.6317 11.3661 18.8661C11.1317 19.1005 11 19.4185 11 19.75C11 20.0815 11.1317 20.3995 11.3661 20.6339C11.6005 20.8683 11.9185 21 12.25 21C12.5815 21 12.8995 20.8683 13.1339 20.6339C13.3683 20.3995 13.5 20.0815 13.5 19.75ZM24.75 21C25.0815 21 25.3995 20.8683 25.6339 20.6339C25.8683 20.3995 26 20.0815 26 19.75C26 19.4185 25.8683 19.1005 25.6339 18.8661C25.3995 18.6317 25.0815 18.5 24.75 18.5C24.4185 18.5 24.1005 18.6317 23.8661 18.8661C23.6317 19.1005 23.5 19.4185 23.5 19.75C23.5 20.0815 23.6317 20.3995 23.8661 20.6339C24.1005 20.8683 24.4185 21 24.75 21Z" fill="white"/>
    </g>
    <defs>
        <clipPath id="clip0_1_938">
            <path d="M8.5 8.5H28.5V28.5H8.5V8.5Z" fill="white"/>
        </clipPath>
    </defs>
</svg>
