<svg width="59" height="72" viewBox="0 0 59 72" fill="none" xmlns="http://www.w3.org/2000/svg">
<rect width="59" height="72" rx="6" fill="#1E51DB"/>
<path d="M36.8249 22.4682C36.8249 22.4682 36.2819 29.2032 35.9669 32.0402C35.8169 33.3952 34.9799 34.1892 33.6089 34.2142C30.9999 34.2612 28.3879 34.2642 25.7799 34.2092C24.4609 34.1822 23.6379 33.3782 23.4909 32.0472C23.1739 29.1852 22.6339 22.4682 22.6339 22.4682" stroke="white" stroke-width="1.5" stroke-linecap="round" stroke-linejoin="round"/>
<path d="M38.2082 19.2397H21.2502" stroke="white" stroke-width="1.5" stroke-linecap="round" stroke-linejoin="round"/>
<path d="M34.9407 19.2397C34.1557 19.2397 33.4797 18.6847 33.3257 17.9157L33.0827 16.6997C32.9327 16.1387 32.4247 15.7507 31.8457 15.7507H27.6127C27.0337 15.7507 26.5257 16.1387 26.3757 16.6997L26.1327 17.9157C25.9787 18.6847 25.3027 19.2397 24.5177 19.2397" stroke="white" stroke-width="1.5" stroke-linecap="round" stroke-linejoin="round"/>
<path d="M12.72 54V45.6H15.498C16.078 45.6 16.622 45.71 17.13 45.93C17.638 46.146 18.084 46.448 18.468 46.836C18.852 47.22 19.152 47.666 19.368 48.174C19.588 48.678 19.698 49.22 19.698 49.8C19.698 50.38 19.588 50.924 19.368 51.432C19.152 51.936 18.852 52.382 18.468 52.77C18.084 53.154 17.638 53.456 17.13 53.676C16.622 53.892 16.078 54 15.498 54H12.72ZM13.56 53.16H15.498C15.962 53.16 16.396 53.074 16.8 52.902C17.208 52.726 17.566 52.484 17.874 52.176C18.182 51.868 18.422 51.512 18.594 51.108C18.77 50.7 18.858 50.264 18.858 49.8C18.858 49.336 18.77 48.902 18.594 48.498C18.422 48.09 18.18 47.732 17.868 47.424C17.56 47.116 17.204 46.876 16.8 46.704C16.396 46.528 15.962 46.44 15.498 46.44H13.56V53.16ZM23.3405 54.156C22.7885 54.156 22.2845 54.014 21.8285 53.73C21.3765 53.446 21.0145 53.066 20.7425 52.59C20.4745 52.11 20.3405 51.58 20.3405 51C20.3405 50.56 20.4185 50.15 20.5745 49.77C20.7305 49.386 20.9445 49.05 21.2165 48.762C21.4925 48.47 21.8125 48.242 22.1765 48.078C22.5405 47.914 22.9285 47.832 23.3405 47.832C23.7845 47.832 24.1925 47.92 24.5645 48.096C24.9405 48.272 25.2625 48.518 25.5305 48.834C25.8025 49.15 26.0065 49.52 26.1425 49.944C26.2825 50.368 26.3405 50.826 26.3165 51.318H21.2285C21.2765 51.698 21.3965 52.038 21.5885 52.338C21.7845 52.638 22.0325 52.876 22.3325 53.052C22.6365 53.224 22.9725 53.312 23.3405 53.316C23.7405 53.316 24.1005 53.212 24.4205 53.004C24.7445 52.796 25.0045 52.51 25.2005 52.146L26.0525 52.344C25.8125 52.876 25.4505 53.312 24.9665 53.652C24.4825 53.988 23.9405 54.156 23.3405 54.156ZM21.2045 50.64H25.4705C25.4425 50.268 25.3285 49.928 25.1285 49.62C24.9325 49.308 24.6785 49.06 24.3665 48.876C24.0545 48.688 23.7125 48.594 23.3405 48.594C22.9685 48.594 22.6285 48.686 22.3205 48.87C22.0125 49.05 21.7605 49.296 21.5645 49.608C21.3685 49.916 21.2485 50.26 21.2045 50.64ZM27.2981 54V45H28.1381V54H27.2981ZM32.1764 54.156C31.6244 54.156 31.1204 54.014 30.6644 53.73C30.2124 53.446 29.8504 53.066 29.5784 52.59C29.3104 52.11 29.1764 51.58 29.1764 51C29.1764 50.56 29.2544 50.15 29.4104 49.77C29.5664 49.386 29.7804 49.05 30.0524 48.762C30.3284 48.47 30.6484 48.242 31.0124 48.078C31.3764 47.914 31.7644 47.832 32.1764 47.832C32.6204 47.832 33.0284 47.92 33.4004 48.096C33.7764 48.272 34.0984 48.518 34.3664 48.834C34.6384 49.15 34.8424 49.52 34.9784 49.944C35.1184 50.368 35.1764 50.826 35.1524 51.318H30.0644C30.1124 51.698 30.2324 52.038 30.4244 52.338C30.6204 52.638 30.8684 52.876 31.1684 53.052C31.4724 53.224 31.8084 53.312 32.1764 53.316C32.5764 53.316 32.9364 53.212 33.2564 53.004C33.5804 52.796 33.8404 52.51 34.0364 52.146L34.8884 52.344C34.6484 52.876 34.2864 53.312 33.8024 53.652C33.3184 53.988 32.7764 54.156 32.1764 54.156ZM30.0404 50.64H34.3064C34.2784 50.268 34.1644 49.928 33.9644 49.62C33.7684 49.308 33.5144 49.06 33.2024 48.876C32.8904 48.688 32.5484 48.594 32.1764 48.594C31.8044 48.594 31.4644 48.686 31.1564 48.87C30.8484 49.05 30.5964 49.296 30.4004 49.608C30.2044 49.916 30.0844 50.26 30.0404 50.64ZM39.1415 48.84H37.7075L37.7015 54H36.8615L36.8675 48.84H35.7815V48H36.8675L36.8615 46.116H37.7015L37.7075 48H39.1415V48.84ZM42.6881 54.156C42.1361 54.156 41.6321 54.014 41.1761 53.73C40.7241 53.446 40.3621 53.066 40.0901 52.59C39.8221 52.11 39.6881 51.58 39.6881 51C39.6881 50.56 39.7661 50.15 39.9221 49.77C40.0781 49.386 40.2921 49.05 40.5641 48.762C40.8401 48.47 41.1601 48.242 41.5241 48.078C41.8881 47.914 42.2761 47.832 42.6881 47.832C43.1321 47.832 43.5401 47.92 43.9121 48.096C44.2881 48.272 44.6101 48.518 44.8781 48.834C45.1501 49.15 45.3541 49.52 45.4901 49.944C45.6301 50.368 45.6881 50.826 45.6641 51.318H40.5761C40.6241 51.698 40.7441 52.038 40.9361 52.338C41.1321 52.638 41.3801 52.876 41.6801 53.052C41.9841 53.224 42.3201 53.312 42.6881 53.316C43.0881 53.316 43.4481 53.212 43.7681 53.004C44.0921 52.796 44.3521 52.51 44.5481 52.146L45.4001 52.344C45.1601 52.876 44.7981 53.312 44.3141 53.652C43.8301 53.988 43.2881 54.156 42.6881 54.156ZM40.5521 50.64H44.8181C44.7901 50.268 44.6761 49.928 44.4761 49.62C44.2801 49.308 44.0261 49.06 43.7141 48.876C43.4021 48.688 43.0601 48.594 42.6881 48.594C42.3161 48.594 41.9761 48.686 41.6681 48.87C41.3601 49.05 41.1081 49.296 40.9121 49.608C40.7161 49.916 40.5961 50.26 40.5521 50.64Z" fill="white"/>
</svg>
