<svg width="21" height="26" viewBox="0 0 21 26" fill="none" xmlns="http://www.w3.org/2000/svg">
<path d="M21 24H0V0H21V24Z" stroke="#E5E7EB"/>
<g clip-path="url(#clip0_1_1682)">
<path d="M16.3781 4.09062C16.6547 3.44843 16.4484 2.69843 15.8812 2.28593C15.3141 1.87343 14.5406 1.91093 14.0109 2.37031L2.01093 12.8703C1.54218 13.2828 1.37343 13.9437 1.59374 14.525C1.81405 15.1062 2.37655 15.5 2.99999 15.5H8.22655L4.62186 23.9094C4.3453 24.5516 4.55155 25.3016 5.11874 25.7141C5.68593 26.1266 6.45937 26.0891 6.98905 25.6297L18.9891 15.1297C19.4578 14.7172 19.6266 14.0562 19.4062 13.475C19.1859 12.8937 18.6281 12.5047 18 12.5047H12.7734L16.3781 4.09062Z" fill="#EAB308"/>
</g>
<defs>
<clipPath id="clip0_1_1682">
<path d="M0 2H21V26H0V2Z" fill="white"/>
</clipPath>
</defs>
</svg>
