<svg width="24" height="24" viewBox="0 0 24 24" fill="none" xmlns="http://www.w3.org/2000/svg">
<g clip-path="url(#clip0_1_1616)">
<path d="M15.8598 15.8791H8.65411V21.2238H15.8598V15.8791Z" fill="#AAAAAA"/>
<mask id="mask0_1_1616" style="mask-type:luminance" maskUnits="userSpaceOnUse" x="0" y="0" width="24" height="24">
<path d="M0 7.05719e-05H23.9999V24H0V7.05719e-05Z" fill="white"/>
</mask>
<g mask="url(#mask0_1_1616)">
<path d="M8.28617 21.9193C7.90203 21.9193 7.59064 21.6079 7.59064 21.2238V16.6008H8.98165V21.2238C8.98165 21.6079 8.67026 21.9193 8.28617 21.9193Z" fill="#CBCBCB"/>
<path d="M10.762 21.9193C10.3779 21.9193 10.0665 21.6079 10.0665 21.2238V16.6008H11.4575V21.2238C11.4575 21.6079 11.1462 21.9193 10.762 21.9193Z" fill="#CBCBCB"/>
<path d="M13.2379 21.9193C12.8537 21.9193 12.5424 21.6079 12.5424 21.2238V16.6008H13.9334V21.2238C13.9334 21.6079 13.622 21.9193 13.2379 21.9193Z" fill="#CBCBCB"/>
<path d="M15.7139 21.9193C15.3298 21.9193 15.0184 21.6079 15.0184 21.2238V16.6008H16.4094V21.2238C16.4094 21.6079 16.098 21.9193 15.7139 21.9193Z" fill="#CBCBCB"/>
<path d="M15.7768 13.844C15.7768 15.0382 16.7483 16.0097 17.9425 16.0097C19.1367 16.0097 20.1082 15.0382 20.1082 13.844C20.1082 12.6498 19.1367 11.6783 17.9425 11.6783C16.7483 11.6783 15.7768 12.6498 15.7768 13.844ZM14.3693 13.844C14.3693 11.8737 15.9722 10.2708 17.9425 10.2708C19.9128 10.2708 21.5157 11.8737 21.5157 13.844C21.5157 15.8143 19.9128 17.4172 17.9425 17.4172C15.9722 17.4172 14.3693 15.8143 14.3693 13.844Z" fill="#CBCBCB"/>
<path d="M12.3887 8.19674L17.5322 13.3403L21.3702 9.50216L16.2267 4.35867L12.3887 8.19674Z" fill="#CBCBCB"/>
<path d="M12.1611 8.42439L13.1944 9.4577L17.0325 5.61964L15.9992 4.58633L12.1611 8.42439Z" fill="#AAAAAA"/>
<path d="M21.7041 10.7599L14.969 4.02487L17.2395 2.35069C17.7905 1.94448 18.5557 2.00199 19.0397 2.48602L23.2429 6.68924C23.727 7.17327 23.7845 7.93846 23.3783 8.48942L21.7041 10.7599Z" fill="#DA4A54"/>
<path d="M16.7007 5.75659L14.969 4.02489L17.2393 2.35038C17.7906 1.94459 18.5553 2.00182 19.0395 2.48599L20.7712 4.21769C20.2875 3.73352 19.5223 3.67629 18.971 4.0826L16.7007 5.75659Z" fill="#C32430"/>
<path d="M6.05748 11.6783C4.86329 11.6783 3.89176 12.6498 3.89176 13.844C3.89176 15.0382 4.86329 16.0097 6.05748 16.0097C7.25166 16.0097 8.22319 15.0382 8.22319 13.844C8.22319 12.6498 7.25166 11.6783 6.05748 11.6783ZM6.05748 17.4172C4.08719 17.4172 2.48425 15.8143 2.48425 13.844C2.48425 11.8737 4.08719 10.2708 6.05748 10.2708C8.02777 10.2708 9.6307 11.8737 9.6307 13.844C9.6307 15.8143 8.02777 17.4172 6.05748 17.4172Z" fill="#CBCBCB"/>
<path d="M3.07681 13.844C3.07681 11.9737 4.5215 10.4338 6.35383 10.2829C6.25633 10.2749 6.15743 10.2707 6.05758 10.2707C4.08743 10.2707 2.48431 11.8738 2.48431 13.844C2.48431 15.8141 4.08743 17.4172 6.05758 17.4172C6.15743 17.4172 6.25633 17.413 6.35383 17.405C4.5215 17.2541 3.07681 15.7143 3.07681 13.844Z" fill="#AAAAAA"/>
<path d="M11.6112 8.19674L6.46771 13.3403L2.62964 9.50216L7.77317 4.35867L11.6112 8.19674Z" fill="#CBCBCB"/>
<path d="M7.50101 12.307L6.46775 13.3403L2.62964 9.5022L3.66295 8.46889L7.50101 12.307Z" fill="#AAAAAA"/>
<path d="M13.0094 7.57609H10.9907L5.84717 12.7196L7.59063 18.1331H16.4094L18.1529 12.7196" fill="#E2DFE2"/>
<path d="M6.32854 10.17C6.06224 10.4363 5.63043 10.4363 5.36414 10.17L4.125 8.93089L5.0894 7.96649L6.32854 9.20563C6.59488 9.47192 6.59488 9.90373 6.32854 10.17Z" fill="#818181"/>
<path d="M8.44103 8.05754C8.17469 8.32384 7.74292 8.32384 7.47662 8.05754L6.23749 6.8184L7.20189 5.854L8.44103 7.09314C8.70732 7.35943 8.70732 7.79124 8.44103 8.05754Z" fill="#818181"/>
<path d="M9.03097 4.02488L2.29589 10.7599L0.621713 8.48938C0.215495 7.93846 0.27301 7.17327 0.75704 6.68924L4.96026 2.48602C5.44429 2.00194 6.20948 1.94448 6.76044 2.35069L9.03097 4.02488Z" fill="#DA4A54"/>
<path d="M4.02762 9.02825L2.29592 10.7599L0.621407 8.48966C0.215611 7.93836 0.272846 7.1736 0.757016 6.68943L2.48871 4.95773C2.00454 5.44143 1.94731 6.20667 2.35362 6.75791L4.02762 9.02825Z" fill="#C32430"/>
<path d="M17.6715 10.17C17.9378 10.4363 18.3696 10.4363 18.6359 10.17L19.875 8.93089L18.9106 7.96649L17.6715 9.20563C17.4052 9.47192 17.4052 9.90373 17.6715 10.17Z" fill="#818181"/>
<path d="M15.5589 8.05754C15.8253 8.32384 16.257 8.32384 16.5233 8.05754L17.7625 6.8184L16.7981 5.854L15.5589 7.09314C15.2926 7.35943 15.2926 7.79124 15.5589 8.05754Z" fill="#818181"/>
<path d="M13.6382 12.0885C13.6382 11.1838 12.9048 10.4503 12 10.4503C11.0953 10.4503 10.3618 11.1838 10.3618 12.0885C10.3618 12.9933 11.0953 13.7267 12 13.7267C12.9048 13.7267 13.6382 12.9933 13.6382 12.0885Z" fill="#818181"/>
<path d="M18.6159 15.9265C18.6159 14.7078 17.628 13.7199 16.4093 13.7199C15.1906 13.7199 14.2028 14.7078 14.2028 15.9265C14.2028 17.1451 15.1906 18.1331 16.4093 18.1331C17.628 18.1331 18.6159 17.1451 18.6159 15.9265Z" fill="#818181"/>
<path d="M10.8946 17.1384C10.8946 15.677 9.70986 14.4922 8.2484 14.4922C6.78693 14.4922 5.60217 15.677 5.60217 17.1384C5.60217 18.5999 6.78693 19.7847 8.2484 19.7847C9.70986 19.7847 10.8946 18.5999 10.8946 17.1384Z" fill="#818181"/>
<path d="M8.95803 17.1384C8.95803 16.7465 8.64036 16.4289 8.24849 16.4289C7.85661 16.4289 7.53894 16.7465 7.53894 17.1384C7.53894 17.5303 7.85661 17.848 8.24849 17.848C8.64036 17.848 8.95803 17.5303 8.95803 17.1384Z" fill="#E2DFE2"/>
<path d="M17.1189 15.9265C17.1189 15.5346 16.8012 15.217 16.4094 15.217C16.0175 15.217 15.6998 15.5346 15.6998 15.9265C15.6998 16.3184 16.0175 16.636 16.4094 16.636C16.8012 16.636 17.1189 16.3184 17.1189 15.9265Z" fill="#E2DFE2"/>
</g>
</g>
<defs>
<clipPath id="clip0_1_1616">
<rect width="24" height="24" fill="white"/>
</clipPath>
</defs>
</svg>
