<svg width="337" height="157" viewBox="0 0 337 157" fill="none" xmlns="http://www.w3.org/2000/svg">
<g clip-path="url(#clip0_1_1951)">
<g clip-path="url(#clip1_1_1951)">
<g clip-path="url(#clip2_1_1951)">
<path d="M174.153 56.0087C173.96 56.1382 173.821 56.3334 173.761 56.5579C173.702 56.7825 173.726 57.0211 173.829 57.2291C173.867 57.3453 173.928 57.4524 174.008 57.5441C174.089 57.6357 174.188 57.7098 174.298 57.7618C174.408 57.8139 174.528 57.8427 174.65 57.8466C174.772 57.8505 174.893 57.8294 175.007 57.7846C175.113 57.7328 175.206 57.6575 175.278 57.5644C175.351 57.4714 175.401 57.363 175.426 57.2475C175.476 56.9996 175.434 56.742 175.309 56.5221C175.214 56.3087 175.043 56.1381 174.829 56.0433C174.616 55.9485 174.375 55.9362 174.153 56.0087Z" fill="#1E51DB"/>
<path d="M163.332 56.1947C163.273 56.1093 163.194 56.0406 163.1 55.9953C162.879 55.9287 162.642 55.9444 162.432 56.0395C162.221 56.1345 162.052 56.3025 161.956 56.5124C161.89 56.6138 161.845 56.7277 161.824 56.847C161.803 56.9664 161.806 57.0888 161.834 57.2068C161.862 57.3248 161.913 57.4359 161.985 57.5334C162.057 57.6309 162.148 57.7127 162.252 57.7739C162.355 57.829 162.472 57.8543 162.589 57.8469C162.706 57.8451 162.821 57.8161 162.925 57.7623C163.15 57.6452 163.325 57.4507 163.418 57.2146C163.5 56.9761 163.499 56.7168 163.416 56.4785C163.404 56.3798 163.376 56.2839 163.332 56.1947Z" fill="#1E51DB"/>
<path d="M155.953 47.4154L156.194 47.3625C156.111 47.1466 155.952 46.9687 155.746 46.8625C155.541 46.7562 155.304 46.729 155.08 46.7859C154.956 46.7974 154.835 46.8344 154.726 46.8946C154.617 46.9549 154.522 47.037 154.446 47.1358C154.371 47.2347 154.316 47.3482 154.286 47.4691C154.256 47.5901 154.252 47.716 154.272 47.8388C154.31 47.955 154.371 48.0623 154.452 48.1542C154.532 48.2462 154.63 48.3209 154.74 48.3738C154.851 48.4266 154.97 48.4566 155.092 48.462C155.214 48.4673 155.336 48.4478 155.45 48.4047C155.684 48.3559 155.891 48.2202 156.029 48.0249C156.167 47.8295 156.226 47.5891 156.194 47.3519L155.953 47.4049L155.953 47.4154Z" fill="#1E51DB"/>
<path d="M157.173 35.4357L157.089 35.3622C157.02 35.4625 156.973 35.5758 156.951 35.695C156.928 35.8143 156.93 35.9369 156.957 36.0552C156.984 36.1736 157.035 36.2852 157.107 36.383C157.178 36.4808 157.27 36.5627 157.374 36.6237C157.546 36.7779 157.769 36.863 158 36.8626C158.231 36.8622 158.453 36.7764 158.625 36.6217C158.741 36.4222 158.78 36.187 158.736 35.9605C158.691 35.7339 158.565 35.5316 158.381 35.3917C158.298 35.303 158.198 35.2323 158.087 35.184C157.976 35.1357 157.856 35.1109 157.734 35.1111C157.613 35.1113 157.493 35.1365 157.382 35.1851C157.271 35.2338 157.171 35.3048 157.089 35.3938L157.173 35.4357Z" fill="#1E51DB"/>
<path d="M168.566 31.768C168.669 31.7624 168.77 31.7335 168.86 31.6834C168.957 31.6355 169.043 31.5672 169.112 31.4832C169.273 31.2912 169.366 31.0502 169.373 30.7992C169.393 30.548 169.322 30.2981 169.173 30.095C169.099 30.0019 169.006 29.9265 168.899 29.8746C168.794 29.8234 168.679 29.7949 168.563 29.791C168.438 29.801 168.317 29.837 168.207 29.8967C168.097 29.9565 168.001 30.0386 167.925 30.1379C167.849 30.2371 167.795 30.3512 167.765 30.4729C167.736 30.5945 167.733 30.7209 167.755 30.8439C167.763 31.0681 167.847 31.2829 167.995 31.4514C168.143 31.62 168.345 31.7319 168.566 31.768Z" fill="#1E51DB"/>
<path d="M156.905 32.1867C156.391 32.6923 155.992 33.1242 155.72 33.4401C155.447 33.756 155.3 33.9455 155.3 33.9455L155.427 34.0399L155.269 33.9561L154.881 34.472C154.629 34.8089 154.294 35.3037 153.927 35.9142C153.529 36.6154 153.179 37.3433 152.88 38.0928C152.529 38.9639 152.246 39.8609 152.034 40.7758C151.833 41.6898 151.704 42.6183 151.649 43.5526C151.592 44.3649 151.593 45.1802 151.653 45.9923C151.728 46.6968 151.813 47.2855 151.898 47.6955L152.025 48.3368C152.025 48.3368 152.078 48.568 152.184 48.9675C152.289 49.3669 152.469 49.9345 152.722 50.6071C153.028 51.3668 153.38 52.1072 153.776 52.8242C154.237 53.6384 154.762 54.4147 155.346 55.1457C156.435 56.5141 157.73 57.7041 159.186 58.6728C159.481 58.8826 159.764 59.0294 160.006 59.1972L160.658 59.5537C160.837 59.6586 160.995 59.7214 161.089 59.7738L161.247 59.8472L161.405 59.9206L161.846 60.1196C162.372 60.3457 162.909 60.5449 163.455 60.7164L163.991 60.8838L164.58 61.03L165.2 61.1657C165.415 61.2185 165.632 61.2603 165.851 61.2909C168.5 61.7292 171.215 61.5301 173.772 60.71C174.118 60.6043 174.412 60.4671 174.696 60.3825L175.389 60.0975L175.83 59.8864L175.987 59.8125C176.187 59.7288 176.38 59.63 176.564 59.5171C176.792 59.4072 177.013 59.2839 177.226 59.148L177.625 58.9055L178.055 58.6208C179.512 57.6456 180.811 56.4518 181.905 55.0812C182.98 53.7101 183.842 52.1841 184.461 50.5551C184.576 50.2184 184.701 49.9132 184.775 49.6292C184.848 49.3451 184.952 49.1136 184.994 48.9032L185.151 48.2615L185.286 47.6198C185.338 47.4094 185.359 47.157 185.4 46.8625C185.442 46.5679 185.473 46.2524 185.514 45.8948C185.816 42.3878 185.005 38.8748 183.197 35.8558L182.923 35.4146L182.67 35.0259C182.512 34.7843 182.355 34.5742 182.239 34.4062C181.996 34.0701 181.839 33.8916 181.839 33.8916L181.723 33.755C181.649 33.671 181.554 33.5345 181.418 33.3769L180.912 32.8204C180.702 32.621 180.491 32.3689 180.218 32.138C178.952 30.9349 177.503 29.94 175.926 29.1901C175.088 28.7687 174.216 28.4184 173.319 28.1427C173.109 28.0695 172.888 28.0383 172.678 27.9755L172.058 27.8293L171.469 27.7146L170.913 27.6314C170.341 27.5505 169.766 27.4988 169.189 27.4765L168.538 27.4775L168.538 27.6248L168.538 27.5406L168.37 27.5409C168.265 27.5411 168.097 27.5414 167.887 27.5417L167.141 27.5429C166.857 27.5434 166.531 27.5965 166.185 27.6602C163.52 28.0501 160.984 29.063 158.783 30.6168C158.123 31.098 157.496 31.6225 156.905 32.1867ZM161.671 30.1493C163.143 29.4246 164.72 28.9392 166.344 28.7115C166.68 28.6479 166.985 28.6368 167.248 28.6049L167.951 28.6037C168.102 28.5938 168.253 28.5936 168.403 28.603L168.561 28.6027L168.729 28.6024C168.879 28.5926 169.03 28.5924 169.181 28.6017C169.719 28.62 170.255 28.6683 170.788 28.7463L171.314 28.8191L171.871 28.9338C172.06 28.9335 172.249 29.0173 172.449 29.0696C172.648 29.1218 172.859 29.153 173.058 29.2263C173.898 29.4722 174.717 29.7838 175.508 30.1582C176.981 30.8655 178.336 31.7961 179.526 32.9173C179.778 33.1483 179.978 33.3793 180.178 33.5683L180.652 34.0933C180.789 34.2403 180.873 34.3663 180.946 34.4398L181.041 34.5659C181.179 34.7212 181.306 34.8862 181.42 35.0595C181.536 35.217 181.683 35.4061 181.831 35.6372L182.073 36.0049L182.326 36.4146C183.161 37.8351 183.78 39.3723 184.162 40.9755C184.519 42.5719 184.635 44.213 184.506 45.8439C184.506 46.1804 184.444 46.4854 184.392 46.7589C184.34 47.0324 184.329 47.2638 184.288 47.4532C184.204 47.8424 184.163 48.0633 184.163 48.0633L184.006 48.6735C183.954 48.9054 183.888 49.1338 183.808 49.3573C183.745 49.6203 183.619 49.9045 183.515 50.2201C182.351 53.3124 180.245 55.9607 177.497 57.791L177.098 58.0651L176.72 58.2865C176.489 58.4341 176.279 58.5396 176.101 58.6346C175.754 58.8244 175.555 58.9089 175.555 58.9089L175.408 58.9827L174.998 59.1727L174.337 59.4472C174.085 59.5317 173.802 59.6584 173.476 59.7535C171.918 60.2541 170.291 60.5086 168.655 60.5081C167.779 60.5152 166.903 60.4463 166.039 60.3021C165.829 60.3024 165.629 60.2186 165.429 60.1769C165.231 60.1463 165.034 60.1045 164.841 60.0516L164.294 59.9158L163.789 59.7589C163.275 59.5993 162.769 59.4106 162.276 59.1935C162.132 59.1399 161.991 59.0769 161.855 59.0049L161.718 58.942L161.571 58.8687C161.434 58.8109 161.3 58.7444 161.172 58.6695C161.003 58.5646 160.783 58.4703 160.551 58.3235C160.32 58.1767 160.057 58.0404 159.784 57.841C158.415 56.9348 157.197 55.819 156.175 54.5344C155.628 53.8446 155.135 53.1142 154.7 52.3495C154.326 51.672 153.998 50.9699 153.72 50.2479C153.517 49.7352 153.341 49.2125 153.192 48.6819L153.033 48.0932L152.834 48.0936L153.033 48.0407L152.917 47.4415C152.842 47.063 152.757 46.5163 152.693 45.8434C152.638 45.0838 152.637 44.3212 152.69 43.5614C152.747 42.6842 152.869 41.8124 153.053 40.9528C153.259 40.0938 153.525 39.2501 153.847 38.4277C154.152 37.725 154.501 37.0429 154.895 36.3859C155.24 35.8069 155.555 35.3332 155.785 35.0384L156.152 34.5435L156.551 34.0802C156.899 33.6665 157.27 33.2727 157.663 32.9006C158.22 32.3763 158.812 31.8905 159.436 31.4465C160.146 30.9567 160.894 30.5231 161.671 30.1493Z" fill="#1E51DB"/>
<path d="M157.979 40.1561C157.745 40.7487 157.553 41.3569 157.404 41.9763C157.27 42.5999 157.183 43.2328 157.145 43.8696C157.108 44.4159 157.109 44.9639 157.147 45.5101C157.201 45.9832 157.254 46.3722 157.307 46.6561C157.36 46.9399 157.392 47.0871 157.392 47.0871C157.438 47.2251 157.476 47.3655 157.508 47.5076C157.582 47.7809 157.698 48.1698 157.867 48.6217C158.036 49.0736 158.278 49.5885 158.573 50.1243C158.883 50.6759 159.235 51.2027 159.626 51.7C160.36 52.6241 161.233 53.428 162.215 54.0828C162.415 54.2297 162.614 54.324 162.772 54.4395L163.214 54.6806C163.33 54.754 163.435 54.7854 163.498 54.8274L163.603 54.8272C163.73 54.9028 163.863 54.9659 164.002 55.0158C164.346 55.1699 164.696 55.3062 165.054 55.4242L165.422 55.5393L165.821 55.6333C165.962 55.6757 166.106 55.7071 166.252 55.7272C166.388 55.727 166.536 55.8004 166.693 55.8106C167.315 55.9156 167.944 55.9674 168.574 55.9653C169.751 55.9675 170.92 55.7846 172.04 55.4233C172.271 55.3598 172.471 55.2544 172.66 55.2015L173.132 55.0009C173.234 54.9631 173.332 54.9173 173.426 54.8637L173.531 54.8635C173.669 54.8033 173.802 54.7328 173.93 54.6525C174.086 54.5795 174.237 54.4949 174.381 54.3994L174.654 54.2413L174.938 54.0515C176.917 52.7383 178.433 50.8332 179.268 48.6076C179.351 48.3761 179.435 48.1762 179.487 47.9763C179.539 47.7764 179.602 47.6291 179.634 47.4818C179.665 47.3345 179.748 47.04 179.748 47.04C179.748 47.04 179.748 46.8822 179.832 46.5982C179.87 46.4281 179.897 46.256 179.915 46.0827C179.915 45.8935 179.914 45.6726 179.987 45.4306C180.079 44.2577 179.996 43.0776 179.74 41.9292C179.471 40.7735 179.022 39.6672 178.411 38.6504L178.242 38.3457L178.063 38.0831C177.958 37.915 177.853 37.7785 177.768 37.6629C177.684 37.5474 177.495 37.3164 177.495 37.3164L177.442 37.2428C177.38 37.1584 177.313 37.0777 177.242 37.0013L176.905 36.6233C176.758 36.4868 176.611 36.3188 176.432 36.1613C175.58 35.3495 174.603 34.68 173.539 34.1785C172.971 33.9027 172.38 33.6751 171.773 33.4979C171.636 33.4455 171.479 33.4248 171.332 33.383L170.911 33.289L170.512 33.2055L170.134 33.2061C169.747 33.149 169.358 33.1145 168.967 33.1029C168.82 33.0938 168.673 33.0941 168.526 33.1036L168.411 33.1038C168.302 33.0944 168.193 33.0946 168.085 33.1043L167.591 33.1051C167.391 33.1055 167.171 33.1058 166.94 33.1904C165.767 33.3585 164.628 33.7155 163.569 34.2475C163 34.5251 162.452 34.8459 161.932 35.2071C161.482 35.5341 161.051 35.8859 160.641 36.2608C160.36 36.5298 160.093 36.8147 159.844 37.1139L159.561 37.4509L159.299 37.7984C159.131 38.03 158.901 38.3563 158.66 38.7669C158.4 39.2128 158.172 39.6771 157.979 40.1561ZM159.595 39.207C159.815 38.8386 160.025 38.5333 160.172 38.3332C160.319 38.1332 160.413 38.0068 160.413 38.0068L160.675 37.7015C160.903 37.433 161.145 37.1764 161.399 36.9326C162.191 36.1891 163.089 35.5675 164.064 35.0879C165.033 34.6204 166.067 34.3032 167.131 34.147C167.341 34.1467 167.54 34.1463 167.719 34.0829C167.897 34.0196 168.044 34.0824 168.171 34.0822L168.57 34.0815C168.703 34.072 168.836 34.0718 168.969 34.0809C169.321 34.0837 169.673 34.1148 170.02 34.1738L170.366 34.1732L170.734 34.2568C170.866 34.2756 170.996 34.3035 171.123 34.3403C171.249 34.3401 171.386 34.3398 171.523 34.4447C172.076 34.6027 172.614 34.8095 173.131 35.0626C174.092 35.5212 174.975 36.1264 175.75 36.8565C175.918 37.0035 176.045 37.161 176.181 37.2764C176.318 37.3919 176.402 37.539 176.487 37.623C176.571 37.707 176.634 37.812 176.676 37.854L176.75 37.938C176.75 37.938 176.845 38.0535 176.992 38.2636C177.139 38.4737 177.171 38.4947 177.266 38.6417L177.424 38.8834L177.582 39.1565C178.7 41.0097 179.204 43.1697 179.021 45.3271C179.021 45.5374 179.021 45.7477 178.948 45.9266C178.875 46.1055 178.949 46.2526 178.875 46.3894C178.802 46.5262 178.792 46.7891 178.792 46.7891C178.792 46.7891 178.792 46.9364 178.688 47.1889C178.583 47.4415 178.604 47.473 178.562 47.6413C178.52 47.8096 178.437 48.0096 178.364 48.22C177.983 49.2153 177.457 50.1483 176.803 50.9883C176.126 51.8336 175.323 52.5692 174.421 53.169L174.159 53.3482L173.918 53.4853C173.785 53.5696 173.649 53.647 173.508 53.7173C173.391 53.7897 173.268 53.8532 173.141 53.9072L173.046 53.9074C172.983 53.9075 172.899 53.9917 172.773 54.034L172.343 54.2135C172.175 54.2138 171.996 54.3508 171.776 54.4142C170.758 54.742 169.694 54.907 168.625 54.9031C168.051 54.9117 167.478 54.8668 166.912 54.7692C166.776 54.7694 166.639 54.7066 166.502 54.6858C166.374 54.6691 166.247 54.6412 166.124 54.6022L165.756 54.5187L165.42 54.4141C164.999 54.2781 164.663 54.1419 164.421 54.0372C164.295 53.9974 164.175 53.941 164.063 53.8695L163.969 53.8697C163.879 53.8325 163.791 53.7905 163.706 53.7439C163.601 53.6704 163.454 53.6076 163.306 53.5237C163.159 53.4398 162.981 53.335 162.802 53.1985C161.908 52.6058 161.112 51.8761 160.445 51.0361C160.085 50.5799 159.758 50.099 159.465 49.597C159.191 49.1137 159.001 48.6303 158.822 48.231C158.643 47.8317 158.569 47.4637 158.495 47.1799C158.421 46.8961 158.4 46.791 158.4 46.791C158.4 46.791 158.399 46.6543 158.315 46.402C158.231 46.1498 158.219 45.7923 158.177 45.3507C158.138 44.8572 158.137 44.3615 158.174 43.8679C158.215 43.2882 158.295 42.712 158.413 42.1429C158.551 41.578 158.726 41.0227 158.936 40.4805C159.126 40.0415 159.347 39.616 159.595 39.207Z" fill="#1E51DB"/>
<path d="M132.817 52.7744L133.166 54.1515C133.409 55.0239 133.778 56.2536 134.327 57.7039C134.966 59.3436 135.716 60.9375 136.573 62.4745C137.561 64.234 138.692 65.9098 139.953 67.4851C142.315 70.4456 145.123 73.0203 148.276 75.1166C148.907 75.5678 149.528 75.9138 150.064 76.2389C150.6 76.564 151.116 76.8156 151.484 77.0358C151.852 77.256 152.209 77.4027 152.419 77.5075L152.756 77.6647L153.092 77.8324C153.313 77.9372 153.629 78.0839 154.049 78.2514C155.191 78.7525 156.359 79.1894 157.55 79.5602L158.695 79.9054L159.946 80.2293C160.367 80.3338 160.808 80.4277 161.27 80.5216C161.733 80.6155 162.185 80.7094 162.658 80.7822C166.652 81.4346 170.726 81.4279 174.719 80.7625C176.458 80.4636 178.174 80.0426 179.854 79.5027C180.589 79.2806 181.251 79.0166 181.839 78.8054L183.34 78.1824C183.76 78.0135 184.064 77.8448 184.285 77.7497L184.621 77.5915L184.441 77.2237L184.61 77.5809C184.61 77.5809 185.083 77.3804 185.87 76.9479C186.269 76.7264 186.752 76.4733 187.287 76.1464L188.147 75.6297L189.071 75.0183C195.406 70.7819 200.257 64.6657 202.942 57.5285C203.214 56.8024 203.454 56.1395 203.632 55.5398C203.81 54.9401 203.977 54.414 204.081 53.9827L204.426 52.6046L204.707 51.2265C204.801 50.7847 204.874 50.2377 204.967 49.6171C205.061 48.9965 205.133 48.2918 205.205 47.5136C205.832 39.9149 204.079 32.3094 200.19 25.7537C199.99 25.4175 199.8 25.1023 199.61 24.8082L199.063 23.9678C198.715 23.4426 198.389 23.0014 198.126 22.6443C197.599 21.909 197.262 21.5205 197.262 21.5205L197.031 21.237C196.873 21.0479 196.662 20.7643 196.357 20.4283L195.304 19.2207C194.862 18.7798 194.378 18.2548 193.81 17.7299C192.528 16.5207 191.16 15.4054 189.718 14.3925C186.399 12.0653 182.723 10.2954 178.835 9.15233C178.373 9.00586 177.91 8.91198 177.469 8.79703C177.028 8.68207 176.576 8.56713 176.145 8.48371L174.884 8.24391L173.696 8.05656C172.162 7.84875 170.88 7.76673 169.976 7.72615C169.525 7.72689 169.167 7.72748 168.926 7.72787L168.558 7.72847L168.18 7.72909C167.938 7.72949 167.592 7.73006 167.129 7.73081C166.667 7.73157 166.131 7.73244 165.501 7.82812C164.871 7.9238 164.167 7.94598 163.4 8.07342C155.871 9.16845 148.864 12.5664 143.339 17.802C142.217 18.8555 141.346 19.8244 140.759 20.5089L139.857 21.5619L138.998 22.6886C138.463 23.415 137.729 24.4889 136.901 25.8468C136.009 27.3699 135.228 28.9563 134.566 30.5933C133.816 32.4658 133.212 34.3935 132.758 36.3591C132.319 38.3248 132.037 40.3227 131.917 42.3335C131.814 44.0856 131.838 45.8428 131.989 47.5914C132.128 49.137 132.33 50.4196 132.499 51.3027L132.817 52.7744ZM156.692 62.5993C156.179 63.5781 155.519 64.8937 154.891 66.2198C154.577 66.8933 154.263 67.5668 153.98 68.1983C148.565 64.811 144.477 59.6648 142.4 53.621L144.5 53.1654C147.367 52.5298 150.181 51.7154 150.181 51.7154L150.382 52.1883C150.498 52.5036 150.709 52.9239 150.941 53.4388C152.196 55.9106 153.948 58.0955 156.089 59.8556C156.299 60.0446 156.509 60.1915 156.688 60.3384C156.867 60.4853 157.035 60.6007 157.172 60.6846L157.593 60.9784L156.692 62.5993ZM168.653 72.3912C165.477 72.3952 162.324 71.8526 159.332 70.787C159.657 70.166 159.992 69.4924 160.316 68.8189C160.944 67.4928 161.562 66.1458 162.002 65.1355L162.724 63.4518L163.218 63.6087L163.796 63.7444C164.044 63.8206 164.297 63.8799 164.553 63.922C165.903 64.2093 167.281 64.3516 168.661 64.3464C170.039 64.3524 171.413 64.2055 172.758 63.9086C173.031 63.9081 173.283 63.792 173.504 63.7391L174.081 63.5804L174.575 63.4323C174.575 63.4323 174.859 64.1049 175.302 65.1137C175.745 66.1225 176.357 67.4676 177.01 68.781C177.337 69.4535 177.685 70.1259 178.001 70.7459C175.004 71.8315 171.841 72.3882 168.653 72.3912ZM183.355 68.1607C183.07 67.5197 182.754 66.8472 182.438 66.1747C181.162 63.5057 179.75 60.9211 179.75 60.9211L179.866 60.8472L180.18 60.6259C180.443 60.4257 180.831 60.1516 181.23 59.7934C182.292 58.9114 183.262 57.9233 184.124 56.8442C184.975 55.7592 185.716 54.592 186.336 53.3598L186.66 52.6757C186.754 52.4653 186.828 52.2758 186.89 52.1285L187.047 51.7707L187.047 51.6445C187.047 51.6445 189.864 52.4391 192.744 53.0654L194.846 53.5036C192.796 59.5547 188.737 64.7201 183.344 68.1396L183.355 68.1607ZM190.386 30.9226C190.931 30.4905 191.435 30.048 191.959 29.637C194.838 34.0939 196.371 39.287 196.375 44.594C196.372 45.648 196.315 46.7012 196.202 47.7491C195.54 47.5925 194.846 47.4148 194.1 47.2583C191.231 46.5795 188.341 46.09 188.341 46.09L188.338 44.1025C188.312 42.7255 188.144 41.3549 187.837 40.0125C187.52 38.6668 187.068 37.3568 186.486 36.1028C186.254 35.5879 186.022 35.1781 185.875 34.8839C185.819 34.7676 185.756 34.6552 185.685 34.5477L185.611 34.4322C185.611 34.4322 188.088 32.7666 190.375 30.9015L190.386 30.9226ZM171.514 23.056C171.513 22.0044 171.573 20.4794 171.571 19.0072C171.57 18.3342 171.569 17.6612 171.568 17.0092C177.88 17.6785 183.77 20.4977 188.254 24.995L186.659 26.228C185.515 27.1448 184.382 28.0826 183.511 28.7991L182.126 30.0107L181.748 29.6538C181.632 29.5383 181.474 29.4228 181.295 29.2759C181.116 29.129 180.927 28.9505 180.696 28.7932C179.604 27.951 178.427 27.2267 177.183 26.6326C175.938 26.0383 174.634 25.5753 173.294 25.2509C173.02 25.1777 172.758 25.1256 172.537 25.0839L171.948 24.9691L171.433 24.8964C171.433 24.8964 171.453 24.1392 171.504 23.0349L171.514 23.056ZM167.097 26.6702C167.402 26.6697 167.665 26.6692 167.885 26.6689C168.053 26.659 168.222 26.6587 168.389 26.668L168.568 26.6678L168.567 26.1525L168.568 26.5731L168.757 26.5728C168.925 26.564 169.093 26.5637 169.261 26.572C169.866 26.5892 170.47 26.6409 171.069 26.7268L171.657 26.8099L172.277 26.9456C172.498 26.9793 172.715 27.0281 172.929 27.0918C173.15 27.1545 173.381 27.1962 173.601 27.2694C174.548 27.538 175.47 27.8883 176.356 28.3165C178.021 29.1233 179.551 30.1852 180.889 31.4639C181.163 31.7159 181.394 31.9783 181.615 32.1883L182.141 32.7764C182.258 32.9032 182.366 33.0364 182.468 33.1754L182.584 33.3119C182.733 33.4868 182.874 33.6691 183.005 33.8581C183.142 34.0366 183.3 34.2467 183.468 34.5093L183.742 34.919L184.016 35.3812C184.962 36.9704 185.656 38.6969 186.073 40.4992C186.48 42.2949 186.61 44.1422 186.46 45.9774C186.442 46.3299 186.404 46.6811 186.346 47.0292C186.294 47.3342 186.274 47.5971 186.221 47.8181C186.138 48.2494 186.086 48.5018 186.086 48.5018L185.908 49.1751C185.909 49.396 185.773 49.6486 185.689 49.9432C185.605 50.2377 185.48 50.564 185.354 50.9112C184.05 54.3853 181.688 57.3614 178.602 59.4192L178.151 59.7249L177.731 59.9779C177.469 60.1361 177.228 60.2627 177.039 60.3577C176.838 60.475 176.632 60.5806 176.419 60.6741L176.251 60.7585C176.146 60.7587 175.999 60.8851 175.789 60.9696L175.054 61.2758C174.771 61.3709 174.445 61.5081 174.088 61.6139C172.337 62.1806 170.509 62.471 168.669 62.4746C167.687 62.4718 166.707 62.3926 165.737 62.2375C165.496 62.2379 165.275 62.1436 165.044 62.1019C164.824 62.0644 164.606 62.0156 164.392 61.9558L163.782 61.8095L163.215 61.6317C162.636 61.4502 162.067 61.237 161.512 60.993C161.349 60.9342 161.191 60.8642 161.039 60.7834L160.881 60.7101L160.723 60.6262C160.618 60.5738 160.45 60.511 160.26 60.4062L159.577 60.0182C159.325 59.8503 159.009 59.6931 158.704 59.4728C157.17 58.4507 155.804 57.1972 154.653 55.7568C154.041 54.9837 153.489 54.1655 153 53.3092C152.6 52.551 152.247 51.7683 151.945 50.9659C151.728 50.4016 151.542 49.8262 151.386 49.2422L151.206 48.5695C151.206 48.5695 151.206 48.3276 151.068 47.8967C150.799 46.4588 150.704 44.9935 150.788 43.533C150.853 42.5458 150.992 41.5649 151.203 40.5983C151.425 39.6365 151.722 38.6937 152.092 37.7786C152.391 36.9698 152.751 36.1852 153.17 35.4318C153.495 34.9232 153.844 34.4313 154.218 33.9578L154.627 33.4103L155.078 32.8838C155.471 32.4204 155.888 31.9774 156.326 31.5567C156.956 30.9713 157.622 30.4258 158.32 29.9235C159.13 29.3601 159.983 28.8594 160.87 28.426C162.526 27.6171 164.297 27.0714 166.12 26.8085C166.435 26.7028 166.814 26.6917 167.087 26.6492L167.097 26.6702ZM165.579 17.0295C165.58 17.671 165.581 18.344 165.582 19.017C165.585 20.4892 165.587 21.9615 165.652 23.0656C165.717 24.1696 165.729 24.9057 165.729 24.9057L165.224 24.9802C165.056 24.9804 164.867 25.0544 164.636 25.0968C164.385 25.1388 164.136 25.1954 163.891 25.2663C162.55 25.5976 161.248 26.0685 160.006 26.6713C158.762 27.2753 157.583 28.0067 156.49 28.8538C156.049 29.2121 155.682 29.4966 155.441 29.7284L155.052 30.076C155.052 30.076 152.864 28.1342 150.55 26.3187C150.013 25.8884 149.498 25.4791 148.951 25.0804C153.403 20.5648 159.269 17.7155 165.569 17.0085L165.579 17.0295ZM145.218 29.682C145.723 30.1019 146.27 30.5426 146.786 30.9729C149.079 32.82 151.467 34.5091 151.467 34.5091L151.404 34.6355L151.226 34.9617C151.122 35.1321 151.028 35.3078 150.943 35.488L150.608 36.1826C150.034 37.4425 149.589 38.7575 149.28 40.1072C148.983 41.4587 148.82 42.8362 148.793 44.2198L148.794 44.9875C148.795 45.2188 148.795 45.4186 148.795 45.5764L148.796 45.9549C148.791 46.0004 148.791 46.0462 148.796 46.0916C148.796 46.0916 145.908 46.5906 143.051 47.2788C142.347 47.4377 141.654 47.6176 140.951 47.787C140.831 46.7397 140.77 45.6866 140.767 44.6325C140.798 39.3542 142.339 34.1952 145.208 29.7662L145.218 29.682Z" fill="#1E51DB"/>
<path d="M212.421 46.0295L211.684 45.263L211.682 44.0958C211.681 43.4017 211.679 42.4658 211.583 41.53C211.487 40.5943 211.412 39.6795 211.337 38.975L211.167 37.8291L211.796 36.9657C212.121 36.5235 212.415 36.0814 212.415 36.0814L212.076 34.4625L211.664 32.8647L211.38 32.6969L210.728 32.3404L209.781 31.8477L209.433 30.7441C209.19 30.082 208.895 29.1992 208.536 28.3374L208.009 27.0869C207.84 26.6876 207.661 26.3198 207.513 26.0361L207.144 25.2796C207.1 25.1789 207.051 25.0806 206.997 24.9854L207.331 23.9332L207.644 22.8811L207.402 22.4293L206.823 21.4523C206.612 21.1056 206.401 20.7484 206.233 20.4963L205.948 20.0656L204.897 19.857L203.847 19.6799L203.046 18.6297C202.646 18.0835 202.215 17.5794 202.215 17.5794C202.215 17.5794 201.794 17.0543 201.362 16.5292C200.93 16.0041 200.467 15.4791 200.467 15.4791L200.529 14.4274L200.527 13.3758L200.169 13.0083C199.948 12.7983 199.664 12.4939 199.369 12.2104L198.149 11.0977L197.813 11.0983L197.077 11.1626L196.027 11.2694L195.785 11.0595C195.627 10.9336 195.406 10.7446 195.122 10.5348C194.565 10.1151 193.839 9.4853 193.018 9.01342L191.882 8.24762L190.831 7.61838L190.105 7.1779L189.832 7.02061L189.546 5.96948L189.24 4.91838L188.788 4.67726L187.736 4.1742L186.685 3.6922L186.212 3.49316L185.214 3.90492L184.249 4.32714L183.197 3.91873L182.073 3.52098L180.769 3.1235C179.886 2.84102 178.982 2.64269 178.31 2.46502C177.973 2.38144 177.69 2.32933 177.49 2.28759L177.185 2.225L176.606 1.33208C176.311 0.880373 176.006 0.439211 176.006 0.439211L174.377 0.2C173.977 0.137558 173.568 0.0856598 173.252 0.0651441L172.748 0.013387L171.93 0.69826C171.52 1.04596 171.132 1.41466 171.132 1.41466L169.777 1.35379C169.441 1.35434 169.105 1.35489 168.842 1.35532L168.422 1.35601C168.422 1.35601 167.739 1.35713 167.066 1.35823L165.711 1.43405C165.711 1.43405 165.322 1.06664 164.912 0.720281L164.091 0.0275651L163.576 0.0915015C163.272 0.0920005 162.862 0.155762 162.452 0.219529L160.814 0.474602L160.625 0.748321L160.216 1.36945L159.63 2.26426L159.42 2.40131L158.59 2.59195C157.918 2.77183 157.004 2.98366 156.122 3.26903C155.681 3.40646 155.23 3.53339 154.82 3.68129L153.697 4.08273C153.046 4.31514 152.647 4.49457 152.647 4.49457L151.669 4.07554L150.618 3.66714C150.618 3.66714 150.429 3.74105 150.156 3.87821L149.106 4.36367C148.738 4.54304 148.371 4.72241 148.056 4.87015L147.605 5.10225C147.605 5.10225 147.448 5.61779 147.302 6.15434C147.156 6.6909 147.03 7.20638 147.03 7.20638C147.03 7.20638 145.424 8.13441 143.882 9.18854C143.137 9.73659 142.381 10.2426 141.836 10.7167L140.933 11.4543C140.933 11.4543 140.408 11.3816 139.882 11.3404L138.832 11.2685L138.444 11.6161C138.223 11.8163 137.909 12.1007 137.625 12.3851L136.451 13.5438L136.452 14.5954L136.517 15.6469C136.517 15.6469 136.056 16.1419 135.626 16.7L134.756 17.753L133.938 18.8059C133.529 19.3429 133.141 19.8588 133.141 19.8588L132.091 20.0393L131.04 20.2514L130.171 21.6619C129.951 22.0093 129.752 22.3672 129.605 22.6408L129.354 23.0935L129.671 24.1445C129.818 24.6491 130.008 25.1956 130.008 25.1956C130.008 25.1956 129.16 26.869 128.48 28.6053C128.145 29.4681 127.832 30.3415 127.602 31.0043L127.257 32.1196L126.312 32.6049L125.388 33.1322L124.992 34.7208C124.825 35.5308 124.669 36.3302 124.669 36.3302C124.669 36.3302 124.963 36.7714 125.279 37.2021L125.922 38.0633C125.922 38.0633 125.849 38.5156 125.755 39.2099C125.662 39.9041 125.579 40.8296 125.507 41.7551C125.384 43.6166 125.429 45.4884 125.429 45.4884C125.429 45.4884 125.041 45.8571 124.685 46.2468L123.961 47.0472C123.961 47.0472 123.962 47.247 123.962 47.5625C123.963 47.878 123.963 48.2776 124.048 48.6875C124.144 49.5181 124.229 50.3383 124.229 50.3383L125.102 50.9783L125.965 51.5974C125.965 51.5974 126.071 52.2702 126.209 52.9325L126.484 54.257L126.694 54.2567L126.484 54.3096L126.822 55.6236C126.981 56.2753 127.182 56.9269 127.182 56.9269L126.679 57.8532L126.176 58.811C126.176 58.811 126.461 59.5887 126.736 60.3664C126.873 60.7553 127.031 61.1336 127.158 61.4173L127.347 61.8902L128.399 62.2881C128.893 62.4766 129.397 62.644 129.397 62.644L129.903 63.6948C130.199 64.3253 130.652 65.1448 131.094 65.9538C132.011 67.5718 133.075 69.1054 133.075 69.1054C133.075 69.1054 132.96 69.6313 132.877 70.1573L132.7 71.2092L133.005 71.6188C133.195 71.8708 133.447 72.1964 133.71 72.5115L134.426 73.3937C134.616 73.6352 134.753 73.7822 134.753 73.7822L135.803 73.8436L136.854 73.8419C136.854 73.8419 137.17 74.1884 137.664 74.6818L138.496 75.5323C138.811 75.8367 139.159 76.1411 139.548 76.456C140.232 77.0963 140.958 77.684 141.494 78.1353C141.757 78.3557 141.989 78.5341 142.157 78.66L142.409 78.8489C142.409 78.8489 142.473 79.3746 142.548 79.9003C142.548 80.1632 142.622 80.4259 142.654 80.6362L142.707 80.9621L144.074 81.8958C144.411 82.1266 144.768 82.3363 145.031 82.5042L145.473 82.7769L146.523 82.5017L147.573 82.2055L148.762 82.8556L149.981 83.453L150.36 83.6312C150.591 83.7465 150.896 83.8932 151.211 84.0189L152.462 84.5426C152.462 84.5426 152.652 85.0471 152.874 85.5305L153.317 86.5077L153.8 86.6752C154.084 86.7904 154.473 86.9265 154.851 87.0415L156.418 87.5227L157.341 86.9743L158.244 86.4155L158.559 86.4991L159.379 86.6871C160.052 86.8121 160.955 87.021 161.88 87.1457L163.225 87.3433C163.656 87.4057 164.066 87.4365 164.413 87.4675L165.569 87.5813L166.263 88.3794L166.979 89.1774L170.288 89.172L171.001 88.3716L171.693 87.5608L172.019 87.5602L172.86 87.4852L174.047 87.3571L175.401 87.1445C176.326 87.0168 177.229 86.8051 177.922 86.6672C178.258 86.6036 178.542 86.519 178.741 86.4766L179.046 86.3919L179.961 86.9478L180.602 87.3253L180.897 87.4826L182.472 86.9963L183.522 86.6265L184.005 86.4469L184.444 85.4682L184.842 84.4791L186.091 83.9512L187.309 83.3813C187.309 83.3813 187.929 83.0964 188.516 82.7695L189.703 82.126L190.754 82.4188L191.805 82.68L192.245 82.4163C192.508 82.2582 192.844 82.0262 193.19 81.7943L194.124 81.1724L194.544 80.8667C194.544 80.8667 194.627 80.3303 194.7 79.8149C194.772 79.2995 194.834 78.763 194.834 78.763C194.922 78.7011 195.006 78.6343 195.086 78.5628L195.747 78.0359C196.01 77.8147 196.335 77.5618 196.66 77.2773L197.709 76.3712C198.402 75.7496 199.052 75.0755 199.545 74.591L200.342 73.7379L202.464 73.7344L203.513 72.4708C204.005 71.8075 204.509 71.1547 204.509 71.1547C204.509 71.1547 204.434 70.6185 204.339 70.1033L204.127 69.0521L204.787 68.0835C205.143 67.4835 205.657 66.7045 206.107 65.8835C206.558 65.0625 206.998 64.2416 207.291 63.6101L207.793 62.5577L208.791 62.188L209.788 61.7867C209.788 61.7867 210.113 61.0291 210.385 60.2504C210.521 59.8611 210.667 59.4718 210.772 59.1982C210.876 58.9246 210.928 58.7037 210.928 58.7037L210.433 57.7581L209.917 56.823L210.042 56.4232L210.272 55.529C210.428 54.8767 210.595 54.2139 210.595 54.2139L210.866 52.899C210.929 52.5729 210.991 52.2363 211.033 51.9943L211.106 51.5736L211.966 50.9517L212.827 50.3089C212.827 50.3089 212.827 50.109 212.889 49.804L213.003 48.6786C213.085 47.8582 213.116 47.0274 213.116 47.0274C213.116 47.0274 212.789 46.418 212.421 46.0295ZM208.116 47.7717C208.044 48.6026 207.971 49.3598 207.868 50.033C207.764 50.7062 207.68 51.2847 207.587 51.7581C207.389 52.7049 207.284 53.2519 207.284 53.2519L207.158 53.2521L207.421 53.3147L207.285 53.315L206.909 54.7878C206.804 55.2612 206.616 55.8399 206.428 56.4712C206.24 57.1024 205.968 57.839 205.686 58.6282C202.78 66.3306 197.541 72.9315 190.704 77.5079L189.654 78.1721L188.73 78.7204C188.153 79.0789 187.628 79.3532 187.208 79.5853C186.348 80.0494 185.844 80.2815 185.844 80.2815L185.487 80.4504C185.245 80.5559 184.909 80.7353 184.437 80.9253C183.965 81.1154 183.45 81.3476 182.82 81.5905C182.19 81.8334 181.466 82.108 180.668 82.3512C178.857 82.9314 177.007 83.3842 175.133 83.7063C172.982 84.0727 170.803 84.2557 168.62 84.2533C166.442 84.2528 164.267 84.077 162.116 83.7276C161.601 83.6548 161.065 83.54 160.613 83.4461C160.161 83.3522 159.646 83.2479 159.184 83.1225L157.839 82.7882L156.598 82.4011C155.316 82.0025 154.056 81.5342 152.824 80.9981C152.372 80.8096 152.025 80.6524 151.773 80.5372L151.416 80.3695L151.677 79.8117L152.035 79.9794C152.266 80.0947 152.613 80.2519 153.086 80.4404C154.303 80.9629 155.545 81.4241 156.808 81.8224L158.027 82.1884L159.351 82.5333C159.803 82.6482 160.266 82.7526 160.749 82.8465C161.232 82.9403 161.726 83.0447 162.231 83.1175C164.349 83.4671 166.493 83.6429 168.64 83.6433C170.788 83.6454 172.932 83.4625 175.048 83.0965C176.898 82.7852 178.724 82.3393 180.509 81.7625C181.286 81.5194 181.99 81.2448 182.609 81.0229L184.205 80.3579C184.646 80.1784 184.982 79.999 185.255 79.8934L185.612 79.7246C185.612 79.7246 186.105 79.5029 186.945 79.0389C187.365 78.8173 187.879 78.5431 188.446 78.1951L189.359 77.6468L190.346 77.0037C197.074 72.4935 202.228 65.9924 205.087 58.4083C205.369 57.6402 205.63 56.9247 205.819 56.3039C206.007 55.6831 206.184 55.1045 206.299 54.6416C206.529 53.7158 206.665 53.1898 206.665 53.1898C206.665 53.1898 206.769 52.6533 206.956 51.7171C207.061 51.2542 207.133 50.6652 207.237 50.013C207.341 49.3609 207.413 48.6141 207.486 47.7937C208.17 39.7216 206.321 31.6368 202.195 24.6672C201.984 24.3205 201.784 23.9738 201.584 23.6166C201.384 23.2594 201.183 23.0179 201.004 22.7342C200.636 22.1775 200.288 21.6838 200.004 21.3267C199.446 20.5495 199.099 20.1294 199.099 20.1294L198.856 19.8248C198.688 19.6253 198.467 19.3312 198.141 18.9742C197.814 18.6172 197.446 18.1761 196.983 17.6931C196.52 17.2102 196.004 16.6431 195.394 16.1078C192.465 13.3395 189.122 11.0458 185.486 9.3097C183.552 8.38194 181.545 7.61836 179.483 7.02703C178.989 6.8701 178.506 6.76574 178.033 6.64032C177.56 6.5149 177.087 6.4 176.624 6.31663L175.29 6.05592L174.018 5.8582C172.4 5.62949 171.034 5.54761 170.067 5.50713C169.595 5.5079 169.216 5.50852 168.954 5.50895L168.565 5.50959L168.166 5.51024C167.914 5.51065 167.535 5.51127 167.052 5.51207C166.569 5.51286 166.002 5.51379 165.329 5.62005C164.657 5.72631 163.911 5.74856 163.092 5.87609C159.112 6.45599 155.245 7.64332 151.625 9.3967C148.008 11.1467 144.684 13.4473 141.771 16.2167C140.586 17.3544 139.673 18.3233 139.034 19.092L138.069 20.2504L138.248 20.3868L138.006 20.1979L138.069 20.1978L137.157 21.3981C136.591 22.1772 135.815 23.3037 134.977 24.7247C134.017 26.3487 133.177 28.0406 132.464 29.787C130.845 33.7624 129.894 37.9779 129.648 42.2636C129.532 44.1381 129.556 46.0186 129.72 47.8896C129.87 49.5298 130.082 50.886 130.262 51.8322C130.442 52.7783 130.569 53.3039 130.569 53.3039L130.95 54.765C131.293 56.0463 131.702 57.3092 132.175 58.5488C132.855 60.2886 133.651 61.9807 134.557 63.6136C135.613 65.4806 136.814 67.2613 138.149 68.9393C140.664 72.083 143.649 74.8199 146.998 77.0537C147.671 77.5258 148.333 77.8927 148.901 78.2493C149.469 78.606 149.953 78.8576 150.415 79.0882C150.878 79.3188 151.183 79.476 151.404 79.5913L151.761 79.759L151.918 79.4327L151.332 80.6641L151.499 80.3167L151.142 80.1386C150.9 80.0233 150.553 79.8661 150.091 79.625C149.628 79.3839 149.134 79.1218 148.545 78.7757C147.956 78.4297 147.304 78.0417 146.61 77.5591C143.208 75.2926 140.177 72.5129 137.624 69.3187C136.271 67.6162 135.053 65.811 133.98 63.9195C133.058 62.2571 132.251 60.5332 131.566 58.7601C130.975 57.2047 130.563 55.8698 130.309 54.9343C130.172 54.3982 130.077 54.0093 130.013 53.757C129.984 53.737 129.961 53.7103 129.944 53.6792C129.928 53.6481 129.919 53.6136 129.918 53.5784C129.918 53.5784 129.918 53.4943 129.918 53.4522C129.912 53.3963 129.912 53.3399 129.918 53.2839C129.918 53.2839 129.918 53.2839 129.918 53.2314C129.917 53 129.78 52.5691 129.653 51.9489C129.473 50.9817 129.25 49.6044 129.1 47.9432C128.938 46.0441 128.911 44.136 129.017 42.2331C129.157 40.0601 129.462 37.901 129.931 35.7748C130.416 33.6533 131.07 31.5739 131.886 29.5566C132.599 27.7896 133.438 26.0767 134.399 24.4312C135.258 22.9997 136.044 21.8416 136.62 21.0625L137.543 19.8411L137.417 19.7362L137.554 19.8411C137.554 19.8411 137.9 19.4094 138.529 18.6617C139.158 17.914 140.102 16.8924 141.308 15.7337C144.272 12.9317 147.644 10.5966 151.309 8.80832C154.987 7.02413 158.919 5.81878 162.965 5.23482C163.795 5.10727 164.561 5.05345 165.234 4.97873C165.906 4.90402 166.505 4.89252 166.988 4.87069C167.471 4.84887 167.86 4.86927 168.123 4.86884L168.522 4.86818L170.056 4.86567C171.399 4.91244 172.739 5.02959 174.07 5.21664L175.352 5.41434L176.708 5.68553C177.18 5.76889 177.653 5.8838 178.137 6.0092C178.62 6.1346 179.114 6.24946 179.608 6.40639C183.81 7.61483 187.783 9.51308 191.363 12.0237C192.921 13.1197 194.397 14.3262 195.782 15.634C196.392 16.1903 196.908 16.7573 197.392 17.2403C197.876 17.7232 198.244 18.1748 198.56 18.5424C198.876 18.9099 199.118 19.2039 199.286 19.4035L199.539 19.7185C199.539 19.7185 199.897 20.1386 200.466 20.9264C200.76 21.315 201.108 21.7981 201.519 22.3653L202.119 23.2582C202.319 23.5839 202.519 23.9306 202.741 24.3088C204.817 27.8294 206.347 31.6458 207.277 35.6271C208.176 39.6083 208.459 43.7043 208.116 47.7717ZM131.932 51.5034C131.752 50.5994 131.55 49.3062 131.401 47.7291C131.072 43.8934 131.339 40.03 132.191 36.2759C133.036 32.5235 134.447 28.922 136.376 25.5953C137.183 24.2374 137.927 23.153 138.472 22.437L139.342 21.2789L138.953 20.9745L139.31 21.2579L140.233 20.1522C140.831 19.4572 141.712 18.4882 142.845 17.4032C144.163 16.1694 145.565 15.0286 147.041 13.9892C148.706 12.7999 150.461 11.7423 152.289 10.8258C155.752 9.14295 159.453 8.00535 163.263 7.45321C164.04 7.33626 164.765 7.2825 165.363 7.20791C165.962 7.13331 166.561 7.13234 167.023 7.11055C167.485 7.08876 167.832 7.10922 168.074 7.10883L168.21 7.1086C168.29 7.12407 168.372 7.12394 168.452 7.10821L168.883 7.1075C169.124 7.10711 169.492 7.1065 169.933 7.10578C171.2 7.14818 172.463 7.26197 173.716 7.44662L174.925 7.62341L176.207 7.87368C176.648 7.95709 177.09 8.07204 177.552 8.18696C178.015 8.30188 178.477 8.40629 178.939 8.55275C184.635 10.1931 189.856 13.1736 194.166 17.2456C194.745 17.7809 195.219 18.2954 195.682 18.7574C196.145 19.2193 196.482 19.6394 196.787 19.9859C197.092 20.3325 197.313 20.616 197.471 20.8051L197.713 21.0991L197.65 21.0992L197.86 20.9306L197.713 21.0571C197.713 21.0571 198.05 21.4561 198.587 22.1914C198.861 22.559 199.187 23.0106 199.535 23.5464L200.093 24.3867L200.683 25.3532C204.63 32.0038 206.412 39.7187 205.783 47.4285C205.711 48.2173 205.638 48.9325 205.534 49.5321C205.43 50.1317 205.368 50.7101 205.274 51.152L204.993 52.5616C204.993 52.5616 204.868 53.0666 204.638 53.9608C204.534 54.4026 204.367 54.9287 204.178 55.5389C203.99 56.1492 203.76 56.8331 203.488 57.5696C200.751 64.8252 195.817 71.0432 189.376 75.3543L188.442 75.9763L187.571 76.493C187.025 76.8304 186.521 77.0941 186.133 77.305C185.325 77.748 184.852 77.9591 184.852 77.9591L184.506 78.1175C184.286 78.223 183.96 78.3918 183.54 78.5712L182.018 79.1941C181.419 79.416 180.747 79.68 179.991 79.9125C178.275 80.4678 176.52 80.8925 174.74 81.1831C172.714 81.5311 170.662 81.7068 168.606 81.7084C166.553 81.7096 164.504 81.5407 162.48 81.2032C161.986 81.1409 161.523 81.0259 161.061 80.9426C160.599 80.8592 160.147 80.7548 159.716 80.6398L158.444 80.3159L157.277 79.9603C156.069 79.5872 154.883 79.1467 153.724 78.6411C153.304 78.463 152.967 78.3163 152.746 78.201L152.41 78.0438L152.274 78.3385L152.535 77.8017L152.42 78.0438L152.084 77.8761C151.863 77.7713 151.527 77.6246 151.127 77.3939C150.727 77.1632 150.233 76.9222 149.676 76.5971C149.118 76.272 148.509 75.905 147.856 75.4538C144.67 73.315 141.831 70.6986 139.439 67.6963C138.16 66.0928 137.012 64.3891 136.006 62.6016C135.136 61.0377 134.375 59.4156 133.728 57.747C133.169 56.2757 132.789 55.0249 132.546 54.1314C132.303 53.238 132.187 52.9227 132.187 52.9227L131.932 51.5034Z" fill="#1E51DB"/>
<path d="M178.68 36.4206L178.534 36.5365C178.711 36.688 178.936 36.771 179.17 36.7707C179.403 36.7703 179.628 36.6865 179.805 36.5344C180.01 36.3867 180.155 36.1699 180.213 35.9238C180.243 35.8103 180.247 35.6914 180.223 35.5764C180.199 35.4615 180.148 35.3537 180.076 35.2615C179.992 35.1725 179.891 35.1016 179.779 35.0532C179.667 35.0048 179.546 34.98 179.424 34.9802C179.302 34.9804 179.181 35.0056 179.069 35.0544C178.957 35.1031 178.856 35.1744 178.773 35.2636C178.591 35.4074 178.467 35.6118 178.423 35.8397C178.379 36.0676 178.418 36.3036 178.533 36.5049L178.68 36.4206Z" fill="#1E51DB"/>
<path d="M181.778 48.3301C181.893 48.3726 182.016 48.3912 182.138 48.3848C182.261 48.3784 182.381 48.3471 182.491 48.2928C182.601 48.2385 182.698 48.1624 182.778 48.069C182.858 47.9756 182.918 47.8671 182.954 47.7498C182.974 47.6269 182.969 47.5011 182.939 47.3802C182.909 47.2593 182.854 47.146 182.778 47.0474C182.702 46.9488 182.606 46.867 182.497 46.8071C182.388 46.7473 182.267 46.7106 182.143 46.6995C181.916 46.6396 181.675 46.6683 181.468 46.78C181.261 46.8917 181.105 47.0779 181.031 47.3008C180.916 47.7216 181.274 48.1837 181.778 48.3301Z" fill="#1E51DB"/>
</g>
</g>
</g>
<path d="M155.27 37.0005L177.736 38.5005L217.677 43.5005L247.133 47.0005L274.593 49.0005L276.59 52.5005L294.563 53.5005L307.544 56.0005L313.535 58.0005L337 101.001H0L11.483 87.5005L29.9556 73.5005L39.4415 68.5005L48.4282 65.0005L54.4193 63.0005L68.3985 61.0005H90.3659L92.363 58.0005L106.841 49.5005L124.316 43.5005L133.302 40.5005L143.287 38.5005L155.27 37.0005Z" fill="white"/>
<path d="M11.8491 86.8526C14.2614 84.4671 16.9286 82.1482 19.9227 79.8323C23.8486 76.7709 28.1704 73.9433 32.769 71.4289C37.7036 68.7634 42.3253 66.7376 46.897 65.2366C48.7664 64.5285 50.7298 64.0258 52.6283 63.5382C53.2061 63.3912 53.784 63.2421 54.3608 63.089C56.7961 62.5843 59.4033 62.0594 61.9966 61.7099C67.8129 60.8879 74.1121 60.488 81.253 60.488C84.702 60.488 88.447 60.5806 92.7027 60.771C96.7896 60.9665 100.917 61.2233 104.91 61.4721C110.846 61.8408 116.985 62.2226 123.01 62.403C127.379 62.6074 131.945 62.7122 136.577 62.7122C153.689 62.7122 170.559 61.2888 183.344 60.0498C201.311 58.3453 219.609 56.3356 239.133 53.923C222.414 57.8668 204.253 61.1579 183.782 63.9543C173.137 65.4442 163.206 66.5019 153.424 67.1899C147.322 67.5818 140.938 67.7792 134.449 67.7792C130.665 67.7792 126.751 67.7127 122.816 67.5798C115.683 67.2876 108.475 66.7668 101.504 66.2642C98.4731 66.0456 95.4509 65.827 92.4378 65.6275C87.5332 65.2618 82.4727 65.0463 77.3991 64.9878C71.6448 64.9929 66.8922 65.1863 62.4375 65.5973C60.0192 65.8159 57.6748 66.1785 55.0806 66.5956C54.4218 66.7426 53.776 66.8776 53.1302 67.0136C51.3797 67.3813 49.5702 67.7621 47.8197 68.297C43.4789 69.4273 38.8803 71.1156 33.7737 73.4537C29.441 75.3868 25.1062 77.7551 20.5236 80.6906C17.3135 82.7577 14.4463 84.7935 11.8491 86.8526Z" fill="#FF3337"/>
<path d="M234.184 54.7923C218.833 58.2395 202.232 61.1669 183.744 63.6944C173.094 65.1833 163.17 66.242 153.408 66.928C147.307 67.3188 140.926 67.5173 134.445 67.5173C130.663 67.5173 126.753 67.4498 122.826 67.3168C115.695 67.0257 108.489 66.5059 101.52 66.0022C98.489 65.7836 95.4659 65.565 92.4568 65.3656C87.5342 64.9989 82.4687 64.7833 77.3941 64.7249C71.6438 64.7299 66.8832 64.9244 62.4134 65.3354C59.9841 65.556 57.6358 65.9186 55.0076 66.3417C54.3608 66.4858 53.712 66.6228 53.0631 66.7598C51.3116 67.1285 49.5002 67.5092 47.7637 68.0401C43.3999 69.1774 38.7873 70.8698 33.6687 73.2129C29.32 75.1531 24.9732 77.5274 20.3806 80.4699C18.733 81.5307 17.1745 82.5844 15.6949 83.6381C17.0765 82.4313 18.5361 81.2345 20.0827 80.0388C23.9955 76.9875 28.3053 74.1679 32.891 71.6606C37.8105 69.0021 42.4182 66.9814 46.9999 65.4774C48.8414 64.7793 50.7948 64.2786 52.6833 63.7941C53.2651 63.645 53.8469 63.4959 54.3997 63.3478C56.841 62.8421 59.4423 62.3183 62.0346 61.9688C67.8389 61.1488 74.1271 60.7499 81.258 60.7499C84.701 60.7499 88.4409 60.8425 92.6897 61.0329C96.7665 61.2284 100.885 61.4852 104.868 61.732C110.814 62.1017 116.964 62.4845 122.993 62.6649C127.372 62.8693 131.943 62.9731 136.581 62.9731C153.706 62.9731 170.58 61.5497 183.368 60.3106C199.811 58.7502 216.519 56.936 234.184 54.7923ZM243.705 53.0889C223.567 55.6174 203.451 57.8779 183.318 59.7888C167.684 61.3049 152.148 62.4493 136.58 62.4493C132.062 62.4493 127.542 62.3526 123.016 62.141C112.958 61.8408 102.902 60.9977 92.7127 60.5091C88.9138 60.3389 85.0909 60.226 81.256 60.226C74.8239 60.226 68.3637 60.5454 61.9606 61.451C59.4073 61.7955 56.828 62.3103 54.2938 62.8361C51.7825 63.506 49.2442 64.0681 46.8159 64.9888C41.8924 66.6057 37.1717 68.7543 32.645 71.2002C28.1273 73.6703 23.8066 76.4737 19.7647 79.6258C15.7139 82.7577 11.892 86.1917 8.5 90.0006C12.3069 86.6219 16.4217 83.6441 20.6615 80.9142C24.9083 78.1933 29.308 75.7353 33.8797 73.6944C38.4254 71.6132 43.09 69.801 47.8936 68.5498C50.2689 67.8245 52.7102 67.3934 55.1205 66.8555C57.5628 66.4636 59.9831 66.0838 62.4604 65.8592C67.423 65.4019 72.4046 65.2548 77.3951 65.2507C82.3917 65.3082 87.3922 65.5157 92.4198 65.8904C102.463 66.5563 112.609 67.4256 122.807 67.8417C126.683 67.9726 130.564 68.0421 134.447 68.0421C140.783 68.0421 147.122 67.8568 153.443 67.4528C163.65 66.7346 173.761 65.6215 183.817 64.2152C203.947 61.4631 223.982 57.9565 243.705 53.0889Z" fill="#FF3337"/>
<path d="M153.736 70.4104C166.839 69.3003 179.891 67.9887 192.877 66.2883C199.372 65.4693 205.848 64.5355 212.29 63.4465C218.747 62.4432 225.145 61.1548 231.512 59.7848L241.08 57.5847L245.926 56.4686C247.543 56.0989 249.188 55.8601 250.817 55.5529C257.336 54.3239 263.943 53.5381 270.568 53.109L275.542 52.8552L280.525 52.831C283.846 52.8521 287.166 52.9932 290.473 53.3044C297.066 53.9129 303.701 54.9565 309.899 57.2976C303.405 56.1936 296.867 56.0042 290.365 56.0384C283.859 56.1512 277.372 56.5139 270.918 57.2664C264.471 58.032 258.036 58.9225 251.658 60.1817C245.258 61.3553 238.977 62.8441 232.446 64.2504C219.453 66.8343 206.339 68.4833 193.201 69.4857C180.058 70.4306 166.885 70.8688 153.736 70.4104Z" fill="#1E51DB" stroke="#0D6EFD" stroke-width="0.75" stroke-miterlimit="10" stroke-linecap="round" stroke-linejoin="round"/>
<path d="M218 71.5437C226.917 69.3164 235.812 67.2453 244.726 65.2497C249.161 64.2061 253.661 63.2632 258.186 62.3898C262.717 61.5537 267.288 60.8989 271.887 60.369C281.081 59.4795 290.492 59.1491 299.778 61.0279C304.389 61.9798 309.006 63.5563 312.971 66.3316C316.923 69.0837 319.87 73.3972 320.5 78.02C318.82 73.6763 315.631 70.3006 311.748 68.3201C307.895 66.2591 303.541 65.2819 299.17 64.6926C294.772 64.189 290.308 63.9955 285.829 64.1628C281.351 64.2625 276.858 64.5919 272.374 65.0956C263.376 65.975 254.465 67.5304 245.386 68.8772C236.318 70.1898 227.194 71.2576 218 71.5437Z" fill="#1E51DB" stroke="#0D6EFD" stroke-width="0.75" stroke-miterlimit="10" stroke-linecap="round" stroke-linejoin="round"/>
<path d="M172 48.0003C155.496 46.3906 129.5 49.5007 104.685 58.5617C104.685 58.5617 137.637 61.0559 173.946 56.8472C173.946 56.8472 188.741 49.6343 172 48.0003Z" fill="black"/>
<path d="M90.5 59.0005C96.9549 54.5313 103.985 50.9414 111.183 47.7786C118.415 44.6836 125.905 42.1322 133.597 40.315C141.273 38.4247 149.167 37.3704 157.108 37.0632C161.079 36.9286 165.066 37.0038 169.038 37.3577C172.961 37.7063 176.826 38.0761 180.717 38.4936C188.482 39.3413 196.225 40.3669 203.951 41.3979L227.061 44.6296C242.451 46.6989 257.925 48.0096 273.5 49.1804C257.922 50.1288 242.237 49.9179 226.65 48.5542C211.054 47.2478 196.162 47.645 180.717 46.0005C176.866 45.5481 172.869 45.8799 169.038 45.5005C165.252 45.1159 162.312 45.0175 158.5 45.0005C150.868 45.0588 136.055 45.5903 128.5 47.0005C113.402 49.9154 104.483 52.0201 90.5 59.0005Z" fill="#1E51DB" stroke="#0D6EFD" stroke-width="0.75" stroke-miterlimit="10" stroke-linecap="round" stroke-linejoin="round"/>
<path d="M30.7566 78.6164C32.9809 77.2544 35.3843 76.238 37.7156 75.3364C40.9057 74.1447 44.4406 73.1565 48.5175 72.3143C55.0766 70.9876 62.1675 70.2744 70.833 70.0679L71.7328 70.0659C78.0539 70.0659 85.0579 70.3812 93.1466 71.0269L115.283 72.547C120.3 72.8976 125.402 73.1786 130.335 73.4496C132.694 73.5796 135.054 73.7095 137.414 73.8475C144.863 74.183 152.158 74.4973 159.55 74.6433C162.231 74.7028 164.984 74.734 167.734 74.734C177.711 74.734 188.122 74.3462 199.44 73.5493C186.657 75.9066 173.266 77.2856 159.567 77.6523C155.998 77.7571 152.274 77.8095 148.497 77.8095C138.559 77.8095 127.926 77.4579 115.031 76.7014C107.578 76.3145 100.086 75.7021 92.8387 75.1097C90.9442 74.9637 89.0628 74.8045 87.1883 74.6474C81.8259 74.1961 76.2804 73.7297 70.805 73.5785C68.8646 73.5191 66.9451 73.4909 65.0997 73.4909C59.3024 73.4909 53.9839 73.7689 48.8404 74.3421C45.4544 74.7904 41.6235 75.2971 37.9965 76.2692C35.6032 76.8857 33.1219 77.5969 30.7566 78.6164Z" fill="#FF3337"/>
<path d="M71.7448 70.3298C78.0559 70.3298 85.0499 70.6441 93.1316 71.2898L115.264 72.8089C120.286 73.1595 125.391 73.4406 130.328 73.7125C132.685 73.8425 135.041 73.9724 137.405 74.1094C144.868 74.4459 152.177 74.7592 159.543 74.9063C162.224 74.9657 164.976 74.9969 167.725 74.9969C176.25 74.9969 185.09 74.7139 194.54 74.1346C183.252 75.9771 171.525 77.0701 159.559 77.3904C155.994 77.4952 152.275 77.5486 148.502 77.5486C138.573 77.5486 127.943 77.196 115.044 76.4405C107.587 76.0536 100.101 75.4422 92.8587 74.8498C90.9732 74.7038 89.0997 74.5456 87.2333 74.3885C81.8598 73.9362 76.3024 73.4688 70.813 73.3177C68.8706 73.2592 66.9491 73.23 65.1017 73.23C59.2913 73.23 53.9639 73.5091 48.8024 74.0843C45.4174 74.5315 41.5815 75.0382 37.9365 76.0154C36.7549 76.3186 35.5522 76.646 34.3506 77.0217C35.4992 76.4959 36.6609 76.0254 37.8045 75.5842C40.9826 74.3965 44.5046 73.4113 48.5684 72.5722C55.1186 71.2475 62.1955 70.5363 70.83 70.3318L71.7448 70.3298ZM71.7448 69.805C71.4388 69.805 71.1329 69.806 70.827 69.807C63.3392 69.9843 55.8324 70.5676 48.4655 72.0575C44.7875 72.817 41.1456 73.776 37.6226 75.0916C34.1326 76.4405 30.6416 78.0089 27.7784 80.4306C30.9615 78.5025 34.5235 77.4327 38.0635 76.5241C41.6035 75.5751 45.2484 75.0826 48.8684 74.6041C54.2578 74.0037 59.6772 73.7538 65.1007 73.7538C66.9991 73.7538 68.8986 73.7841 70.797 73.8415C78.1369 74.043 85.3888 74.7955 92.8177 75.3727C100.209 75.9771 107.604 76.5795 115.016 76.9643C126.155 77.6171 137.321 78.0734 148.501 78.0734C152.19 78.0734 155.882 78.024 159.573 77.9152C174.451 77.5163 189.316 75.9287 203.857 72.959C191.785 73.9019 179.755 74.4731 167.725 74.4731C165.002 74.4731 162.279 74.4439 159.555 74.3824C152.18 74.2364 144.804 73.919 137.429 73.5866C130.055 73.1565 122.676 72.8019 115.301 72.2871L93.1686 70.768C86.1296 70.2039 78.9197 69.805 71.7448 69.805Z" fill="#FF3337"/>
<path d="M50.7538 87.867C52.5163 84.6283 55.3525 81.7845 58.8814 79.7466C62.6614 77.5254 67.1301 76.3256 71.8077 76.2753C76.5054 76.2853 80.9871 77.4347 84.766 79.6016C88.3209 81.5972 91.1931 84.4107 92.9976 87.6322C90.3144 85.0484 87.2293 83.0135 83.8063 81.575C80.0413 80.0226 76.1155 79.2359 72.1346 79.2359L71.6987 79.2369C67.6919 79.2369 63.709 80.065 59.8612 81.6979C56.4541 83.1767 53.397 85.2468 50.7538 87.867Z" fill="#FF3337"/>
<path d="M71.8077 76.5382C76.4624 76.5473 80.8991 77.6846 84.643 79.8302C87.5522 81.4642 89.9985 83.6522 91.765 86.1615C89.4056 84.1548 86.7734 82.536 83.9052 81.3312C80.1093 79.7668 76.1505 78.973 72.1336 78.973L71.8267 78.975H71.7027C67.6589 78.975 63.6421 79.8101 59.7582 81.4592C56.91 82.6942 54.3058 84.3402 51.9794 86.371C53.7129 83.8486 56.1282 81.6395 59.0144 79.9733C62.7523 77.7752 67.1761 76.5876 71.8077 76.5382ZM71.8057 76.0144C67.251 76.0617 62.6753 77.2141 58.7525 79.52C54.8336 81.7825 51.5296 85.1914 49.7941 89.2491C52.7342 86.0013 56.2002 83.5726 59.9631 81.9397C63.6941 80.3561 67.6869 79.4988 71.7017 79.4988C71.7417 79.4988 71.7827 79.4988 71.8227 79.4988C71.9267 79.4978 72.0306 79.4968 72.1356 79.4968C76.0845 79.4968 80.0194 80.2957 83.7073 81.8158C87.4882 83.4044 90.9822 85.7888 93.9713 88.9922C92.1828 84.9577 88.8408 81.5881 84.8959 79.3729C80.9461 77.1094 76.3594 76.0224 71.8057 76.0144Z" fill="#FF3337"/>
<path d="M244.872 86.0608C246.738 80.9877 250.422 76.505 255.071 73.4124C259.707 70.2704 265.349 68.5871 270.99 68.5408C276.63 68.5307 282.293 70.1173 286.972 73.2018C291.662 76.231 295.402 80.6674 297.333 85.7173C293.923 81.5609 289.885 78.2527 285.382 76.0083C280.879 73.7921 275.957 72.6135 271.017 72.68C266.075 72.6518 261.168 73.917 256.692 76.1876C252.216 78.4905 248.221 81.856 244.872 86.0608Z" fill="#1E51DB" stroke="#0D6EFD" stroke-width="0.75" stroke-miterlimit="10" stroke-linecap="round" stroke-linejoin="round"/>
<path d="M59.58 126.561C57.98 126.561 56.4467 126.427 54.98 126.161C53.5133 125.921 52.18 125.574 50.98 125.121C49.78 124.641 48.7533 124.121 47.9 123.561L51.02 117.641C51.98 118.227 52.9667 118.734 53.98 119.161C55.02 119.561 56.0733 119.867 57.14 120.081C58.2067 120.294 59.2733 120.401 60.34 120.401C61.3533 120.401 62.22 120.307 62.94 120.121C63.66 119.907 64.2067 119.614 64.58 119.241C64.9533 118.867 65.14 118.427 65.14 117.921C65.14 117.361 64.8867 116.921 64.38 116.601C63.9 116.254 63.26 115.961 62.46 115.721C61.66 115.481 60.7667 115.241 59.78 115.001C58.82 114.734 57.8467 114.427 56.86 114.081C55.9 113.707 55.02 113.254 54.22 112.721C53.42 112.161 52.7667 111.454 52.26 110.601C51.78 109.747 51.54 108.694 51.54 107.441C51.54 105.414 52.0867 103.654 53.18 102.161C54.2733 100.667 55.82 99.5072 57.82 98.6805C59.8467 97.8539 62.2333 97.4405 64.98 97.4405C66.98 97.4405 68.8467 97.6539 70.58 98.0805C72.3133 98.4805 73.8067 99.0672 75.06 99.8405L72.18 105.721C71.0867 105.027 69.8733 104.507 68.54 104.161C67.2333 103.787 65.8867 103.601 64.5 103.601C63.4333 103.601 62.5133 103.721 61.74 103.961C60.9933 104.201 60.42 104.534 60.02 104.961C59.6467 105.361 59.46 105.814 59.46 106.321C59.46 106.854 59.7 107.294 60.18 107.641C60.66 107.987 61.3 108.281 62.1 108.521C62.9267 108.761 63.82 109.014 64.78 109.281C65.7667 109.521 66.74 109.814 67.7 110.161C68.66 110.481 69.5533 110.921 70.38 111.481C71.2067 112.014 71.86 112.694 72.34 113.521C72.82 114.347 73.06 115.374 73.06 116.601C73.06 118.601 72.5133 120.347 71.42 121.841C70.3267 123.334 68.7667 124.494 66.74 125.321C64.7133 126.147 62.3267 126.561 59.58 126.561ZM84.5584 126.361C83.0118 126.361 81.5318 125.974 80.1184 125.201C78.7051 124.427 77.5584 123.307 76.6784 121.841C75.8251 120.374 75.3984 118.587 75.3984 116.481C75.3984 114.667 75.7051 113.001 76.3184 111.481C76.9318 109.961 77.7718 108.641 78.8384 107.521C79.9318 106.401 81.1851 105.534 82.5984 104.921C84.0384 104.281 85.5584 103.961 87.1584 103.961C88.9184 103.961 90.4251 104.307 91.6784 105.001C92.9584 105.667 93.8918 106.761 94.4784 108.281C95.0651 109.774 95.1984 111.801 94.8784 114.361C94.6384 116.787 94.0651 118.907 93.1584 120.721C92.2518 122.534 91.0784 123.934 89.6384 124.921C88.1984 125.881 86.5051 126.361 84.5584 126.361ZM87.1984 120.241C88.2118 120.241 89.1051 119.987 89.8784 119.481C90.6518 118.974 91.2518 118.267 91.6784 117.361C92.1318 116.454 92.3584 115.401 92.3584 114.201C92.3584 112.947 91.9984 111.947 91.2784 111.201C90.5584 110.427 89.5451 110.041 88.2384 110.041C87.2518 110.041 86.3584 110.307 85.5584 110.841C84.7851 111.347 84.1718 112.054 83.7184 112.961C83.2918 113.867 83.0784 114.921 83.0784 116.121C83.0784 117.374 83.4384 118.374 84.1584 119.121C84.8784 119.867 85.8918 120.241 87.1984 120.241ZM90.3984 126.001L91.1584 122.361L92.5984 115.201L93.5584 108.041L94.3184 104.321H101.918L97.5984 126.001H90.3984ZM105.011 134.121C103.864 134.121 102.731 133.947 101.611 133.601C100.464 133.254 99.5576 132.801 98.8909 132.241L102.291 126.881C102.744 127.254 103.251 127.547 103.811 127.761C104.371 128.001 104.984 128.121 105.651 128.121C106.398 128.121 107.038 127.934 107.571 127.561C108.104 127.187 108.611 126.601 109.091 125.801L110.651 123.281L111.291 122.521L122.211 104.321H129.651L115.771 126.961C114.651 128.801 113.558 130.241 112.491 131.281C111.424 132.321 110.291 133.054 109.091 133.481C107.891 133.907 106.531 134.121 105.011 134.121ZM109.011 126.921L103.931 104.321H111.491L115.091 121.841L109.011 126.921ZM136.59 126.361C135.043 126.361 133.563 125.974 132.15 125.201C130.736 124.427 129.59 123.307 128.71 121.841C127.856 120.374 127.43 118.587 127.43 116.481C127.43 114.667 127.736 113.001 128.35 111.481C128.963 109.961 129.803 108.641 130.87 107.521C131.963 106.401 133.216 105.534 134.63 104.921C136.07 104.281 137.59 103.961 139.19 103.961C140.95 103.961 142.456 104.307 143.71 105.001C144.99 105.667 145.923 106.761 146.51 108.281C147.096 109.774 147.23 111.801 146.91 114.361C146.67 116.787 146.096 118.907 145.19 120.721C144.283 122.534 143.11 123.934 141.67 124.921C140.23 125.881 138.536 126.361 136.59 126.361ZM139.23 120.241C140.243 120.241 141.136 119.987 141.91 119.481C142.683 118.974 143.283 118.267 143.71 117.361C144.163 116.454 144.39 115.401 144.39 114.201C144.39 112.947 144.03 111.947 143.31 111.201C142.59 110.427 141.576 110.041 140.27 110.041C139.283 110.041 138.39 110.307 137.59 110.841C136.816 111.347 136.203 112.054 135.75 112.961C135.323 113.867 135.11 114.921 135.11 116.121C135.11 117.374 135.47 118.374 136.19 119.121C136.91 119.867 137.923 120.241 139.23 120.241ZM142.43 126.001L143.19 122.361L144.63 115.201L145.59 108.041L146.35 104.321H153.95L149.63 126.001H142.43ZM154.522 126.001L158.842 104.321H166.042L164.802 110.481L164.082 108.721C165.042 106.987 166.309 105.761 167.882 105.041C169.456 104.321 171.296 103.961 173.402 103.961L172.082 110.801C171.762 110.747 171.469 110.721 171.202 110.721C170.936 110.694 170.656 110.681 170.362 110.681C168.709 110.681 167.349 111.081 166.282 111.881C165.242 112.654 164.549 113.947 164.202 115.761L162.122 126.001H154.522ZM181.863 126.361C180.316 126.361 178.836 125.974 177.423 125.201C176.01 124.427 174.863 123.307 173.983 121.841C173.13 120.374 172.703 118.587 172.703 116.481C172.703 114.667 173.01 113.001 173.623 111.481C174.236 109.961 175.076 108.641 176.143 107.521C177.236 106.401 178.49 105.534 179.903 104.921C181.343 104.281 182.863 103.961 184.463 103.961C186.223 103.961 187.73 104.307 188.983 105.001C190.263 105.667 191.196 106.761 191.783 108.281C192.37 109.774 192.503 111.801 192.183 114.361C191.943 116.787 191.37 118.907 190.463 120.721C189.556 122.534 188.383 123.934 186.943 124.921C185.503 125.881 183.81 126.361 181.863 126.361ZM184.503 120.241C185.516 120.241 186.41 119.987 187.183 119.481C187.956 118.974 188.556 118.267 188.983 117.361C189.436 116.454 189.663 115.401 189.663 114.201C189.663 112.947 189.303 111.947 188.583 111.201C187.863 110.427 186.85 110.041 185.543 110.041C184.556 110.041 183.663 110.307 182.863 110.841C182.09 111.347 181.476 112.054 181.023 112.961C180.596 113.867 180.383 114.921 180.383 116.121C180.383 117.374 180.743 118.374 181.463 119.121C182.183 119.867 183.196 120.241 184.503 120.241ZM187.703 126.001L188.463 122.361L189.903 115.201L190.863 108.041L191.623 104.321H199.223L194.903 126.001H187.703Z" fill="#1E51DB"/>
<mask id="path-15-outside-1_1_1951" maskUnits="userSpaceOnUse" x="199.5" y="95.0005" width="89" height="33" fill="black">
<rect fill="white" x="199.5" y="95.0005" width="89" height="33"/>
<path d="M225.42 98.0005H233.34L227.74 126.001H219.82L225.42 98.0005ZM209.06 126.001H201.14L206.74 98.0005H214.66L209.06 126.001ZM222.58 115.081H210.7L212.02 108.521H223.9L222.58 115.081ZM242.327 126.361C240.567 126.361 239.033 125.987 237.727 125.241C236.447 124.467 235.54 123.334 235.007 121.841C234.473 120.347 234.42 118.494 234.847 116.281L237.247 104.321H244.847L242.607 115.561C242.313 116.947 242.393 118.014 242.847 118.761C243.327 119.507 244.167 119.881 245.367 119.881C246.647 119.881 247.713 119.494 248.567 118.721C249.447 117.921 250.047 116.694 250.367 115.041L252.527 104.321H260.127L255.807 126.001H248.607L249.847 119.881L250.807 121.641C249.767 123.267 248.487 124.467 246.967 125.241C245.473 125.987 243.927 126.361 242.327 126.361ZM260.702 126.001L266.622 96.3205H274.222L271.902 108.001L270.062 115.081L268.902 121.121L267.942 126.001H260.702ZM275.462 126.361C273.915 126.361 272.542 126.094 271.342 125.561C270.142 125.001 269.209 124.134 268.542 122.961C267.875 121.761 267.542 120.214 267.542 118.321C267.542 116.401 267.769 114.587 268.222 112.881C268.675 111.147 269.342 109.614 270.222 108.281C271.129 106.947 272.235 105.894 273.542 105.121C274.849 104.347 276.355 103.961 278.062 103.961C279.635 103.961 281.115 104.347 282.502 105.121C283.915 105.894 285.049 107.014 285.902 108.481C286.782 109.921 287.222 111.694 287.222 113.801C287.222 115.614 286.915 117.281 286.302 118.801C285.689 120.321 284.835 121.654 283.742 122.801C282.675 123.921 281.435 124.801 280.022 125.441C278.609 126.054 277.089 126.361 275.462 126.361ZM274.382 120.241C275.395 120.241 276.289 119.987 277.062 119.481C277.835 118.974 278.435 118.267 278.862 117.361C279.315 116.454 279.542 115.401 279.542 114.201C279.542 112.947 279.182 111.947 278.462 111.201C277.742 110.427 276.729 110.041 275.422 110.041C274.435 110.041 273.542 110.307 272.742 110.841C271.969 111.347 271.355 112.054 270.902 112.961C270.475 113.867 270.262 114.921 270.262 116.121C270.262 117.374 270.622 118.374 271.342 119.121C272.062 119.867 273.075 120.241 274.382 120.241Z"/>
</mask>
<path d="M225.42 98.0005V97.0005H224.6L224.439 97.8044L225.42 98.0005ZM233.34 98.0005L234.321 98.1967L234.56 97.0005H233.34V98.0005ZM227.74 126.001V127.001H228.56L228.721 126.197L227.74 126.001ZM219.82 126.001L218.839 125.804L218.6 127.001H219.82V126.001ZM209.06 126.001V127.001H209.88L210.041 126.197L209.06 126.001ZM201.14 126.001L200.159 125.804L199.92 127.001H201.14V126.001ZM206.74 98.0005V97.0005H205.92L205.759 97.8044L206.74 98.0005ZM214.66 98.0005L215.641 98.1967L215.88 97.0005H214.66V98.0005ZM222.58 115.081V116.081H223.399L223.56 115.278L222.58 115.081ZM210.7 115.081L209.72 114.883L209.479 116.081H210.7V115.081ZM212.02 108.521V107.521H211.201L211.04 108.323L212.02 108.521ZM223.9 108.521L224.88 108.718L225.121 107.521H223.9V108.521ZM225.42 98.0005V99.0005H233.34V98.0005V97.0005H225.42V98.0005ZM233.34 98.0005L232.359 97.8044L226.759 125.804L227.74 126.001L228.721 126.197L234.321 98.1967L233.34 98.0005ZM227.74 126.001V125.001H219.82V126.001V127.001H227.74V126.001ZM219.82 126.001L220.801 126.197L226.401 98.1967L225.42 98.0005L224.439 97.8044L218.839 125.804L219.82 126.001ZM209.06 126.001V125.001H201.14V126.001V127.001H209.06V126.001ZM201.14 126.001L202.121 126.197L207.721 98.1967L206.74 98.0005L205.759 97.8044L200.159 125.804L201.14 126.001ZM206.74 98.0005V99.0005H214.66V98.0005V97.0005H206.74V98.0005ZM214.66 98.0005L213.679 97.8044L208.079 125.804L209.06 126.001L210.041 126.197L215.641 98.1967L214.66 98.0005ZM222.58 115.081V114.081H210.7V115.081V116.081H222.58V115.081ZM210.7 115.081L211.68 115.278L213 108.718L212.02 108.521L211.04 108.323L209.72 114.883L210.7 115.081ZM212.02 108.521V109.521H223.9V108.521V107.521H212.02V108.521ZM223.9 108.521L222.92 108.323L221.6 114.883L222.58 115.081L223.56 115.278L224.88 108.718L223.9 108.521ZM237.727 125.241L237.209 126.096L237.22 126.103L237.23 126.109L237.727 125.241ZM235.007 121.841L234.065 122.177L235.007 121.841ZM234.847 116.281L233.866 116.084L233.865 116.091L234.847 116.281ZM237.247 104.321V103.321H236.427L236.266 104.124L237.247 104.321ZM244.847 104.321L245.827 104.516L246.066 103.321H244.847V104.321ZM242.607 115.561L243.585 115.768L243.587 115.756L242.607 115.561ZM242.847 118.761L241.992 119.28L241.998 119.291L242.005 119.301L242.847 118.761ZM248.567 118.721L249.238 119.462L249.239 119.46L248.567 118.721ZM250.367 115.041L249.386 114.843L249.385 114.851L250.367 115.041ZM252.527 104.321V103.321H251.708L251.546 104.123L252.527 104.321ZM260.127 104.321L261.107 104.516L261.345 103.321H260.127V104.321ZM255.807 126.001V127.001H256.627L256.787 126.196L255.807 126.001ZM248.607 126.001L247.626 125.802L247.384 127.001H248.607V126.001ZM249.847 119.881L250.724 119.402L249.411 116.994L248.866 119.682L249.847 119.881ZM250.807 121.641L251.649 122.179L251.968 121.681L251.684 121.162L250.807 121.641ZM246.967 125.241L247.414 126.135L247.42 126.132L246.967 125.241ZM242.327 126.361V125.361C240.711 125.361 239.354 125.019 238.223 124.372L237.727 125.241L237.23 126.109C238.712 126.955 240.422 127.361 242.327 127.361V126.361ZM237.727 125.241L238.244 124.385C237.173 123.738 236.409 122.795 235.948 121.504L235.007 121.841L234.065 122.177C234.671 123.873 235.72 125.196 237.209 126.096L237.727 125.241ZM235.007 121.841L235.948 121.504C235.495 120.236 235.422 118.578 235.828 116.47L234.847 116.281L233.865 116.091C233.418 118.41 233.451 120.459 234.065 122.177L235.007 121.841ZM234.847 116.281L235.827 116.477L238.227 104.517L237.247 104.321L236.266 104.124L233.866 116.084L234.847 116.281ZM237.247 104.321V105.321H244.847V104.321V103.321H237.247V104.321ZM244.847 104.321L243.866 104.125L241.626 115.365L242.607 115.561L243.587 115.756L245.827 104.516L244.847 104.321ZM242.607 115.561L241.628 115.354C241.313 116.842 241.345 118.214 241.992 119.28L242.847 118.761L243.701 118.242C243.441 117.814 243.313 117.052 243.585 115.768L242.607 115.561ZM242.847 118.761L242.005 119.301C242.731 120.43 243.959 120.881 245.367 120.881V119.881V118.881C244.374 118.881 243.922 118.584 243.688 118.22L242.847 118.761ZM245.367 119.881V120.881C246.865 120.881 248.18 120.421 249.238 119.462L248.567 118.721L247.895 117.98C247.247 118.567 246.428 118.881 245.367 118.881V119.881ZM248.567 118.721L249.239 119.46C250.333 118.466 251.004 117.01 251.348 115.231L250.367 115.041L249.385 114.851C249.089 116.378 248.56 117.375 247.894 117.981L248.567 118.721ZM250.367 115.041L251.347 115.238L253.507 104.518L252.527 104.321L251.546 104.123L249.386 114.843L250.367 115.041ZM252.527 104.321V105.321H260.127V104.321V103.321H252.527V104.321ZM260.127 104.321L259.146 104.125L254.826 125.805L255.807 126.001L256.787 126.196L261.107 104.516L260.127 104.321ZM255.807 126.001V125.001H248.607V126.001V127.001H255.807V126.001ZM248.607 126.001L249.587 126.199L250.827 120.079L249.847 119.881L248.866 119.682L247.626 125.802L248.607 126.001ZM249.847 119.881L248.969 120.359L249.929 122.119L250.807 121.641L251.684 121.162L250.724 119.402L249.847 119.881ZM250.807 121.641L249.964 121.102C249.007 122.599 247.854 123.667 246.513 124.349L246.967 125.241L247.42 126.132C249.119 125.267 250.526 123.936 251.649 122.179L250.807 121.641ZM246.967 125.241L246.519 124.346C245.159 125.026 243.765 125.361 242.327 125.361V126.361V127.361C244.089 127.361 245.788 126.948 247.414 126.135L246.967 125.241ZM260.702 126.001L259.721 125.805L259.483 127.001H260.702V126.001ZM266.622 96.3205V95.3205H265.802L265.641 96.1249L266.622 96.3205ZM274.222 96.3205L275.203 96.5154L275.44 95.3205H274.222V96.3205ZM271.902 108.001L272.87 108.252L272.877 108.224L272.883 108.195L271.902 108.001ZM270.062 115.081L269.094 114.829L269.086 114.86L269.08 114.892L270.062 115.081ZM268.902 121.121L269.883 121.314L269.884 121.309L268.902 121.121ZM267.942 126.001V127.001H268.764L268.923 126.194L267.942 126.001ZM271.342 125.561L270.919 126.467L270.927 126.471L270.936 126.474L271.342 125.561ZM268.542 122.961L267.668 123.446L267.672 123.455L268.542 122.961ZM268.222 112.881L269.188 113.137L269.189 113.134L268.222 112.881ZM270.222 108.281L269.395 107.718L269.387 107.73L270.222 108.281ZM282.502 105.121L282.015 105.994L282.022 105.998L282.502 105.121ZM285.902 108.481L285.038 108.983L285.043 108.993L285.049 109.002L285.902 108.481ZM286.302 118.801L287.229 119.175L286.302 118.801ZM283.742 122.801L283.018 122.11L283.018 122.111L283.742 122.801ZM280.022 125.441L280.42 126.358L280.427 126.355L280.434 126.352L280.022 125.441ZM277.062 119.481L276.514 118.644L277.062 119.481ZM278.862 117.361L277.967 116.913L277.962 116.924L277.957 116.935L278.862 117.361ZM278.462 111.201L277.73 111.882L277.736 111.888L277.742 111.895L278.462 111.201ZM272.742 110.841L273.29 111.677L273.297 111.673L272.742 110.841ZM270.902 112.961L270.007 112.513L270.002 112.524L269.997 112.535L270.902 112.961ZM271.342 119.121L270.622 119.815L271.342 119.121ZM260.702 126.001L261.683 126.196L267.603 96.5162L266.622 96.3205L265.641 96.1249L259.721 125.805L260.702 126.001ZM266.622 96.3205V97.3205H274.222V96.3205V95.3205H266.622V96.3205ZM274.222 96.3205L273.241 96.1257L270.921 107.806L271.902 108.001L272.883 108.195L275.203 96.5154L274.222 96.3205ZM271.902 108.001L270.934 107.749L269.094 114.829L270.062 115.081L271.03 115.332L272.87 108.252L271.902 108.001ZM270.062 115.081L269.08 114.892L267.92 120.932L268.902 121.121L269.884 121.309L271.044 115.269L270.062 115.081ZM268.902 121.121L267.921 120.928L266.961 125.808L267.942 126.001L268.923 126.194L269.883 121.314L268.902 121.121ZM267.942 126.001V125.001H260.702V126.001V127.001H267.942V126.001ZM275.462 126.361V125.361C274.031 125.361 272.799 125.114 271.748 124.647L271.342 125.561L270.936 126.474C272.284 127.074 273.8 127.361 275.462 127.361V126.361ZM271.342 125.561L271.765 124.654C270.757 124.184 269.978 123.463 269.411 122.467L268.542 122.961L267.672 123.455C268.439 124.805 269.527 125.817 270.919 126.467L271.342 125.561ZM268.542 122.961L269.416 122.475C268.857 121.469 268.542 120.105 268.542 118.321H267.542H266.542C266.542 120.322 266.893 122.052 267.668 123.446L268.542 122.961ZM267.542 118.321H268.542C268.542 116.48 268.759 114.753 269.188 113.137L268.222 112.881L267.255 112.624C266.778 114.421 266.542 116.321 266.542 118.321H267.542ZM268.222 112.881L269.189 113.134C269.618 111.493 270.244 110.063 271.056 108.831L270.222 108.281L269.387 107.73C268.44 109.165 267.732 110.801 267.254 112.628L268.222 112.881ZM270.222 108.281L271.049 108.843C271.878 107.623 272.879 106.675 274.051 105.981L273.542 105.121L273.033 104.26C271.592 105.113 270.379 106.271 269.395 107.718L270.222 108.281ZM273.542 105.121L274.051 105.981C275.185 105.31 276.512 104.961 278.062 104.961V103.961V102.961C276.199 102.961 274.512 103.384 273.033 104.26L273.542 105.121ZM278.062 103.961V104.961C279.463 104.961 280.776 105.303 282.015 105.994L282.502 105.121L282.989 104.247C281.455 103.392 279.807 102.961 278.062 102.961V103.961ZM282.502 105.121L282.022 105.998C283.267 106.679 284.271 107.665 285.038 108.983L285.902 108.481L286.766 107.978C285.826 106.362 284.564 105.109 282.982 104.243L282.502 105.121ZM285.902 108.481L285.049 109.002C285.811 110.25 286.222 111.832 286.222 113.801H287.222H288.222C288.222 111.555 287.752 109.591 286.755 107.959L285.902 108.481ZM287.222 113.801H286.222C286.222 115.499 285.935 117.037 285.375 118.426L286.302 118.801L287.229 119.175C287.895 117.524 288.222 115.728 288.222 113.801H287.222ZM286.302 118.801L285.375 118.426C284.807 119.833 284.021 121.058 283.018 122.11L283.742 122.801L284.466 123.491C285.649 122.249 286.57 120.808 287.229 119.175L286.302 118.801ZM283.742 122.801L283.018 122.111C282.04 123.137 280.906 123.942 279.609 124.53L280.022 125.441L280.434 126.352C281.964 125.659 283.31 124.704 284.466 123.49L283.742 122.801ZM280.022 125.441L279.624 124.523C278.343 125.079 276.959 125.361 275.462 125.361V126.361V127.361C277.218 127.361 278.874 127.029 280.42 126.358L280.022 125.441ZM274.382 120.241V121.241C275.57 121.241 276.658 120.941 277.61 120.317L277.062 119.481L276.514 118.644C275.919 119.034 275.22 119.241 274.382 119.241V120.241ZM277.062 119.481L277.61 120.317C278.551 119.701 279.268 118.846 279.767 117.786L278.862 117.361L277.957 116.935C277.602 117.689 277.12 118.247 276.514 118.644L277.062 119.481ZM278.862 117.361L279.756 117.808C280.291 116.739 280.542 115.527 280.542 114.201H279.542H278.542C278.542 115.274 278.34 116.169 277.967 116.913L278.862 117.361ZM279.542 114.201H280.542C280.542 112.746 280.118 111.477 279.182 110.506L278.462 111.201L277.742 111.895C278.246 112.417 278.542 113.149 278.542 114.201H279.542ZM278.462 111.201L279.194 110.519C278.241 109.496 276.936 109.041 275.422 109.041V110.041V111.041C276.521 111.041 277.242 111.358 277.73 111.882L278.462 111.201ZM275.422 110.041V109.041C274.243 109.041 273.156 109.363 272.187 110.008L272.742 110.841L273.297 111.673C273.928 111.252 274.627 111.041 275.422 111.041V110.041ZM272.742 110.841L272.194 110.004C271.259 110.617 270.532 111.464 270.007 112.513L270.902 112.961L271.796 113.408C272.178 112.643 272.678 112.078 273.29 111.677L272.742 110.841ZM270.902 112.961L269.997 112.535C269.497 113.598 269.262 114.802 269.262 116.121H270.262H271.262C271.262 115.039 271.454 114.136 271.807 113.386L270.902 112.961ZM270.262 116.121H269.262C269.262 117.576 269.686 118.844 270.622 119.815L271.342 119.121L272.062 118.426C271.558 117.904 271.262 117.172 271.262 116.121H270.262ZM271.342 119.121L270.622 119.815C271.577 120.805 272.878 121.241 274.382 121.241V120.241V119.241C273.272 119.241 272.547 118.93 272.062 118.426L271.342 119.121Z" fill="black" mask="url(#path-15-outside-1_1_1951)"/>
<path d="M60.6708 154.001V150.785L60.9468 151.529L57.3348 145.601H58.6188L61.6548 150.605H60.9588L64.0068 145.601H65.1948L61.5948 151.529L61.8588 150.785V154.001H60.6708ZM68.2535 154.073C67.6135 154.073 67.0455 153.933 66.5495 153.653C66.0535 153.373 65.6615 152.989 65.3735 152.501C65.0855 152.005 64.9415 151.445 64.9415 150.821C64.9415 150.189 65.0855 149.629 65.3735 149.141C65.6615 148.653 66.0535 148.273 66.5495 148.001C67.0455 147.721 67.6135 147.581 68.2535 147.581C68.8855 147.581 69.4495 147.721 69.9455 148.001C70.4495 148.273 70.8415 148.653 71.1215 149.141C71.4095 149.621 71.5535 150.181 71.5535 150.821C71.5535 151.453 71.4095 152.013 71.1215 152.501C70.8415 152.989 70.4495 153.373 69.9455 153.653C69.4495 153.933 68.8855 154.073 68.2535 154.073ZM68.2535 153.065C68.6615 153.065 69.0255 152.973 69.3455 152.789C69.6735 152.605 69.9295 152.345 70.1135 152.009C70.2975 151.665 70.3895 151.269 70.3895 150.821C70.3895 150.365 70.2975 149.973 70.1135 149.645C69.9295 149.309 69.6735 149.049 69.3455 148.865C69.0255 148.681 68.6615 148.589 68.2535 148.589C67.8455 148.589 67.4815 148.681 67.1615 148.865C66.8415 149.049 66.5855 149.309 66.3935 149.645C66.2015 149.973 66.1055 150.365 66.1055 150.821C66.1055 151.269 66.2015 151.665 66.3935 152.009C66.5855 152.345 66.8415 152.605 67.1615 152.789C67.4815 152.973 67.8455 153.065 68.2535 153.065ZM75.8227 154.073C75.2787 154.073 74.7987 153.973 74.3827 153.773C73.9747 153.573 73.6547 153.269 73.4227 152.861C73.1987 152.445 73.0867 151.925 73.0867 151.301V147.641H74.2387V151.169C74.2387 151.793 74.3867 152.261 74.6827 152.573C74.9867 152.885 75.4107 153.041 75.9547 153.041C76.3547 153.041 76.7027 152.961 76.9987 152.801C77.2947 152.633 77.5227 152.393 77.6827 152.081C77.8427 151.761 77.9227 151.377 77.9227 150.929V147.641H79.0747V154.001H77.9827V152.285L78.1627 152.741C77.9547 153.165 77.6427 153.493 77.2267 153.725C76.8107 153.957 76.3427 154.073 75.8227 154.073ZM81.2678 154.001V147.641H82.3718V149.369L82.2638 148.937C82.4398 148.497 82.7358 148.161 83.1518 147.929C83.5678 147.697 84.0798 147.581 84.6878 147.581V148.697C84.6398 148.689 84.5918 148.685 84.5438 148.685C84.5038 148.685 84.4638 148.685 84.4238 148.685C83.8078 148.685 83.3198 148.869 82.9598 149.237C82.5998 149.605 82.4198 150.137 82.4198 150.833V154.001H81.2678ZM88.3083 154.001L92.1123 145.601H93.3003L97.1163 154.001H95.8563L92.4603 146.273H92.9403L89.5443 154.001H88.3083ZM89.9283 151.901L90.2523 150.941H94.9803L95.3283 151.901H89.9283ZM98.2014 154.001V145.097H99.3534V154.001H98.2014ZM101.553 154.001V145.097H102.705V154.001H101.553ZM104.497 151.205V150.209H107.725V151.205H104.497ZM109.666 154.001V145.601H110.866V154.001H109.666ZM116.609 147.581C117.129 147.581 117.585 147.681 117.977 147.881C118.377 148.081 118.689 148.385 118.913 148.793C119.137 149.201 119.249 149.717 119.249 150.341V154.001H118.097V150.473C118.097 149.857 117.945 149.393 117.641 149.081C117.345 148.769 116.925 148.613 116.381 148.613C115.973 148.613 115.617 148.693 115.313 148.853C115.009 149.013 114.773 149.249 114.605 149.561C114.445 149.873 114.365 150.261 114.365 150.725V154.001H113.213V147.641H114.317V149.357L114.137 148.901C114.345 148.485 114.665 148.161 115.097 147.929C115.529 147.697 116.033 147.581 116.609 147.581ZM120.973 151.205V150.209H124.201V151.205H120.973ZM130.017 154.097C129.377 154.097 128.781 153.989 128.229 153.773C127.685 153.557 127.213 153.257 126.813 152.873C126.413 152.481 126.101 152.025 125.877 151.505C125.653 150.985 125.541 150.417 125.541 149.801C125.541 149.185 125.653 148.617 125.877 148.097C126.101 147.577 126.413 147.125 126.813 146.741C127.213 146.349 127.685 146.045 128.229 145.829C128.773 145.613 129.369 145.505 130.017 145.505C130.657 145.505 131.245 145.613 131.781 145.829C132.325 146.037 132.797 146.337 133.197 146.729C133.605 147.113 133.917 147.565 134.133 148.085C134.357 148.605 134.469 149.177 134.469 149.801C134.469 150.425 134.357 150.997 134.133 151.517C133.917 152.037 133.605 152.493 133.197 152.885C132.797 153.269 132.325 153.569 131.781 153.785C131.245 153.993 130.657 154.097 130.017 154.097ZM130.017 153.029C130.481 153.029 130.909 152.949 131.301 152.789C131.701 152.629 132.045 152.405 132.333 152.117C132.629 151.821 132.857 151.477 133.017 151.085C133.185 150.693 133.269 150.265 133.269 149.801C133.269 149.337 133.185 148.909 133.017 148.517C132.857 148.125 132.629 147.785 132.333 147.497C132.045 147.201 131.701 146.973 131.301 146.813C130.909 146.653 130.481 146.573 130.017 146.573C129.545 146.573 129.109 146.653 128.709 146.813C128.317 146.973 127.973 147.201 127.677 147.497C127.381 147.785 127.149 148.125 126.981 148.517C126.821 148.909 126.741 149.337 126.741 149.801C126.741 150.265 126.821 150.693 126.981 151.085C127.149 151.477 127.381 151.821 127.677 152.117C127.973 152.405 128.317 152.629 128.709 152.789C129.109 152.949 129.545 153.029 130.017 153.029ZM139.531 147.581C140.051 147.581 140.507 147.681 140.899 147.881C141.299 148.081 141.611 148.385 141.835 148.793C142.059 149.201 142.171 149.717 142.171 150.341V154.001H141.019V150.473C141.019 149.857 140.867 149.393 140.563 149.081C140.267 148.769 139.847 148.613 139.303 148.613C138.895 148.613 138.539 148.693 138.235 148.853C137.931 149.013 137.695 149.249 137.527 149.561C137.367 149.873 137.287 150.261 137.287 150.725V154.001H136.135V147.641H137.239V149.357L137.059 148.901C137.267 148.485 137.587 148.161 138.019 147.929C138.451 147.697 138.955 147.581 139.531 147.581ZM147.135 154.073C146.455 154.073 145.855 153.933 145.335 153.653C144.823 153.373 144.423 152.989 144.135 152.501C143.855 152.013 143.715 151.453 143.715 150.821C143.715 150.189 143.851 149.629 144.123 149.141C144.403 148.653 144.783 148.273 145.263 148.001C145.751 147.721 146.299 147.581 146.907 147.581C147.523 147.581 148.067 147.717 148.539 147.989C149.011 148.261 149.379 148.645 149.643 149.141C149.915 149.629 150.051 150.201 150.051 150.857C150.051 150.905 150.047 150.961 150.039 151.025C150.039 151.089 150.035 151.149 150.027 151.205H144.615V150.377H149.427L148.959 150.665C148.967 150.257 148.883 149.893 148.707 149.573C148.531 149.253 148.287 149.005 147.975 148.829C147.671 148.645 147.315 148.553 146.907 148.553C146.507 148.553 146.151 148.645 145.839 148.829C145.527 149.005 145.283 149.257 145.107 149.585C144.931 149.905 144.843 150.273 144.843 150.689V150.881C144.843 151.305 144.939 151.685 145.131 152.021C145.331 152.349 145.607 152.605 145.959 152.789C146.311 152.973 146.715 153.065 147.171 153.065C147.547 153.065 147.887 153.001 148.191 152.873C148.503 152.745 148.775 152.553 149.007 152.297L149.643 153.041C149.355 153.377 148.995 153.633 148.563 153.809C148.139 153.985 147.663 154.073 147.135 154.073ZM153.769 154.001L157.573 145.601H158.761L162.577 154.001H161.317L157.921 146.273H158.401L155.005 154.001H153.769ZM155.389 151.901L155.713 150.941H160.441L160.789 151.901H155.389ZM166.221 154.073C165.677 154.073 165.197 153.973 164.781 153.773C164.373 153.573 164.053 153.269 163.821 152.861C163.597 152.445 163.485 151.925 163.485 151.301V147.641H164.637V151.169C164.637 151.793 164.785 152.261 165.081 152.573C165.385 152.885 165.809 153.041 166.353 153.041C166.753 153.041 167.101 152.961 167.397 152.801C167.693 152.633 167.921 152.393 168.081 152.081C168.241 151.761 168.321 151.377 168.321 150.929V147.641H169.473V154.001H168.381V152.285L168.561 152.741C168.353 153.165 168.041 153.493 167.625 153.725C167.209 153.957 166.741 154.073 166.221 154.073ZM173.85 154.073C173.21 154.073 172.714 153.901 172.362 153.557C172.01 153.213 171.834 152.721 171.834 152.081V146.249H172.986V152.033C172.986 152.377 173.07 152.641 173.238 152.825C173.414 153.009 173.662 153.101 173.982 153.101C174.342 153.101 174.642 153.001 174.882 152.801L175.242 153.629C175.066 153.781 174.854 153.893 174.606 153.965C174.366 154.037 174.114 154.073 173.85 154.073ZM170.754 148.589V147.641H174.81V148.589H170.754ZM179.148 154.073C178.508 154.073 177.94 153.933 177.444 153.653C176.948 153.373 176.556 152.989 176.268 152.501C175.98 152.005 175.836 151.445 175.836 150.821C175.836 150.189 175.98 149.629 176.268 149.141C176.556 148.653 176.948 148.273 177.444 148.001C177.94 147.721 178.508 147.581 179.148 147.581C179.78 147.581 180.344 147.721 180.84 148.001C181.344 148.273 181.736 148.653 182.016 149.141C182.304 149.621 182.448 150.181 182.448 150.821C182.448 151.453 182.304 152.013 182.016 152.501C181.736 152.989 181.344 153.373 180.84 153.653C180.344 153.933 179.78 154.073 179.148 154.073ZM179.148 153.065C179.556 153.065 179.92 152.973 180.24 152.789C180.568 152.605 180.824 152.345 181.008 152.009C181.192 151.665 181.284 151.269 181.284 150.821C181.284 150.365 181.192 149.973 181.008 149.645C180.824 149.309 180.568 149.049 180.24 148.865C179.92 148.681 179.556 148.589 179.148 148.589C178.74 148.589 178.376 148.681 178.056 148.865C177.736 149.049 177.48 149.309 177.288 149.645C177.096 149.973 177 150.365 177 150.821C177 151.269 177.096 151.665 177.288 152.009C177.48 152.345 177.736 152.605 178.056 152.789C178.376 152.973 178.74 153.065 179.148 153.065ZM189.88 154.097C189.24 154.097 188.628 154.001 188.044 153.809C187.46 153.609 187 153.353 186.664 153.041L187.108 152.105C187.428 152.385 187.836 152.617 188.332 152.801C188.828 152.985 189.344 153.077 189.88 153.077C190.368 153.077 190.764 153.021 191.068 152.909C191.372 152.797 191.596 152.645 191.74 152.453C191.884 152.253 191.956 152.029 191.956 151.781C191.956 151.493 191.86 151.261 191.668 151.085C191.484 150.909 191.24 150.769 190.936 150.665C190.64 150.553 190.312 150.457 189.952 150.377C189.592 150.297 189.228 150.205 188.86 150.101C188.5 149.989 188.168 149.849 187.864 149.681C187.568 149.513 187.328 149.289 187.144 149.009C186.96 148.721 186.868 148.353 186.868 147.905C186.868 147.473 186.98 147.077 187.204 146.717C187.436 146.349 187.788 146.057 188.26 145.841C188.74 145.617 189.348 145.505 190.084 145.505C190.572 145.505 191.056 145.569 191.536 145.697C192.016 145.825 192.432 146.009 192.784 146.249L192.388 147.209C192.028 146.969 191.648 146.797 191.248 146.693C190.848 146.581 190.46 146.525 190.084 146.525C189.612 146.525 189.224 146.585 188.92 146.705C188.616 146.825 188.392 146.985 188.248 147.185C188.112 147.385 188.044 147.609 188.044 147.857C188.044 148.153 188.136 148.389 188.32 148.565C188.512 148.741 188.756 148.881 189.052 148.985C189.356 149.089 189.688 149.185 190.048 149.273C190.408 149.353 190.768 149.445 191.128 149.549C191.496 149.653 191.828 149.789 192.124 149.957C192.428 150.125 192.672 150.349 192.856 150.629C193.04 150.909 193.132 151.269 193.132 151.709C193.132 152.133 193.016 152.529 192.784 152.897C192.552 153.257 192.192 153.549 191.704 153.773C191.224 153.989 190.616 154.097 189.88 154.097ZM197.549 154.073C196.869 154.073 196.269 153.933 195.749 153.653C195.237 153.373 194.837 152.989 194.549 152.501C194.269 152.013 194.129 151.453 194.129 150.821C194.129 150.189 194.265 149.629 194.537 149.141C194.817 148.653 195.197 148.273 195.677 148.001C196.165 147.721 196.713 147.581 197.321 147.581C197.937 147.581 198.481 147.717 198.953 147.989C199.425 148.261 199.793 148.645 200.057 149.141C200.329 149.629 200.465 150.201 200.465 150.857C200.465 150.905 200.461 150.961 200.453 151.025C200.453 151.089 200.449 151.149 200.441 151.205H195.029V150.377H199.841L199.373 150.665C199.381 150.257 199.297 149.893 199.121 149.573C198.945 149.253 198.701 149.005 198.389 148.829C198.085 148.645 197.729 148.553 197.321 148.553C196.921 148.553 196.565 148.645 196.253 148.829C195.941 149.005 195.697 149.257 195.521 149.585C195.345 149.905 195.257 150.273 195.257 150.689V150.881C195.257 151.305 195.353 151.685 195.545 152.021C195.745 152.349 196.021 152.605 196.373 152.789C196.725 152.973 197.129 153.065 197.585 153.065C197.961 153.065 198.301 153.001 198.605 152.873C198.917 152.745 199.189 152.553 199.421 152.297L200.057 153.041C199.769 153.377 199.409 153.633 198.977 153.809C198.553 153.985 198.077 154.073 197.549 154.073ZM202.065 154.001V147.641H203.169V149.369L203.061 148.937C203.237 148.497 203.533 148.161 203.949 147.929C204.365 147.697 204.877 147.581 205.485 147.581V148.697C205.437 148.689 205.389 148.685 205.341 148.685C205.301 148.685 205.261 148.685 205.221 148.685C204.605 148.685 204.117 148.869 203.757 149.237C203.397 149.605 203.217 150.137 203.217 150.833V154.001H202.065ZM208.83 154.001L206.046 147.641H207.246L209.718 153.401H209.142L211.662 147.641H212.79L210.006 154.001H208.83ZM213.865 154.001V147.641H215.017V154.001H213.865ZM214.441 146.417C214.217 146.417 214.029 146.345 213.877 146.201C213.733 146.057 213.661 145.881 213.661 145.673C213.661 145.457 213.733 145.277 213.877 145.133C214.029 144.989 214.217 144.917 214.441 144.917C214.665 144.917 214.849 144.989 214.993 145.133C215.145 145.269 215.221 145.441 215.221 145.649C215.221 145.865 215.149 146.049 215.005 146.201C214.861 146.345 214.673 146.417 214.441 146.417ZM219.989 154.073C219.341 154.073 218.761 153.933 218.249 153.653C217.745 153.373 217.349 152.989 217.061 152.501C216.773 152.013 216.629 151.453 216.629 150.821C216.629 150.189 216.773 149.629 217.061 149.141C217.349 148.653 217.745 148.273 218.249 148.001C218.761 147.721 219.341 147.581 219.989 147.581C220.565 147.581 221.077 147.697 221.525 147.929C221.981 148.153 222.333 148.489 222.581 148.937L221.705 149.501C221.497 149.189 221.241 148.961 220.937 148.817C220.641 148.665 220.321 148.589 219.977 148.589C219.561 148.589 219.189 148.681 218.861 148.865C218.533 149.049 218.273 149.309 218.081 149.645C217.889 149.973 217.793 150.365 217.793 150.821C217.793 151.277 217.889 151.673 218.081 152.009C218.273 152.345 218.533 152.605 218.861 152.789C219.189 152.973 219.561 153.065 219.977 153.065C220.321 153.065 220.641 152.993 220.937 152.849C221.241 152.697 221.497 152.465 221.705 152.153L222.581 152.705C222.333 153.145 221.981 153.485 221.525 153.725C221.077 153.957 220.565 154.073 219.989 154.073ZM226.811 154.073C226.131 154.073 225.531 153.933 225.011 153.653C224.499 153.373 224.099 152.989 223.811 152.501C223.531 152.013 223.391 151.453 223.391 150.821C223.391 150.189 223.527 149.629 223.799 149.141C224.079 148.653 224.459 148.273 224.939 148.001C225.427 147.721 225.975 147.581 226.583 147.581C227.199 147.581 227.743 147.717 228.215 147.989C228.687 148.261 229.055 148.645 229.319 149.141C229.591 149.629 229.727 150.201 229.727 150.857C229.727 150.905 229.723 150.961 229.715 151.025C229.715 151.089 229.711 151.149 229.703 151.205H224.291V150.377H229.103L228.635 150.665C228.643 150.257 228.559 149.893 228.383 149.573C228.207 149.253 227.963 149.005 227.651 148.829C227.347 148.645 226.991 148.553 226.583 148.553C226.183 148.553 225.827 148.645 225.515 148.829C225.203 149.005 224.959 149.257 224.783 149.585C224.607 149.905 224.519 150.273 224.519 150.689V150.881C224.519 151.305 224.615 151.685 224.807 152.021C225.007 152.349 225.283 152.605 225.635 152.789C225.987 152.973 226.391 153.065 226.847 153.065C227.223 153.065 227.563 153.001 227.867 152.873C228.179 152.745 228.451 152.553 228.683 152.297L229.319 153.041C229.031 153.377 228.671 153.633 228.239 153.809C227.815 153.985 227.339 154.073 226.811 154.073ZM234.717 154.001V145.601H237.993C238.729 145.601 239.357 145.717 239.877 145.949C240.397 146.181 240.797 146.517 241.077 146.957C241.357 147.397 241.497 147.921 241.497 148.529C241.497 149.137 241.357 149.661 241.077 150.101C240.797 150.533 240.397 150.869 239.877 151.109C239.357 151.341 238.729 151.457 237.993 151.457H235.377L235.917 150.893V154.001H234.717ZM235.917 151.013L235.377 150.413H237.957C238.725 150.413 239.305 150.249 239.697 149.921C240.097 149.593 240.297 149.129 240.297 148.529C240.297 147.929 240.097 147.465 239.697 147.137C239.305 146.809 238.725 146.645 237.957 146.645H235.377L235.917 146.045V151.013ZM246.981 154.001V152.657L246.921 152.405V150.113C246.921 149.625 246.777 149.249 246.489 148.985C246.209 148.713 245.785 148.577 245.217 148.577C244.841 148.577 244.473 148.641 244.113 148.769C243.753 148.889 243.449 149.053 243.201 149.261L242.721 148.397C243.049 148.133 243.441 147.933 243.897 147.797C244.361 147.653 244.845 147.581 245.349 147.581C246.221 147.581 246.893 147.793 247.365 148.217C247.837 148.641 248.073 149.289 248.073 150.161V154.001H246.981ZM244.893 154.073C244.421 154.073 244.005 153.993 243.645 153.833C243.293 153.673 243.021 153.453 242.829 153.173C242.637 152.885 242.541 152.561 242.541 152.201C242.541 151.857 242.621 151.545 242.781 151.265C242.949 150.985 243.217 150.761 243.585 150.593C243.961 150.425 244.465 150.341 245.097 150.341H247.113V151.169H245.145C244.569 151.169 244.181 151.265 243.981 151.457C243.781 151.649 243.681 151.881 243.681 152.153C243.681 152.465 243.805 152.717 244.053 152.909C244.301 153.093 244.645 153.185 245.085 153.185C245.517 153.185 245.893 153.089 246.213 152.897C246.541 152.705 246.777 152.425 246.921 152.057L247.149 152.849C246.997 153.225 246.729 153.525 246.345 153.749C245.961 153.965 245.477 154.073 244.893 154.073ZM250.205 154.001V147.641H251.309V149.369L251.201 148.937C251.377 148.497 251.673 148.161 252.089 147.929C252.505 147.697 253.017 147.581 253.625 147.581V148.697C253.577 148.689 253.529 148.685 253.481 148.685C253.441 148.685 253.401 148.685 253.361 148.685C252.745 148.685 252.257 148.869 251.897 149.237C251.537 149.605 251.357 150.137 251.357 150.833V154.001H250.205ZM257.487 154.073C256.847 154.073 256.351 153.901 255.999 153.557C255.647 153.213 255.471 152.721 255.471 152.081V146.249H256.623V152.033C256.623 152.377 256.707 152.641 256.875 152.825C257.051 153.009 257.299 153.101 257.619 153.101C257.979 153.101 258.279 153.001 258.519 152.801L258.879 153.629C258.703 153.781 258.491 153.893 258.243 153.965C258.003 154.037 257.751 154.073 257.487 154.073ZM254.391 148.589V147.641H258.447V148.589H254.391ZM263.668 147.581C264.188 147.581 264.644 147.681 265.036 147.881C265.436 148.081 265.748 148.385 265.972 148.793C266.196 149.201 266.308 149.717 266.308 150.341V154.001H265.156V150.473C265.156 149.857 265.004 149.393 264.7 149.081C264.404 148.769 263.984 148.613 263.44 148.613C263.032 148.613 262.676 148.693 262.372 148.853C262.068 149.013 261.832 149.249 261.664 149.561C261.504 149.873 261.424 150.261 261.424 150.725V154.001H260.272V147.641H261.376V149.357L261.196 148.901C261.404 148.485 261.724 148.161 262.156 147.929C262.588 147.697 263.092 147.581 263.668 147.581ZM271.272 154.073C270.592 154.073 269.992 153.933 269.472 153.653C268.96 153.373 268.56 152.989 268.272 152.501C267.992 152.013 267.852 151.453 267.852 150.821C267.852 150.189 267.988 149.629 268.26 149.141C268.54 148.653 268.92 148.273 269.4 148.001C269.888 147.721 270.436 147.581 271.044 147.581C271.66 147.581 272.204 147.717 272.676 147.989C273.148 148.261 273.516 148.645 273.78 149.141C274.052 149.629 274.188 150.201 274.188 150.857C274.188 150.905 274.184 150.961 274.176 151.025C274.176 151.089 274.172 151.149 274.164 151.205H268.752V150.377H273.564L273.096 150.665C273.104 150.257 273.02 149.893 272.844 149.573C272.668 149.253 272.424 149.005 272.112 148.829C271.808 148.645 271.452 148.553 271.044 148.553C270.644 148.553 270.288 148.645 269.976 148.829C269.664 149.005 269.42 149.257 269.244 149.585C269.068 149.905 268.98 150.273 268.98 150.689V150.881C268.98 151.305 269.076 151.685 269.268 152.021C269.468 152.349 269.744 152.605 270.096 152.789C270.448 152.973 270.852 153.065 271.308 153.065C271.684 153.065 272.024 153.001 272.328 152.873C272.64 152.745 272.912 152.553 273.144 152.297L273.78 153.041C273.492 153.377 273.132 153.633 272.7 153.809C272.276 153.985 271.8 154.073 271.272 154.073ZM275.787 154.001V147.641H276.891V149.369L276.783 148.937C276.959 148.497 277.255 148.161 277.671 147.929C278.087 147.697 278.599 147.581 279.207 147.581V148.697C279.159 148.689 279.111 148.685 279.063 148.685C279.023 148.685 278.983 148.685 278.943 148.685C278.327 148.685 277.839 148.869 277.479 149.237C277.119 149.605 276.939 150.137 276.939 150.833V154.001H275.787Z" fill="#333333"/>
<defs>
<clipPath id="clip0_1_1951">
<rect width="89.0329" height="42.2182" fill="white" transform="matrix(0.999999 -0.00163777 0.00163639 0.999999 124 0.145813)"/>
</clipPath>
<clipPath id="clip1_1_1951">
<rect width="89.0703" height="89.0703" fill="white" transform="matrix(0.999999 -0.00163777 0.00163639 0.999999 124 0.145813)"/>
</clipPath>
<clipPath id="clip2_1_1951">
<rect width="89.0703" height="89.0703" fill="white" transform="matrix(0.999999 -0.00163777 0.00163639 0.999999 124 0.145813)"/>
</clipPath>
</defs>
</svg>
