<svg width="32" height="32" viewBox="0 0 32 32" fill="none" xmlns="http://www.w3.org/2000/svg">
<g clip-path="url(#clip0_1_414)">
<path d="M30.1803 13.6356C29.6878 13.2725 29.0672 12.8189 28.9921 12.5226C29.0237 11.949 29.1875 11.3904 29.4707 10.8906C29.9048 9.89449 30.3527 8.86221 29.8547 8.00379C29.3567 7.14537 28.2241 7.00627 27.1348 6.89077C26.5702 6.88699 26.0139 6.75422 25.5084 6.50262C25.2564 5.99536 25.1241 5.43708 25.1216 4.87069C24.9992 3.78134 24.8726 2.65444 24.0086 2.15078C23.1446 1.64713 22.1109 2.08818 21.1148 2.52779C20.6145 2.81087 20.0556 2.97466 19.4815 3.0064C19.181 2.92573 18.7289 2.31076 18.3685 1.81826C17.7369 0.966814 17.026 0.00131226 15.9992 0.00131226C14.9725 0.00131226 14.2616 0.966814 13.6341 1.81826C13.2696 2.31212 12.8174 2.93127 12.5211 3.00777C11.9475 2.97323 11.3892 2.80962 10.8878 2.52916C9.88607 2.08811 8.85379 1.6485 7.99817 2.14381C7.14256 2.63911 6.99928 3.77437 6.87681 4.87062C6.87283 5.43506 6.74057 5.99121 6.49002 6.49701C5.98554 6.745 5.43138 6.87533 4.86925 6.87819C3.77853 7.0006 2.65019 7.12724 2.14797 7.9912C1.64575 8.85517 2.08687 9.88758 2.52648 10.8851C2.81061 11.3865 2.97444 11.9471 3.00509 12.5226C2.92442 12.8231 2.30944 13.2766 1.81694 13.6356C0.965502 14.2616 0 14.974 0 16.0007C0 17.0275 0.965501 17.7398 1.81838 18.3659C2.31088 18.729 2.93139 19.1825 3.00652 19.4789C2.97495 20.0525 2.81115 20.611 2.52791 21.1108C2.09384 22.107 1.64588 23.1392 2.14393 23.9977C2.64197 24.8561 3.77449 24.9952 4.86383 25.1107C5.42845 25.1145 5.98474 25.2472 6.49022 25.4988C6.74221 26.0061 6.87453 26.5644 6.87701 27.1308C6.99941 28.2201 7.12606 29.347 7.99002 29.8507C8.85398 30.3543 9.87935 29.9008 10.8769 29.4667C11.3822 29.1867 11.9445 29.025 12.5213 28.9937C12.8218 29.0744 13.274 29.6893 13.6343 30.1818C14.2618 31.0333 14.9727 31.9988 15.9995 31.9988C17.0262 31.9988 17.7371 31.0333 18.3646 30.1818C18.7291 29.688 19.1813 29.0688 19.4776 28.9923C20.0515 29.0248 20.6103 29.1885 21.1109 29.4709C22.1071 29.905 23.1394 30.3502 23.9963 29.8563C24.8533 29.3624 24.9952 28.2257 25.1177 27.135C25.1217 26.5706 25.254 26.0144 25.5045 25.5086C26.0099 25.2586 26.5656 25.1268 27.1295 25.1233C28.2202 25.0009 29.3485 24.8742 29.8507 24.0102C30.3529 23.1463 29.8994 22.1209 29.4667 21.1234C29.1835 20.6194 29.0216 20.0564 28.9937 19.4789C29.0744 19.1784 29.6894 18.7249 30.1819 18.3659C31.0333 17.7385 32.0003 17.0262 32.0003 16.0008C32.0003 14.9754 31.0331 14.2616 30.1803 13.6356Z" fill="#1E51DB"/>
<path d="M11.8256 19.4788C11.7176 19.4788 11.6111 19.4537 11.5145 19.4054C11.4179 19.3571 11.3339 19.287 11.2691 19.2006L8.34746 15.3051V18.7832C8.34746 19.1674 8.036 19.4788 7.65182 19.4788C7.26764 19.4788 6.95618 19.1674 6.95618 18.7832V13.2182C6.95618 12.834 7.26764 12.5226 7.65182 12.5226C7.87075 12.5226 8.07695 12.6257 8.2083 12.8009L11.1299 16.6963V13.2182C11.1299 12.834 11.4414 12.5226 11.8256 12.5226C12.2097 12.5226 12.5212 12.834 12.5212 13.2182V18.7832C12.5211 18.9291 12.4751 19.0713 12.3897 19.1897C12.3043 19.308 12.1839 19.3965 12.0454 19.4426C11.9746 19.4666 11.9003 19.4788 11.8256 19.4788ZM17.3906 19.4788H14.6081C14.2239 19.4788 13.9124 19.1674 13.9124 18.7832V13.2182C13.9124 12.834 14.2239 12.5226 14.6081 12.5226H17.3906C17.7747 12.5226 18.0862 12.834 18.0862 13.2182C18.0862 13.6024 17.7747 13.9139 17.3906 13.9139H15.3037V18.0876H17.3906C17.7747 18.0876 18.0862 18.3991 18.0862 18.7832C18.0862 19.1674 17.7747 19.4788 17.3906 19.4788Z" fill="white"/>
<path d="M17.3906 16.6963H14.6081C14.2239 16.6963 13.9124 16.3848 13.9124 16.0006C13.9124 15.6165 14.2239 15.305 14.6081 15.305H17.3906C17.7747 15.305 18.0862 15.6165 18.0862 16.0006C18.0862 16.3848 17.7747 16.6963 17.3906 16.6963ZM24.3467 19.4788C24.2006 19.479 24.058 19.4331 23.9394 19.3477C23.8208 19.2623 23.7321 19.1417 23.6859 19.003L22.9555 16.809L22.2251 19.003C22.182 19.1487 22.0903 19.2752 21.9652 19.3615C21.8402 19.4479 21.6893 19.4888 21.5378 19.4774C21.3874 19.4717 21.2429 19.4174 21.126 19.3226C21.0091 19.2277 20.9261 19.0975 20.8895 18.9515L19.4983 13.3866C19.4053 13.0136 19.6324 12.6358 20.0054 12.5428C20.3784 12.4498 20.7562 12.6769 20.8492 13.0499L21.6603 16.297L22.2961 14.3897C22.4614 14.025 22.891 13.8635 23.2556 14.0288C23.4156 14.1014 23.5438 14.2296 23.6164 14.3897L24.2522 16.297L25.0633 13.0499C25.1563 12.6769 25.534 12.4498 25.9071 12.5428C26.2801 12.6358 26.5072 13.0135 26.4142 13.3866L25.023 18.9515C24.9863 19.0975 24.9034 19.2277 24.7865 19.3225C24.6696 19.4174 24.5251 19.4717 24.3747 19.4774L24.3467 19.4788Z" fill="white"/>
</g>
<defs>
<clipPath id="clip0_1_414">
<rect width="32" height="32" fill="white"/>
</clipPath>
</defs>
</svg>
