<?xml version="1.0" encoding="UTF-8"?>
<svg version="1.1" xmlns="http://www.w3.org/2000/svg" width="512" height="512">
<path d="M0 0 C7.52485195 5.67013492 11.5886234 11.40052994 13.21875 20.671875 C13.21875 27.271875 13.21875 33.871875 13.21875 40.671875 C28.72875 40.671875 44.23875 40.671875 60.21875 40.671875 C60.21875 33.741875 60.21875 26.811875 60.21875 19.671875 C62.25495805 11.90411835 64.48249513 5.73749323 71.43359375 1.23828125 C79.64122198 -3.45749308 86.88242975 -4.13834048 96.21875 -3.328125 C103.50578007 -1.27354735 109.21232348 3.26371799 113.21875 9.671875 C116.21875 17.671875 116.21875 17.671875 116.21875 40.671875 C132.05875 40.671875 147.89875 40.671875 164.21875 40.671875 C164.21875 33.081875 164.21875 25.491875 164.21875 17.671875 C167.51560772 8.88025441 170.60217174 3.46619328 178.71875 -1.328125 C185.96722875 -4.59270703 194.39061029 -4.66212714 202.00390625 -2.55859375 C209.56963125 0.61168501 214.63605494 5.29278027 218.21875 12.671875 C220.21875 19.671875 220.21875 19.671875 220.21875 40.671875 C235.72875 40.671875 251.23875 40.671875 267.21875 40.671875 C267.21875 34.071875 267.21875 27.471875 267.21875 20.671875 C268.80275345 11.16785431 273.49282469 4.87956254 281.28125 -0.84375 C288.65712279 -4.81107552 298.25908407 -4.75740456 306.16015625 -2.48046875 C313.32283543 0.74547073 318.74813682 6.11094025 322.09375 13.234375 C324.19434742 19.65286713 324.35564492 25.93100013 324.28125 32.609375 C324.27673828 33.38861328 324.27222656 34.16785156 324.26757812 34.97070312 C324.25591908 36.87112768 324.23798877 38.77151206 324.21875 40.671875 C325.6099707 40.6404541 325.6099707 40.6404541 327.02929688 40.60839844 C330.50335829 40.53982001 333.97669011 40.48988173 337.45117188 40.45214844 C338.9486839 40.43215581 340.44611908 40.40495201 341.94335938 40.37011719 C357.54085844 40.01657388 357.54085844 40.01657388 364.21875 44.671875 C368.86116031 50.50464693 369.37026112 55.13197702 369.37988281 62.36254883 C369.38484772 63.25067764 369.38981262 64.13880646 369.39492798 65.05384827 C369.40954734 67.99554211 369.41635137 70.93718203 369.421875 73.87890625 C369.42762681 75.92290753 369.43338454 77.96690879 369.43914795 80.01091003 C369.44965741 84.29902396 369.45550038 88.58711914 369.45898438 92.87524414 C369.46446778 98.36646867 369.48849286 103.85744507 369.51695633 109.3485918 C369.5355923 113.57196269 369.54078883 117.79527395 369.54232025 122.01868248 C369.54534533 124.04285729 369.55336897 126.06703109 369.56650543 128.09116554 C369.58358516 130.92530747 369.58168087 133.75884488 369.57519531 136.59301758 C369.5844101 137.42700073 369.59362488 138.26098389 369.6031189 139.12023926 C369.55941968 145.22505149 368.25021848 149.33260827 364.15625 154.046875 C362.21875 155.671875 362.21875 155.671875 360.21875 155.671875 C360.22045874 156.5300644 360.22045874 156.5300644 360.222202 157.40559095 C360.28935799 191.32566986 360.34082067 225.24573364 360.37194599 259.16586455 C360.37569804 263.24005239 360.37958101 267.3142401 360.38354492 271.38842773 C360.38433185 272.19951416 360.38511878 273.01060058 360.38592956 273.84626538 C360.39897817 286.97372148 360.42262901 300.10113811 360.45020839 313.22857081 C360.47827775 326.70174966 360.4949295 340.17490785 360.50101548 353.64811474 C360.50512875 361.95965404 360.51811323 370.27108176 360.5424994 378.58258671 C360.55837549 384.28458544 360.56314612 389.9865266 360.55925413 395.68854582 C360.55733548 398.97675548 360.56189368 402.26472972 360.57636642 405.55291367 C360.59130992 409.12323485 360.58769632 412.69308009 360.57951355 416.26341248 C360.58825207 417.29553484 360.5969906 418.3276572 360.60599393 419.391056 C360.54015463 430.03225995 357.71044301 437.99252879 350.21875 445.671875 C343.62001845 451.04266868 337.37290946 453.93353829 328.75439453 453.89892578 C327.49354034 453.89877472 326.23268616 453.89862366 324.93362427 453.89846802 C323.57293537 453.88825717 322.21224812 453.87782522 320.8515625 453.8671875 C319.44766441 453.86345324 318.0437637 453.86060822 316.63986206 453.85861206 C312.96061903 453.85100804 309.28153611 453.8313877 305.60235596 453.8092041 C301.84169683 453.78867571 298.08101161 453.77959544 294.3203125 453.76953125 C286.95305233 453.74813843 279.58592368 453.71404198 272.21875 453.671875 C272.07775879 454.78336914 271.93676758 455.89486328 271.79150391 457.04003906 C271.2407758 460.53220929 270.87280349 461.86251012 268.59375 464.421875 C268.12710937 464.97359375 267.66046875 465.5253125 267.1796875 466.09375 C261.91182285 470.33322673 256.57453066 471.10946204 249.98852539 471.01245117 C249.19746399 471.01288925 248.40640259 471.01332733 247.59136963 471.01377869 C244.99945636 471.01170328 242.40820529 470.98843205 239.81640625 470.96484375 C238.01037448 470.95924334 236.20433814 470.95497534 234.39830017 470.95198059 C229.66192885 470.94056685 224.92583676 470.91112976 220.1895752 470.87786865 C215.34972917 470.84709272 210.5098377 470.83345921 205.66992188 470.81835938 C196.18607573 470.78625655 186.70243616 470.73510244 177.21875 470.671875 C177.2260463 471.28712036 177.23334259 471.90236572 177.24085999 472.53625488 C177.24653488 473.34477905 177.25220978 474.15330322 177.25805664 474.98632812 C177.26535294 475.78719849 177.27264923 476.58806885 177.28016663 477.41320801 C177.05011155 485.87374765 172.13008526 493.90180327 166.21875 499.671875 C155.01071172 508.19193898 144.94155741 509.91708681 131.21875 508.671875 C122.07838644 506.73722264 114.19985641 500.85610892 108.84375 493.296875 C105.22361211 487.36387124 103.14621092 481.98797132 103.19091797 475.01367188 C103.19493622 474.20119995 103.19895447 473.38872803 103.20309448 472.55163574 C103.21084396 471.62115417 103.21084396 471.62115417 103.21875 470.671875 C102.22174072 470.68075745 101.22473145 470.68963989 100.19750977 470.6987915 C90.78173374 470.78003092 81.36602924 470.83991397 71.94998169 470.87912369 C67.10957177 470.89995985 62.26944577 470.92820466 57.42919922 470.97363281 C52.75427476 471.01723258 48.07962266 471.04104196 43.4045105 471.05138397 C41.62478348 471.05875004 39.84507064 471.07313422 38.06546021 471.09479523 C35.56415094 471.12401778 33.06395368 471.12782325 30.5625 471.12597656 C29.83385239 471.14035767 29.10520477 471.15473877 28.35447693 471.16955566 C22.32352892 471.12167116 17.27004853 469.28070289 12.65002441 465.33063126 C9.23432833 461.65919776 8.76257949 458.50909522 8.21875 453.671875 C7.45168732 453.68075745 6.68462463 453.68963989 5.89431763 453.6987915 C-1.37230707 453.77929509 -8.63871229 453.84001946 -15.90566826 453.87912369 C-19.6407579 453.89990424 -23.3754758 453.92804423 -27.11035156 453.97363281 C-30.72194135 454.01743531 -34.333176 454.04108359 -37.94501114 454.05138397 C-39.31559964 454.05871428 -40.68617106 454.07302698 -42.05660629 454.09479523 C-53.56867098 454.27020495 -62.49353027 452.66208274 -71.02734375 444.59375 C-78.76566502 436.11434228 -80.08418424 427.62607216 -80.02175903 416.50392151 C-80.02346788 415.38721429 -80.02517673 414.27050708 -80.02693737 413.11996025 C-80.03022835 409.38272372 -80.0192348 405.64566722 -80.00830078 401.90844727 C-80.00773658 399.22764176 -80.00796536 396.54684725 -80.00918579 393.86604309 C-80.01023309 388.09683434 -80.00397273 382.32767093 -79.99271011 376.55847359 C-79.97643701 368.21725056 -79.97124526 359.87604939 -79.96873413 351.5348122 C-79.96435987 338.00081616 -79.95105806 324.46684427 -79.93212891 310.93286133 C-79.91376315 297.78800578 -79.89961005 284.6431568 -79.89111328 271.49829102 C-79.89058783 270.68766728 -79.89006239 269.87704355 -79.88952102 269.04185546 C-79.88691089 264.97508256 -79.88438349 260.90830962 -79.88189721 256.84153664 C-79.86117308 223.11829859 -79.82595487 189.39508976 -79.78125 155.671875 C-80.70357422 155.25228516 -80.70357422 155.25228516 -81.64453125 154.82421875 C-85.45624962 152.76853882 -87.43526865 149.70981904 -88.78125 145.671875 C-88.89334102 142.77795101 -88.94895208 139.90749864 -88.95825195 137.01293945 C-88.96482315 136.12802322 -88.97139435 135.24310699 -88.97816467 134.33137512 C-88.99789369 131.3993013 -89.00956043 128.46727873 -89.01953125 125.53515625 C-89.02360678 124.53289694 -89.0276823 123.53063763 -89.03188133 122.49800682 C-89.05274202 117.19146302 -89.06704283 111.88494507 -89.07641602 106.57836914 C-89.08747046 101.10520255 -89.12185941 95.63244363 -89.16158772 90.15942097 C-89.18777304 85.94454712 -89.19610965 81.72977004 -89.19969749 77.51482201 C-89.20455977 75.49786824 -89.21616348 73.48091869 -89.23473549 71.46404457 C-89.25916376 68.63496547 -89.25815494 65.80693616 -89.2512207 62.9777832 C-89.26403076 62.1509906 -89.27684082 61.324198 -89.29003906 60.47235107 C-89.23971998 54.81446438 -88.04856617 50.35988724 -84.78125 45.671875 C-79.37897464 41.37210482 -75.20382666 40.52358032 -68.48828125 40.57421875 C-67.42923836 40.57634117 -67.42923836 40.57634117 -66.34880066 40.57850647 C-64.09707374 40.58409736 -61.84544679 40.59664812 -59.59375 40.609375 C-58.06575665 40.61439118 -56.53776173 40.61895388 -55.00976562 40.62304688 C-51.26688865 40.6340638 -47.52408627 40.65132213 -43.78125 40.671875 C-43.8021167 39.46958252 -43.8229834 38.26729004 -43.84448242 37.02856445 C-44.03936846 24.61503566 -44.1996238 13.47975769 -35.14453125 3.94921875 C-25.50639871 -4.86588225 -11.53493699 -6.84406262 0 0 Z " fill="#020101" transform="translate(115.78125,3.328125)"/>
<path d="M0 0 C140.58 0 281.16 0 426 0 C426 5.94 426 11.88 426 18 C423.48851852 18.00586624 420.97703705 18.01173248 418.38945007 18.01777649 C394.77090347 18.0743629 371.15244905 18.14740094 347.53399944 18.23571491 C335.39026951 18.2807245 323.24656924 18.32012718 311.1027832 18.34643555 C300.52109611 18.36937388 289.93950249 18.40272503 279.35788947 18.44870156 C273.75243564 18.47269008 268.1470747 18.4913819 262.54157066 18.49761391 C257.26960959 18.50363937 251.99788639 18.52354672 246.72601318 18.55427551 C244.78738363 18.56309663 242.84872305 18.56676996 240.91007423 18.56500816 C238.2702715 18.56336609 235.63120321 18.5799627 232.99150085 18.60127258 C232.21815877 18.59642501 231.44481669 18.59157743 230.64804 18.58658296 C226.60165123 18.63016537 226.60165123 18.63016537 223.02787495 20.34132671 C221.37495506 23.00862984 221.5633695 24.94358652 222 28 C223.48527343 30.31049113 223.48527343 30.31049113 226 32 C228.72429982 32.39631381 231.04674708 32.5477199 233.77008057 32.51898193 C234.55754032 32.52648319 235.34500007 32.53398444 236.15632224 32.541713 C238.7975155 32.56202856 241.43785344 32.55388015 244.07910156 32.54589844 C245.97130179 32.55463136 247.86349463 32.56511616 249.75567627 32.57722473 C254.89582984 32.60513969 260.03574311 32.6084882 265.17596149 32.60750484 C270.5465416 32.61062922 275.91701271 32.63623751 281.28753662 32.65948486 C291.45886775 32.70008483 301.63013471 32.72039498 311.80153441 32.73345876 C323.38066648 32.74931526 334.95968912 32.78772519 346.5387578 32.82805204 C370.35913517 32.9105057 394.17950958 32.96456366 418 33 C418.09158842 66.73361005 418.16205541 100.46718912 418.20426132 134.20089593 C418.20926405 138.18495621 418.21444134 142.16901625 418.21972656 146.15307617 C418.2207758 146.94621891 418.22182505 147.73936164 418.22290608 148.55653901 C418.2403035 161.39301857 418.27183752 174.22942636 418.30861118 187.06586336 C418.34603909 200.24071692 418.36823976 213.41553293 418.37635398 226.59043747 C418.38183793 234.71775979 418.39914813 242.84487921 418.43166587 250.97213907 C418.45534209 257.20788013 418.45781516 263.44346704 418.45243073 269.6792469 C418.45353084 272.23460768 418.46148298 274.78997616 418.4768219 277.34529114 C418.49675255 280.83691577 418.49192695 284.32767561 418.48101807 287.81932068 C418.49266943 288.82809735 418.5043208 289.83687403 418.51632524 290.87621969 C418.46261228 297.24623399 417.49003912 302.56477187 414 308 C408.81209467 312.89521191 404.28838473 314.12888779 397.22167969 314.11352539 C396.0607782 314.11344986 394.89987671 314.11337433 393.70379639 314.11329651 C391.8317453 314.10555458 391.8317453 314.10555458 389.921875 314.09765625 C387.99930878 314.09553383 387.99930878 314.09553383 386.03790283 314.09336853 C382.6381636 314.08955901 379.2384674 314.07974214 375.83874512 314.06866455 C372.366461 314.05841674 368.8941699 314.0538637 365.421875 314.04882812 C358.61456571 314.03811841 351.80728492 314.02106084 345 314 C344.96261719 312.75355713 344.92523438 311.50711426 344.88671875 310.22290039 C344.82104517 308.57695628 344.75459831 306.9310429 344.6875 305.28515625 C344.66494141 304.46486938 344.64238281 303.64458252 344.61914062 302.79943848 C344.41423038 298.19012212 344.15320921 295.05678486 341 291.4375 C339.70022845 290.2537324 338.36499128 289.10793078 337 288 C320.03152884 272.19953068 303.16996512 249.38926107 301.85523987 225.35350037 C301.845728 224.4059639 301.83621613 223.45842743 301.82641602 222.48217773 C301.81292618 221.40012558 301.79943634 220.31807343 301.78553772 219.20323181 C301.76988014 217.46101097 301.76988014 217.46101097 301.75390625 215.68359375 C301.72095098 213.20247065 301.68773963 210.72135095 301.65429688 208.24023438 C301.60704969 204.34564677 301.56263745 200.45107121 301.52319336 196.55639648 C301.48315829 192.78614817 301.43167664 189.01618245 301.37890625 185.24609375 C301.36628502 183.52512733 301.36628502 183.52512733 301.35340881 181.76939392 C301.02231076 159.80261621 294.29204277 139.87299858 280 123 C279.48050781 122.33613281 278.96101563 121.67226562 278.42578125 120.98828125 C271.88739298 112.93007391 263.6889347 107.22387015 254.3125 102.9375 C251.30078125 101.265625 251.30078125 101.265625 249 99 C248.05695965 94.87364502 247.9848235 91.16334119 248.046875 86.95703125 C247.94860233 78.66118035 244.38670587 72.98522875 239 67 C239 66.34 239 65.68 239 65 C238.195625 64.62875 238.195625 64.62875 237.375 64.25 C235 63 235 63 232.375 61.0625 C223.86257733 55.86046393 214.83558782 54.98485906 205 56 C198.48633712 57.62841572 193.93054468 60.56250979 189 65 C188.34 65 187.68 65 187 65 C186.7215625 65.58007812 186.443125 66.16015625 186.15625 66.7578125 C184.70231835 69.57726103 182.97192728 72.16423148 181.21875 74.8046875 C178.56920937 79.57725748 177.90465215 83.3214381 178.23364258 88.75878906 C178.37088371 92.33300697 178.30284401 95.63342971 177 99 C173.08614243 102.5298366 168.77020999 104.53464716 164.07958984 106.85888672 C145.70942823 116.93896836 133.65796191 137.40214532 127.81411743 156.96443176 C125.32888879 166.23100784 124.71802527 175.338912 124.7265625 184.89453125 C124.70627396 187.33919729 124.68542318 189.78385872 124.6640625 192.22851562 C124.64152683 196.01965267 124.62500293 199.81060578 124.61914062 203.60180664 C124.54884607 230.66345407 124.54884607 230.66345407 120 243 C119.63261719 244.05606445 119.26523438 245.11212891 118.88671875 246.20019531 C112.4532827 264.00392231 98.49874227 278.90985698 85.1171875 291.85546875 C82.30814924 294.7007861 81.87454575 296.25921484 81.68359375 300.1328125 C81.64169922 300.93847656 81.59980469 301.74414062 81.55664062 302.57421875 C81.51732422 303.41597656 81.47800781 304.25773437 81.4375 305.125 C81.37272461 306.39923828 81.37272461 306.39923828 81.30664062 307.69921875 C81.20045764 309.79928223 81.09971503 311.89961948 81 314 C73.33269196 314.1396157 65.6655173 314.2459305 57.99722385 314.31087303 C54.43559626 314.34205855 50.87484439 314.38428974 47.3137207 314.45263672 C43.21036852 314.53088885 39.10792205 314.55952275 35.00390625 314.5859375 C33.73793106 314.61690521 32.47195587 314.64787292 31.1676178 314.67977905 C24.34496545 314.68235445 19.56769291 314.01837355 13.86705017 310.17080688 C8.16688071 303.54325755 7.4215561 296.25446117 7.51898193 287.81932068 C7.51556423 286.72540593 7.51214653 285.63149118 7.50862527 284.50442749 C7.50206134 280.85611534 7.52399894 277.20854658 7.54589844 273.56030273 C7.54702723 270.93831906 7.54639243 268.31633413 7.54412842 265.6943512 C7.54203642 260.05826121 7.55452957 254.42235722 7.57707977 248.78631401 C7.60966168 240.63768963 7.62001309 232.48915469 7.62503174 224.34047223 C7.63377471 211.11812524 7.66036313 197.89587725 7.69824219 184.67358398 C7.73498816 171.83341973 7.76328724 158.99328243 7.78027344 146.15307617 C7.78132433 145.36089986 7.78237523 144.56872355 7.78345796 143.75254189 C7.78867832 139.77821482 7.7937331 135.80388755 7.79870558 131.82956016 C7.84013653 98.88630138 7.91055768 65.94316396 8 33 C9.44782175 32.99641747 9.44782175 32.99641747 10.92489243 32.99276257 C34.39307372 32.93401046 57.86115199 32.8581543 81.32921982 32.76428509 C92.6781293 32.71928836 104.02700713 32.67988266 115.37597656 32.65356445 C125.26586085 32.63061575 135.1556453 32.59725286 145.04545045 32.55129844 C150.28373089 32.52732398 155.52191219 32.50862291 160.76024628 32.50238609 C165.6883127 32.49635432 170.61612529 32.47642379 175.5440979 32.44572449 C177.35491425 32.43691359 179.16576372 32.43322796 180.97660065 32.43499184 C183.44528773 32.4366376 185.9131946 32.4200057 188.3817749 32.39872742 C189.46154527 32.40599878 189.46154527 32.40599878 190.56312919 32.41341704 C193.65464459 32.36931148 195.73555003 32.14923501 198.45172501 30.61643696 C200.20111476 29.09135474 200.20111476 29.09135474 200.390625 26.73828125 C200.34421875 25.93777344 200.2978125 25.13726562 200.25 24.3125 C200.21390625 23.50425781 200.1778125 22.69601563 200.140625 21.86328125 C200.09421875 21.24839844 200.0478125 20.63351563 200 20 C196.34108042 18.78036014 192.97060142 18.84669972 189.16035461 18.84178162 C188.35333152 18.83684364 187.54630844 18.83190566 186.7148301 18.82681805 C184.001702 18.81141952 181.2885976 18.80307605 178.57543945 18.79467773 C176.6341328 18.78510106 174.69282823 18.77509111 172.75152588 18.76467896 C167.47295963 18.73760099 162.19438441 18.71660708 156.91578698 18.69667697 C151.40243402 18.67483525 145.8891088 18.64743769 140.3757782 18.62062073 C129.93172451 18.57066929 119.48765545 18.52573955 109.04357165 18.48259836 C97.15495543 18.43324693 85.26636702 18.37832104 73.3777777 18.32291877 C48.91854422 18.20906109 24.45928378 18.10242803 0 18 C0 12.06 0 6.12 0 0 Z " fill="#EDF4FD" transform="translate(43,128)"/>
<path d="M0 0 C49.83 0 99.66 0 151 0 C151.1613254 66.38988182 151.1613254 66.38988182 151.1953125 94.11523438 C151.20314379 100.46118206 151.21122567 106.80712935 151.21972656 113.15307617 C151.22078156 113.94841914 151.22183655 114.74376211 151.22292352 115.56320637 C151.24031294 128.39746349 151.27184389 141.2316488 151.30861118 154.06586336 C151.34603909 167.24071692 151.36823976 180.41553293 151.37635398 193.59043747 C151.38183793 201.71775979 151.39914813 209.84487921 151.43166587 217.97213907 C151.45534209 224.20788013 151.45781516 230.44346704 151.45243073 236.6792469 C151.45353084 239.23460768 151.46148298 241.78997616 151.4768219 244.34529114 C151.49675255 247.83691577 151.49192695 251.32767561 151.48101807 254.81932068 C151.49266943 255.82809735 151.5043208 256.83687403 151.51632524 257.87621969 C151.46261228 264.24623399 150.49003912 269.56477187 147 275 C141.81209467 279.89521191 137.28838473 281.12888779 130.22167969 281.11352539 C129.0607782 281.11344986 127.89987671 281.11337433 126.70379639 281.11329651 C124.8317453 281.10555458 124.8317453 281.10555458 122.921875 281.09765625 C120.99930878 281.09553383 120.99930878 281.09553383 119.03790283 281.09336853 C115.6381636 281.08955901 112.2384674 281.07974214 108.83874512 281.06866455 C105.366461 281.05841674 101.8941699 281.0538637 98.421875 281.04882812 C91.61456571 281.03811841 84.80728492 281.02106084 78 281 C77.96261719 279.75355713 77.92523438 278.50711426 77.88671875 277.22290039 C77.82104517 275.57695628 77.75459831 273.9310429 77.6875 272.28515625 C77.66494141 271.46486938 77.64238281 270.64458252 77.61914062 269.79943848 C77.41423038 265.19012212 77.15320921 262.05678486 74 258.4375 C72.70022845 257.2537324 71.36499128 256.10793078 70 255 C53.03152884 239.19953068 36.16996512 216.38926107 34.85523987 192.35350037 C34.845728 191.4059639 34.83621613 190.45842743 34.82641602 189.48217773 C34.81292618 188.40012558 34.79943634 187.31807343 34.78553772 186.20323181 C34.77509933 185.04175125 34.76466095 183.88027069 34.75390625 182.68359375 C34.72095098 180.20247065 34.68773963 177.72135095 34.65429688 175.24023438 C34.60704969 171.34564677 34.56263745 167.45107121 34.52319336 163.55639648 C34.48315829 159.78614817 34.43167664 156.01618245 34.37890625 152.24609375 C34.3704921 151.09878281 34.36207794 149.95147186 34.35340881 148.76939392 C34.03009734 127.31921811 27.57622128 104.57622128 12 89 C11.75799873 87.06150873 11.57787456 85.11526871 11.421875 83.16796875 C11.31560791 81.91218018 11.20934082 80.6563916 11.09985352 79.36254883 C11.04338654 78.68398834 10.98691956 78.00542786 10.92874146 77.30630493 C9.82798627 64.25792999 8.36228623 51.28244071 6.5625 38.3125 C6.46521606 37.59774506 6.36793213 36.88299011 6.2677002 36.14657593 C4.60445039 23.99180243 2.30016616 12.07587236 0 0 Z " fill="#D7ECFD" transform="translate(310,161)"/>
<path d="M0 0 C1.1034375 -0.01611328 2.206875 -0.03222656 3.34375 -0.04882812 C21.6522791 -0.05957257 38.97020416 7.33152983 52.5703125 19.59765625 C68.71230679 36.07750623 75.54245555 55.9326579 75.5234375 78.66796875 C75.54373131 81.25586366 75.56458218 83.84375425 75.5859375 86.43164062 C75.61054312 90.4619934 75.62583513 94.49228145 75.63085938 98.52270508 C75.43254714 119.29770799 75.43254714 119.29770799 80.25 139.3125 C80.65726318 140.48244507 80.65726318 140.48244507 81.07275391 141.67602539 C86.45672088 156.35973154 95.17414505 169.44733042 105.4140625 181.15234375 C107.25 183.3125 107.25 183.3125 107.25 184.3125 C106.09155075 184.31836624 104.9331015 184.32423248 103.73954773 184.33027649 C92.83568122 184.38742686 81.93201563 184.46014799 71.02835369 184.54821491 C65.4223187 184.59299067 59.81635759 184.63223085 54.21020508 184.65893555 C48.80250348 184.68489668 43.39508514 184.72524786 37.98755836 184.77568626 C35.92187834 184.79240374 33.85614928 184.80388751 31.790411 184.81011391 C28.90253194 184.81970201 26.0153856 184.84769745 23.12768555 184.88012695 C22.26885269 184.87869186 21.41001984 184.87725677 20.52516174 184.8757782 C16.24269871 184.81697039 16.24269871 184.81697039 12.53413105 186.65382671 C10.9984864 188.35809926 10.9984864 188.35809926 10.8125 191.25 C11.02891134 194.30576785 11.02891134 194.30576785 12.65802002 196.4697876 C16.63414818 199.29653037 20.39147133 198.88367743 25.15917969 198.85839844 C26.16438156 198.86873611 27.16958344 198.87907379 28.20524597 198.88972473 C31.52761784 198.91922125 34.84938231 198.92065339 38.171875 198.921875 C40.47545539 198.93685197 42.77902503 198.95357808 45.08258057 198.97198486 C51.14557378 199.01572454 57.20842213 199.03567228 63.27154541 199.05072021 C69.4584614 199.07026733 75.6452204 199.11224006 81.83203125 199.15234375 C93.97130582 199.22771768 106.11054538 199.27796576 118.25 199.3125 C118.27887236 203.12498426 118.29675492 206.9374407 118.3125 210.75 C118.32087891 211.83861328 118.32925781 212.92722656 118.33789062 214.04882812 C118.34111328 215.08330078 118.34433594 216.11777344 118.34765625 217.18359375 C118.35289307 218.14193115 118.35812988 219.10026855 118.36352539 220.08764648 C118.25 222.3125 118.25 222.3125 117.25 223.3125 C114.26875388 223.4127177 111.31059632 223.44688148 108.32885742 223.43948364 C107.38132442 223.44104363 106.43379141 223.44260362 105.45754528 223.44421089 C102.25683766 223.44822526 99.05617679 223.44502956 95.85546875 223.44189453 C93.57125826 223.44324838 91.28704799 223.44502822 89.00283813 223.44720459 C82.77988276 223.4517809 76.55694387 223.44998856 70.33398819 223.4468255 C63.8374858 223.44430292 57.34098487 223.44663916 50.84448242 223.44821167 C39.23245675 223.45015054 27.62043863 223.44703269 16.00841415 223.44195233 C5.46947288 223.43748429 -5.06945737 223.43826022 -15.60839844 223.44287109 C-27.83257994 223.44821673 -40.0567536 223.45021776 -52.28093624 223.44725883 C-58.75708722 223.44569559 -65.2332306 223.44550357 -71.7093811 223.44879532 C-77.79627873 223.45167281 -83.88315545 223.4497006 -89.97005081 223.44390106 C-92.21108592 223.4425728 -94.45212277 223.44296868 -96.6931572 223.44516373 C-99.73841479 223.44787267 -102.78360424 223.44449726 -105.82885742 223.43948364 C-106.72796247 223.44171436 -107.62706751 223.44394509 -108.55341816 223.44624341 C-114.63585019 223.42664981 -114.63585019 223.42664981 -115.75 222.3125 C-115.83713831 220.60477642 -115.85700007 218.89351351 -115.84765625 217.18359375 C-115.84443359 216.14912109 -115.84121094 215.11464844 -115.83789062 214.04882812 C-115.82532227 212.4159082 -115.82532227 212.4159082 -115.8125 210.75 C-115.80798828 209.65751953 -115.80347656 208.56503906 -115.79882812 207.43945312 C-115.78699826 204.73041505 -115.77051543 202.02148401 -115.75 199.3125 C-114.49354675 199.30885437 -113.23709351 199.30520874 -111.94256592 199.30145264 C-100.11187543 199.26453974 -88.28144613 199.2068076 -76.45095444 199.12859726 C-70.36849627 199.08905835 -64.28618427 199.05690127 -58.20361328 199.04150391 C-52.33551268 199.0263797 -46.46781376 198.99200929 -40.59989166 198.94419098 C-38.3591994 198.92933346 -36.1184498 198.92145649 -33.87770844 198.92061615 C-30.74322997 198.91825793 -27.60987198 198.89126991 -24.47558594 198.85839844 C-23.54554245 198.8634288 -22.61549896 198.86845917 -21.65727234 198.87364197 C-16.57284439 198.81791635 -16.57284439 198.81791635 -12.16949463 196.4697876 C-10.24635944 193.54708848 -10.23919033 191.74222208 -10.75 188.3125 C-11.98568704 186.58367748 -11.98568704 186.58367748 -13.75 185.3125 C-16.71571235 185.00257511 -19.47569082 184.87505641 -22.4440918 184.88012695 C-23.3321048 184.8699353 -24.2201178 184.85974365 -25.13504028 184.84924316 C-28.07316321 184.81902479 -31.0109606 184.80983373 -33.94921875 184.80078125 C-35.98518464 184.78394112 -38.0211401 184.76579179 -40.05708313 184.74638367 C-45.41806781 184.69880524 -50.77901018 184.6690466 -56.14013672 184.64294434 C-61.60978556 184.61317837 -67.07928847 184.56663446 -72.54882812 184.52148438 C-83.28247587 184.43536203 -94.01615359 184.36805648 -104.75 184.3125 C-102.33852345 180.65610843 -99.89905159 177.21107011 -97.0625 173.875 C-88.67205527 163.45334891 -82.45765008 151.81350077 -77.75 139.3125 C-77.38044189 138.34489746 -77.01088379 137.37729492 -76.63012695 136.38037109 C-71.93683181 121.75171382 -73.2236946 106.16298372 -73.25927734 90.97851562 C-73.27447236 66.50845909 -71.9621481 44.41460947 -54.75 25.3125 C-53.94820312 24.41789062 -53.14640625 23.52328125 -52.3203125 22.6015625 C-37.95419599 7.40262764 -20.75129377 -0.05976755 0 0 Z " fill="#FED671" transform="translate(254.75,234.6875)"/>
<path d="M0 0 C16.17 0 32.34 0 49 0 C49.33 5.94 49.66 11.88 50 18 C53.27213063 27.02314809 58.0742953 32.0635222 66.25 36.9375 C74.07019408 39.15322166 81.68239774 39.03298777 88.96875 35.2578125 C96.52672206 30.57768365 100.20475302 25.38574094 103 17 C103.22809443 14.26568283 103.4164271 11.55075247 103.5625 8.8125 C103.706875 6.234375 103.85125 3.65625 104 1 C114.23 1 124.46 1 135 1 C135 18.82 135 36.64 135 55 C-6.24 55 -147.48 55 -293 55 C-293 37.18 -293 19.36 -293 1 C-282.77 1 -272.54 1 -262 1 C-261.9175 3.454375 -261.835 5.90875 -261.75 8.4375 C-261.22385372 18.14577906 -258.74519121 25.0767409 -251.96875 32.26953125 C-246.04581717 37.47560118 -239.74659196 38.68474154 -231.9921875 38.37890625 C-224.56432472 37.43830222 -218.48501089 34.63916315 -213.46875 29.01953125 C-207.1162099 20.28478862 -207.69372898 12.09966364 -207 1 C-191.16 1 -175.32 1 -159 1 C-158.67 5.62 -158.34 10.24 -158 15 C-156.80513743 18.71260871 -155.76497407 21.63325151 -154 25 C-153.68546875 25.64582031 -153.3709375 26.29164062 -153.046875 26.95703125 C-149.52061355 32.99641187 -143.43608542 35.81605255 -137 38 C-128.15372089 39.44496579 -121.49898558 37.45491821 -114.06640625 32.78515625 C-108.40226349 28.58272775 -106.29067913 23.60254571 -104 17 C-103.67 11.72 -103.34 6.44 -103 1 C-87.16 1 -71.32 1 -55 1 C-54.67 6.28 -54.34 11.56 -54 17 C-50.33441962 26.25122667 -46.47254057 32.75308901 -37.25 36.875 C-29.26237001 39.45016256 -21.69916312 38.56664003 -14.15234375 35.12109375 C-7.02625651 31.40932054 -4.46635377 25.93270754 -1 19 C-0.67 12.73 -0.34 6.46 0 0 Z " fill="#EA5367" transform="translate(335,59)"/>
<path d="M0 0 C140.58 0 281.16 0 426 0 C426 5.94 426 11.88 426 18 C423.48851852 18.00586624 420.97703705 18.01173248 418.38945007 18.01777649 C394.77090347 18.0743629 371.15244905 18.14740094 347.53399944 18.23571491 C335.39026951 18.2807245 323.24656924 18.32012718 311.1027832 18.34643555 C300.52109611 18.36937388 289.93950249 18.40272503 279.35788947 18.44870156 C273.75243564 18.47269008 268.1470747 18.4913819 262.54157066 18.49761391 C257.26960959 18.50363937 251.99788639 18.52354672 246.72601318 18.55427551 C244.78738363 18.56309663 242.84872305 18.56676996 240.91007423 18.56500816 C238.2702715 18.56336609 235.63120321 18.5799627 232.99150085 18.60127258 C232.21815877 18.59642501 231.44481669 18.59157743 230.64804 18.58658296 C226.61543119 18.62256498 226.61543119 18.62256498 223.0630312 20.33742046 C221.82009294 22.13202175 221.82009294 22.13202175 221 25 C214.73 25 208.46 25 202 25 C201.67 25.66 201.34 26.32 201 27 C200.67 24.69 200.34 22.38 200 20 C196.34108042 18.78036014 192.97060142 18.84669972 189.16035461 18.84178162 C188.35333152 18.83684364 187.54630844 18.83190566 186.7148301 18.82681805 C184.001702 18.81141952 181.2885976 18.80307605 178.57543945 18.79467773 C176.6341328 18.78510106 174.69282823 18.77509111 172.75152588 18.76467896 C167.47295963 18.73760099 162.19438441 18.71660708 156.91578698 18.69667697 C151.40243402 18.67483525 145.8891088 18.64743769 140.3757782 18.62062073 C129.93172451 18.57066929 119.48765545 18.52573955 109.04357165 18.48259836 C97.15495543 18.43324693 85.26636702 18.37832104 73.3777777 18.32291877 C48.91854422 18.20906109 24.45928378 18.10242803 0 18 C0 12.06 0 6.12 0 0 Z " fill="#9ED2FC" transform="translate(43,128)"/>
<path d="M0 0 C1.97119141 -0.34057617 1.97119141 -0.34057617 4.3515625 -0.29296875 C5.62773437 -0.2784668 5.62773437 -0.2784668 6.9296875 -0.26367188 C7.81914062 -0.23853516 8.70859375 -0.21339844 9.625 -0.1875 C10.97078125 -0.16719727 10.97078125 -0.16719727 12.34375 -0.14648438 C14.56309789 -0.11106925 16.78125188 -0.06168461 19 0 C19.680625 1.4540625 19.680625 1.4540625 20.375 2.9375 C21.65786221 6.07079582 21.65786221 6.07079582 24 7 C25.38074691 7.10323131 26.76623698 7.14642781 28.15078735 7.15821838 C29.45489815 7.17290161 29.45489815 7.17290161 30.78535461 7.18788147 C31.74129013 7.19363693 32.69722565 7.1993924 33.68212891 7.20532227 C34.68703873 7.21522186 35.69194855 7.22512146 36.72731018 7.23532104 C40.06037004 7.26699582 43.39344417 7.2917171 46.7265625 7.31640625 C49.03299335 7.33697061 51.33942038 7.35796694 53.64584351 7.37937927 C59.72526975 7.43465339 65.80473031 7.4840391 71.88421631 7.53222656 C78.08430038 7.58240264 84.28433444 7.638109 90.484375 7.69335938 C102.65620731 7.80100625 114.82808298 7.90243669 127 8 C127.02887236 11.81248426 127.04675492 15.6249407 127.0625 19.4375 C127.07087891 20.52611328 127.07925781 21.61472656 127.08789062 22.73632812 C127.09111328 23.77080078 127.09433594 24.80527344 127.09765625 25.87109375 C127.10289307 26.82943115 127.10812988 27.78776855 127.11352539 28.77514648 C127 31 127 31 126 32 C123.01875388 32.1002177 120.06059632 32.13438148 117.07885742 32.12698364 C115.65755791 32.12932363 115.65755791 32.12932363 114.20754528 32.13171089 C111.00683766 32.13572526 107.80617679 32.13252956 104.60546875 32.12939453 C102.32125826 32.13074838 100.03704799 32.13252822 97.75283813 32.13470459 C91.52988276 32.1392809 85.30694387 32.13748856 79.08398819 32.1343255 C72.5874858 32.13180292 66.09098487 32.13413916 59.59448242 32.13571167 C47.98245675 32.13765054 36.37043863 32.13453269 24.75841415 32.12945233 C14.21947288 32.12498429 3.68054263 32.12576022 -6.85839844 32.13037109 C-19.08257994 32.13571673 -31.3067536 32.13771776 -43.53093624 32.13475883 C-50.00708722 32.13319559 -56.4832306 32.13300357 -62.9593811 32.13629532 C-69.04627873 32.13917281 -75.13315545 32.1372006 -81.22005081 32.13140106 C-83.46108592 32.1300728 -85.70212277 32.13046868 -87.9431572 32.13266373 C-90.98841479 32.13537267 -94.03360424 32.13199726 -97.07885742 32.12698364 C-97.97796247 32.12921436 -98.87706751 32.13144509 -99.80341816 32.13374341 C-105.88585019 32.11414981 -105.88585019 32.11414981 -107 31 C-107.08713831 29.29227642 -107.10700007 27.58101351 -107.09765625 25.87109375 C-107.09443359 24.83662109 -107.09121094 23.80214844 -107.08789062 22.73632812 C-107.07951172 21.64771484 -107.07113281 20.55910156 -107.0625 19.4375 C-107.05798828 18.34501953 -107.05347656 17.25253906 -107.04882812 16.12695312 C-107.03699826 13.41791505 -107.02051543 10.70898401 -107 8 C-105.74354675 7.99635437 -104.48709351 7.99270874 -103.19256592 7.98895264 C-91.36187543 7.95203974 -79.53144613 7.8943076 -67.70095444 7.81609726 C-61.61849627 7.77655835 -55.53618427 7.74440127 -49.45361328 7.72900391 C-43.58551268 7.7138797 -37.71781376 7.67950929 -31.84989166 7.63169098 C-29.6091994 7.61683346 -27.3684498 7.60895649 -25.12770844 7.60811615 C-21.99322997 7.60575793 -18.85987198 7.57876991 -15.72558594 7.54589844 C-14.79554245 7.5509288 -13.86549896 7.55595917 -12.90727234 7.56114197 C-7.85222116 7.52663897 -7.85222116 7.52663897 -3.51715088 5.15338135 C-2.31932219 3.45323274 -1.15362957 1.73044435 0 0 Z " fill="#F9EFAF" transform="translate(246,426)"/>
<path d="M0 0 C19.66391289 -0.85633169 37.62962397 6.03542043 52.3203125 19.28515625 C68.46230679 35.76500623 75.29245555 55.6201579 75.2734375 78.35546875 C75.29373131 80.94336366 75.31458218 83.53125425 75.3359375 86.11914062 C75.36054312 90.1494934 75.37583513 94.17978145 75.38085938 98.21020508 C75.18254714 118.98520799 75.18254714 118.98520799 80 139 C80.27150879 139.77996338 80.54301758 140.55992676 80.82275391 141.36352539 C86.20672088 156.04723154 94.92414505 169.13483042 105.1640625 180.83984375 C107 183 107 183 107 184 C76.97 184 46.94 184 16 184 C16 183.67 16 183.34 16 183 C46.69 182.505 46.69 182.505 78 182 C74.37 178.04 70.74 174.08 67 170 C64.81254766 167.13506242 62.76914579 164.37657267 60.8125 161.375 C60.31693604 160.61993164 59.82137207 159.86486328 59.31079102 159.08691406 C55.95046841 153.82064741 53.02728978 148.43388438 50.4375 142.75 C50.12723877 142.07888184 49.81697754 141.40776367 49.49731445 140.71630859 C42.92226878 125.37514603 43.55069046 109.49361077 43.5 93.125 C43.40646753 63.01161268 41.22334604 37.51432275 19 15 C13.15994798 9.23352343 7.41912843 4.56619941 0 1 C0 0.67 0 0.34 0 0 Z " fill="#F7B757" transform="translate(255,235)"/>
<path d="M0 0 C16.17 0 32.34 0 49 0 C49.33 5.94 49.66 11.88 50 18 C53.27213063 27.02314809 58.0742953 32.0635222 66.25 36.9375 C74.07019408 39.15322166 81.68239774 39.03298777 88.96875 35.2578125 C96.52672206 30.57768365 100.20475302 25.38574094 103 17 C103.22809443 14.26568283 103.4164271 11.55075247 103.5625 8.8125 C103.706875 6.234375 103.85125 3.65625 104 1 C114.23 1 124.46 1 135 1 C135 18.82 135 36.64 135 55 C-6.24 55 -147.48 55 -293 55 C-293 37.18 -293 19.36 -293 1 C-292.67 1 -292.34 1 -292 1 C-292 18.49 -292 35.98 -292 54 C-186.07 54 -80.14 54 29 54 C28.10696005 36.13920099 25.64992411 22.21514428 19.953125 5.9140625 C19 3 19 3 19 1 C13.06 1 7.12 1 1 1 C1 5.62 1 10.24 1 15 C0.67 15 0.34 15 0 15 C0 10.05 0 5.1 0 0 Z " fill="#D5354A" transform="translate(335,59)"/>
<path d="M0 0 C140.58 0 281.16 0 426 0 C426 5.94 426 11.88 426 18 C360.66 18 295.32 18 228 18 C228 17.67 228 17.34 228 17 C257.37 17 286.74 17 317 17 C317.66 13.04 318.32 9.08 319 5 C319.33 3.68 319.66 2.36 320 1 C214.4 1 108.8 1 0 1 C0 0.67 0 0.34 0 0 Z " fill="#79ABD6" transform="translate(43,128)"/>
<path d="M0 0 C2.5625 1.5625 2.5625 1.5625 4 4 C3.94109377 7.35765528 3.8850237 9.85316865 1.78515625 12.57421875 C-0.49889283 14.39845926 -2.76278234 15.22714498 -5.5 16.25 C-25.63446607 24.40082 -39.46511096 39.56367705 -48.20605469 59.10058594 C-52.03560712 68.26230731 -53.19699855 77.83433776 -53.1875 87.6875 C-53.18741943 88.47189453 -53.18733887 89.25628906 -53.18725586 90.06445312 C-53.12306421 100.84212797 -53.12306421 100.84212797 -50 111 C-49.74047344 114.50360855 -49.65707286 117.1641151 -51 120.4375 C-53.69929551 122.54632462 -55.71539248 122.43993297 -59.0625 122.43359375 C-61.64793425 121.85499858 -62.42094147 121.13217508 -64 119 C-65.1328125 116.07421875 -65.1328125 116.07421875 -66.125 112.6875 C-66.45757812 111.57761719 -66.79015625 110.46773438 -67.1328125 109.32421875 C-73.1050705 86.43056309 -68.62527113 60.97654745 -57.08203125 40.6171875 C-52.71423655 33.79959179 -47.57986416 27.84557198 -42 22 C-41.46117188 21.38640625 -40.92234375 20.7728125 -40.3671875 20.140625 C-31.70744622 10.65407425 -13.19548258 -2.39917865 0 0 Z " fill="#030304" transform="translate(163,187)"/>
<path d="M0 0 C2.90139679 0.86523797 5.54337265 2.08966153 8.25 3.4375 C8.99016357 3.79875977 9.73032715 4.16001953 10.49291992 4.53222656 C27.68242178 13.19682323 40.51350305 26.49153932 50 43 C50.73669922 44.26070312 50.73669922 44.26070312 51.48828125 45.546875 C62.49328358 65.85331892 64.08569158 90.91119353 58 113 C56.74855431 116.42217929 55.61915656 119.38084344 53 122 C45.86926995 122.67911715 45.86926995 122.67911715 43 120.4375 C40.65321307 114.71720685 42.3078891 109.6735483 44 104 C47.36125031 81.50363184 43.9651326 60.93599271 30.94921875 42.01953125 C29.05153103 39.58385828 27.08042643 37.28038562 25 35 C24.22462891 34.08734375 24.22462891 34.08734375 23.43359375 33.15625 C15.8129829 24.75256886 5.13143672 18.92756446 -5.4765625 15.265625 C-8.60597179 13.69607607 -10.05922125 11.88433708 -12 9 C-12.64425021 5.69821765 -12.33107086 4.51040091 -10.5 1.6875 C-7.06059259 -0.6341 -3.98969338 -0.48767823 0 0 Z " fill="#030303" transform="translate(357,187)"/>
<path d="M0 0 C4.18694397 1.47774493 6.77354974 3.25474759 9.17285156 7.03222656 C10.93964132 11.23539228 10.56605761 15.82491632 10.53125 20.3125 C10.5350769 21.39958252 10.53890381 22.48666504 10.54284668 23.60668945 C10.54556241 25.89958627 10.53822511 28.19251425 10.52148438 30.48535156 C10.50007131 33.98833506 10.52129906 37.48926755 10.546875 40.9921875 C10.54423167 43.22396285 10.53910657 45.45573692 10.53125 47.6875 C10.53934692 48.73139893 10.54744385 49.77529785 10.55578613 50.85083008 C10.4784562 56.86872981 10.05343296 60.4403498 6 65 C1.65252099 67.89831934 -1.81863494 68.81811027 -7 68 C-10.26678787 65.87626316 -13.24011654 63.51976692 -15 60 C-15.12055942 58.37317502 -15.1799107 56.74162696 -15.20874023 55.1105957 C-15.22803085 54.09226151 -15.24732147 53.07392731 -15.26719666 52.0247345 C-15.32491434 47.35547357 -15.37423303 42.68636833 -15.4050293 38.0168457 C-15.42659922 35.55609088 -15.46068954 33.09541257 -15.50756836 30.63500977 C-15.57458949 27.08575186 -15.60203553 23.53808286 -15.62109375 19.98828125 C-15.64892441 18.89324783 -15.67675507 17.79821442 -15.70542908 16.66999817 C-15.68848235 10.35372703 -15.01601237 6.75328827 -10.48597717 2.20744324 C-7.10796409 -0.53738967 -4.25975341 -0.28398356 0 0 Z " fill="#F5B656" transform="translate(207,15)"/>
<path d="M0 0 C4.160079 1.83817444 6.64369915 4.12550478 9 8 C9.62535472 11.86779689 9.60810604 15.70548709 9.6015625 19.6171875 C9.61013275 20.74770538 9.618703 21.87822327 9.62753296 23.04299927 C9.63900657 25.43179651 9.64002956 27.82066363 9.63134766 30.20947266 C9.6250334 33.85571172 9.6719307 37.49869417 9.72265625 41.14453125 C9.7272032 43.46874592 9.72860878 45.79296929 9.7265625 48.1171875 C9.74498199 49.20280975 9.76340149 50.28843201 9.78237915 51.4069519 C9.70661952 57.63681843 8.98239776 61.25530616 4.57992554 65.78884888 C1.01494344 68.52171949 -2.69627728 68.36472226 -7 68 C-11.97930729 65.51034636 -14.02952336 63.15426424 -16 58 C-16.44133723 54.30061537 -16.44428598 50.62868719 -16.43359375 46.90625 C-16.4388356 45.84136353 -16.44407745 44.77647705 -16.44947815 43.67932129 C-16.45588608 41.43352122 -16.45457733 39.18768753 -16.44604492 36.94189453 C-16.43752839 33.51143554 -16.46632587 30.08263871 -16.49804688 26.65234375 C-16.49965891 24.46614633 -16.49908132 22.27994597 -16.49609375 20.09375 C-16.51294472 18.56071228 -16.51294472 18.56071228 -16.53013611 16.9967041 C-16.47169607 11.00877989 -15.98037234 7.56476108 -12 3 C-8.06991695 -0.18655382 -4.99020009 -0.5346643 0 0 Z " fill="#F9B857" transform="translate(311,15)"/>
<path d="M0 0 C4.19629943 1.48104686 6.77080966 3.26103571 9.17507935 7.0456543 C10.9207278 11.18132546 10.54464731 15.67652984 10.49609375 20.09375 C10.49754898 21.15863647 10.49900421 22.22352295 10.50050354 23.32067871 C10.49884753 25.56651553 10.48731981 27.81236405 10.46655273 30.05810547 C10.43759751 33.48844798 10.44595127 36.91724402 10.45898438 40.34765625 C10.45274648 42.53386165 10.44435515 44.72006219 10.43359375 46.90625 C10.43652939 47.92827515 10.43946503 48.95030029 10.44248962 50.0032959 C10.3712454 55.40213153 10.09497279 59.36928339 7 64 C3.27257628 67.29400236 0.10143848 68.77110281 -4.96875 68.52734375 C-8.77765292 67.53849395 -11.51032052 64.96596598 -14 62 C-14.9738959 59.07831231 -15.14840993 57.11966676 -15.19287109 54.07299805 C-15.20893402 53.07153244 -15.22499695 52.07006683 -15.24154663 51.03825378 C-15.28607401 46.46341695 -15.32705292 41.88872357 -15.35009766 37.3137207 C-15.36666301 34.90151323 -15.3939603 32.48935495 -15.43212891 30.07739258 C-15.48690966 26.59690931 -15.50877359 23.11757514 -15.5234375 19.63671875 C-15.54610687 18.56153488 -15.56877625 17.48635101 -15.59213257 16.37858582 C-15.56856852 8.02030008 -15.56856852 8.02030008 -12.65478516 4.39770508 C-8.21800684 0.3905688 -5.96493799 -0.50550322 0 0 Z " fill="#F8B857" transform="translate(414,15)"/>
<path d="M0 0 C3.00559099 1.79335679 5.40823657 3.81647313 7 7 C7.11034806 8.60178012 7.15911269 10.20799961 7.17700195 11.81347656 C7.18983719 12.8150177 7.20267242 13.81655884 7.21589661 14.84844971 C7.22328354 15.93486755 7.23067047 17.0212854 7.23828125 18.140625 C7.246353 19.25556335 7.25442474 20.37050171 7.26274109 21.51922607 C7.27659059 23.88308147 7.28730885 26.24695694 7.29516602 28.61083984 C7.31236385 32.22141604 7.35624186 35.83107325 7.40039062 39.44140625 C7.41051865 41.73697243 7.41903441 44.0325464 7.42578125 46.328125 C7.44328934 47.40644592 7.46079742 48.48476685 7.47883606 49.59576416 C7.46115416 55.72520624 7.12463249 59.34998205 3 64 C0.07327328 66.37302167 -1.68309204 66.95966626 -5.4375 67.4375 C-9.7426591 66.90879625 -11.72712679 65.82657232 -15 63 C-18.67591156 57.51314136 -18.451892 52.27667841 -18.43359375 45.90625 C-18.4388356 44.84136353 -18.44407745 43.77647705 -18.44947815 42.67932129 C-18.45588608 40.43352122 -18.45457733 38.18768753 -18.44604492 35.94189453 C-18.43752839 32.51143554 -18.46632587 29.08263871 -18.49804688 25.65234375 C-18.49965891 23.46614633 -18.49908132 21.27994597 -18.49609375 19.09375 C-18.51294472 17.56071228 -18.51294472 17.56071228 -18.53013611 15.9967041 C-18.47164091 10.00312817 -17.96957383 6.57663097 -14 2 C-9.69320148 -1.81459298 -5.2939061 -1.55374748 0 0 Z " fill="#F9B857" transform="translate(106,16)"/>
<path d="M0 0 C16.56875508 8.04383232 26.6095027 19.5994877 33.6328125 36.73828125 C35.87650667 43.23406998 37.04053764 49.18909553 36.98828125 56.0703125 C36.98417236 57.17572388 36.98417236 57.17572388 36.97998047 58.3034668 C36.83677025 65.84011042 35.49231379 73.15899861 31.67578125 79.7578125 C28.58404373 81.30368126 26.08148573 81.05140771 22.67578125 80.7578125 C20.17578125 79.3203125 20.17578125 79.3203125 18.67578125 76.7578125 C18.58137763 72.8654785 19.36076316 69.16612866 20.20703125 65.3828125 C22.66920876 51.59461844 19.33311396 39.66207733 11.5859375 28.23046875 C6.12404499 21.16016618 -0.33422851 17.47088886 -8.32421875 13.7578125 C-11.84000037 11.85343079 -13.08393933 11.11823163 -15.32421875 7.7578125 C-15.19269865 4.07524965 -15.05751432 1.66033013 -12.69921875 -1.2421875 C-8.37900375 -3.0612254 -4.24709284 -1.58704527 0 0 Z " fill="#040405" transform="translate(350.32421875,218.2421875)"/>
<path d="M0 0 C2 1.625 2 1.625 3 4 C3.0625 7.5 3.0625 7.5 2 11 C-0.66499724 13.32333093 -3.16262526 14.60437888 -6.33984375 16.10546875 C-18.9083643 22.08955635 -26.45817346 30.7090091 -31.4375 43.8125 C-34.1789071 52.87208569 -33.76170555 61.95339874 -31.390625 71.03125 C-30.75691553 74.22514573 -31.17427917 76.88766762 -32 80 C-35.69486103 82.46324069 -37.63293092 82.38991688 -42 82 C-44.72200156 79.90918721 -45.63248226 77.79636274 -46.625 74.5625 C-46.86476563 73.80066406 -47.10453125 73.03882813 -47.3515625 72.25390625 C-47.56554687 71.51011719 -47.77953125 70.76632812 -48 70 C-48.185625 69.40574219 -48.37125 68.81148438 -48.5625 68.19921875 C-51.55183651 53.17246466 -47.50771901 37.66464303 -39.84765625 24.65625 C-33.39984972 15.38667612 -25.99987226 8.34117806 -16 3 C-15.19304687 2.5565625 -14.38609375 2.113125 -13.5546875 1.65625 C-8.74433473 -0.75707952 -5.34318339 -1.70981868 0 0 Z " fill="#040404" transform="translate(174,217)"/>
<path d="M0 0 C14.52 0 29.04 0 44 0 C44 7.60020443 43.28931307 11.49780863 38.12890625 16.9921875 C32.02563768 22.55319969 27.0726091 24.5533088 18.78125 24.375 C11.96190577 23.45553786 7.32746183 18.90745188 3.1875 13.6875 C-0.22844302 8.83326518 0 6.24039843 0 0 Z " fill="#FDD571" transform="translate(234,473)"/>
<path d="M0 0 C3.3012388 6.21618567 3.43851827 11.59979512 3.3984375 18.55859375 C3.40274277 20.21327415 3.40274277 20.21327415 3.40713501 21.90138245 C3.40917033 24.22698482 3.40367783 26.55260451 3.39111328 28.87817383 C3.37506822 32.42243058 3.39097304 35.96554435 3.41015625 39.50976562 C3.40817343 41.77604417 3.40432894 44.042322 3.3984375 46.30859375 C3.40451019 47.36090683 3.41058289 48.41321991 3.4168396 49.49742126 C3.35805693 55.70024471 2.55676291 60.33339752 0 66 C-3.53508103 65.70540991 -4.76203444 65.25118587 -7.25 62.625 C-9.62612209 59.06081686 -10.12828166 56.44217574 -10.17700195 52.2565918 C-10.18983719 51.29516769 -10.20267242 50.33374359 -10.21589661 49.34318542 C-10.22328354 48.30567642 -10.23067047 47.26816742 -10.23828125 46.19921875 C-10.246353 45.13008743 -10.25442474 44.06095612 -10.26274109 42.95942688 C-10.27657591 40.69570536 -10.28730076 38.43196303 -10.29516602 36.16821289 C-10.31238124 32.71134826 -10.35627416 29.25543939 -10.40039062 25.79882812 C-10.41051753 23.59896536 -10.41903364 21.39909447 -10.42578125 19.19921875 C-10.44328934 18.16778244 -10.46079742 17.13634613 -10.47883606 16.07365417 C-10.46071556 10.06017506 -10.05612701 6.55197261 -6 2 C-3 0 -3 0 0 0 Z " fill="#F9D26F" transform="translate(305,16)"/>
<path d="M0 0 C3 1 3 1 4.66040039 3.85375977 C6.62191662 8.89405895 6.448781 13.99849068 6.43359375 19.33984375 C6.4388356 20.42076797 6.44407745 21.5016922 6.44947815 22.6153717 C6.45588137 24.89388167 6.45458347 27.17242477 6.44604492 29.45092773 C6.43753562 32.92296627 6.46632115 36.3933581 6.49804688 39.86523438 C6.49965918 42.08593701 6.4990808 44.30664254 6.49609375 46.52734375 C6.51294472 48.0730027 6.51294472 48.0730027 6.53013611 49.64988708 C6.46729321 56.20042448 5.37873142 60.36654663 2 66 C-1.3529984 64.82191948 -3.7552529 63.80593388 -6 61 C-6.9738959 58.07831231 -7.14840993 56.11966676 -7.19287109 53.07299805 C-7.20893402 52.07153244 -7.22499695 51.07006683 -7.24154663 50.03825378 C-7.28607401 45.46341695 -7.32705292 40.88872357 -7.35009766 36.3137207 C-7.36666301 33.90151323 -7.3939603 31.48935495 -7.43212891 29.07739258 C-7.48690966 25.59690931 -7.50877359 22.11757514 -7.5234375 18.63671875 C-7.54610687 17.56153488 -7.56877625 16.48635101 -7.59213257 15.37858582 C-7.5685694 7.02061319 -7.5685694 7.02061319 -4.59228516 3.33520508 C-2 1 -2 1 0 0 Z " fill="#FDD570" transform="translate(406,16)"/>
<path d="M0 0 C2.74813557 1.00764971 3.79791144 1.58991653 5.11465454 4.2618866 C6.015952 7.04933485 6.26497506 9.20370059 6.29052734 12.12231445 C6.3096669 13.6146032 6.3096669 13.6146032 6.32919312 15.13703918 C6.33253159 16.73402901 6.33253159 16.73402901 6.3359375 18.36328125 C6.3425943 19.46923141 6.3492511 20.57518158 6.35610962 21.71464539 C6.36622368 24.05217834 6.37092703 26.3897401 6.37060547 28.72729492 C6.37497167 32.28938838 6.41128717 35.85023556 6.44921875 39.41210938 C6.45508865 41.68749578 6.45905688 43.96288805 6.4609375 46.23828125 C6.47530853 47.29686844 6.48967957 48.35545563 6.50448608 49.44612122 C6.46382414 56.08283528 5.4412318 60.30027337 2 66 C-1.91304179 64.73090537 -3.85610288 63.53743024 -6 60 C-6.95896364 57.12310909 -7.14216969 55.24904845 -7.17700195 52.2565918 C-7.18983719 51.29516769 -7.20267242 50.33374359 -7.21589661 49.34318542 C-7.22328354 48.30567642 -7.23067047 47.26816742 -7.23828125 46.19921875 C-7.246353 45.13008743 -7.25442474 44.06095612 -7.26274109 42.95942688 C-7.27657591 40.69570536 -7.28730076 38.43196303 -7.29516602 36.16821289 C-7.31238124 32.71134826 -7.35627416 29.25543939 -7.40039062 25.79882812 C-7.41051753 23.59896536 -7.41903364 21.39909447 -7.42578125 19.19921875 C-7.44328934 18.16778244 -7.46079742 17.13634613 -7.47883606 16.07365417 C-7.46071556 10.06017506 -7.05612701 6.55197261 -3 2 C-2.01 1.34 -1.02 0.68 0 0 Z " fill="#FED570" transform="translate(95,16)"/>
<path d="M0 0 C5.60734402 3.32168379 10.09835426 8.01584598 12.61328125 14.08984375 C12.80859375 16.44921875 12.80859375 16.44921875 12.73828125 18.83984375 C12.72023438 19.6390625 12.7021875 20.43828125 12.68359375 21.26171875 C12.66039062 21.865 12.6371875 22.46828125 12.61328125 23.08984375 C11.57300781 22.92742187 10.53273438 22.765 9.4609375 22.59765625 C3.3403085 21.83510375 -2.79082472 21.94481645 -8.94921875 21.96484375 C-10.73875977 21.95904297 -10.73875977 21.95904297 -12.56445312 21.953125 C-18.27324003 21.95947162 -23.76705664 22.05008248 -29.38671875 23.08984375 C-30.02210607 16.99012549 -29.44210374 12.94056121 -25.8828125 7.87890625 C-19.21769158 -0.091395 -10.19632816 -3.88828881 0 0 Z " fill="#F4EAAB" transform="translate(264.38671875,198.91015625)"/>
<path d="M0 0 C10.23 0 20.46 0 31 0 C31.020625 3.774375 31.04125 7.54875 31.0625 11.4375 C31.071604 12.62915771 31.08070801 13.82081543 31.09008789 15.04858398 C31.09258545 15.98001221 31.09508301 16.91144043 31.09765625 17.87109375 C31.10551147 19.30859985 31.10551147 19.30859985 31.11352539 20.77514648 C31 23 31 23 30 24 C27.78144736 24.08783542 25.56011504 24.10694609 23.33984375 24.09765625 C22.34314415 24.09553383 22.34314415 24.09553383 21.3263092 24.09336853 C19.19666101 24.08775518 17.06711661 24.07520054 14.9375 24.0625 C13.49674631 24.05748671 12.05599097 24.05292351 10.61523438 24.04882812 C7.07675042 24.03863076 3.53849187 24.0190583 0 24 C0 16.08 0 8.16 0 0 Z " fill="#FDD671" transform="translate(342,434)"/>
<path d="M0 0 C1.875 0.1875 1.875 0.1875 4 1 C5.94811025 4.50237889 6.25547643 7.57832636 6.2746582 11.53710938 C6.28419022 12.62173462 6.29372223 13.70635986 6.30354309 14.82385254 C6.30263168 15.9854187 6.30172028 17.14698486 6.30078125 18.34375 C6.30506638 19.54559937 6.3093515 20.74744873 6.31376648 21.98571777 C6.31950384 24.52416352 6.32001443 27.0626257 6.31567383 29.60107422 C6.31251169 33.48563623 6.33598929 37.36943824 6.36132812 41.25390625 C6.36360093 43.72135321 6.3643047 46.18880221 6.36328125 48.65625 C6.372491 49.81781616 6.38170074 50.97938232 6.39118958 52.17614746 C6.38496078 53.26077271 6.37873199 54.34539795 6.37231445 55.46289062 C6.37294388 56.41377563 6.3735733 57.36466064 6.3742218 58.34436035 C5.93188059 61.48340479 4.77828104 63.40623326 3 66 C-0.11259719 65.76943725 -1.23798391 64.78748325 -3.60083008 62.67749023 C-7.26043593 58.1056255 -6.73536511 52.89805762 -6.69921875 47.28515625 C-6.70637405 46.15605331 -6.71352936 45.02695038 -6.72090149 43.8636322 C-6.72867022 41.48079212 -6.72368407 39.09788073 -6.70678711 36.71508789 C-6.68757956 33.0775663 -6.72694481 29.44387479 -6.77148438 25.80664062 C-6.77177478 23.4869769 -6.76863359 21.16730969 -6.76171875 18.84765625 C-6.77700119 17.76517105 -6.79228363 16.68268585 -6.80802917 15.56739807 C-6.71003246 9.18735548 -5.89313504 5.66165605 -1.28572083 1.11473083 C-0.86143295 0.74686966 -0.43714508 0.37900848 0 0 Z " fill="#FED671" transform="translate(198,16)"/>
<path d="M0 0 C14.52 0 29.04 0 44 0 C44 7.60020443 43.28931307 11.49780863 38.12890625 16.9921875 C32.77116687 21.87390845 28.59374028 24.30346362 21.1875 24.125 C19.72376953 24.09792969 19.72376953 24.09792969 18.23046875 24.0703125 C17.49441406 24.04710937 16.75835937 24.02390625 16 24 C16 23.67 16 23.34 16 23 C17.3303125 22.7525 17.3303125 22.7525 18.6875 22.5 C23.68387727 20.23748954 24.51602925 17.9679415 27 13 C27.99 9.04 28.98 5.08 30 1 C20.43 1 10.86 1 1 1 C1 2.98 1 4.96 1 7 C0.67 7 0.34 7 0 7 C0 4.69 0 2.38 0 0 Z " fill="#E8AE53" transform="translate(234,473)"/>
<path d="M0 0 C6.95407816 0.12492356 11.04021009 2.10271009 15.90234375 6.96484375 C19.61215197 11.1907992 21.66597047 14.54450397 21.5 20.1875 C21.48195313 20.98671875 21.46390625 21.7859375 21.4453125 22.609375 C21.42210937 23.21265625 21.39890625 23.8159375 21.375 24.4375 C16.30433229 24.69977592 16.30433229 24.69977592 13.375 23.4375 C11.56288271 20.84429767 10.29995689 18.15590597 8.93359375 15.3046875 C5.29384911 8.60901691 -0.60474416 4.92384061 -7.625 2.4375 C-4.99667657 -0.19082343 -3.66565032 0.07888108 0 0 Z " fill="#F7D06F" transform="translate(255.625,197.5625)"/>
</svg>
