<svg width="24" height="24" viewBox="0 0 24 24" fill="none" xmlns="http://www.w3.org/2000/svg">
<g clip-path="url(#clip0_1_1695)">
<path d="M21.4429 0.625043L23.3708 2.55287C23.5471 2.72919 23.6461 2.96831 23.6461 3.21765C23.6461 3.46699 23.5471 3.70612 23.3708 3.88243L21.5924 5.66078L18.335 2.40339L20.1133 0.625043C20.2006 0.537739 20.3043 0.468486 20.4183 0.421237C20.5324 0.373989 20.6547 0.34967 20.7781 0.34967C20.9016 0.34967 21.0238 0.373989 21.1379 0.421237C21.252 0.468486 21.3556 0.537739 21.4429 0.625043Z" fill="#ED5152"/>
<path d="M22.2916 6.35931L17.6373 1.705C17.2701 1.33779 16.6747 1.33779 16.3075 1.705L13.9804 4.03216C13.6131 4.39937 13.6131 4.99474 13.9804 5.36196L18.6347 10.0163C19.0019 10.3835 19.5973 10.3835 19.9645 10.0163L22.2916 7.68911C22.6588 7.3219 22.6588 6.72653 22.2916 6.35931Z" fill="#FCC855"/>
<path d="M14.9785 6.36011L17.6377 9.01933L4.97367 21.6833L2.31445 19.0241L14.9785 6.36011Z" fill="#576473"/>
<path d="M3.64266 23.6484C5.46028 23.6484 6.93375 22.1749 6.93375 20.3573C6.93375 18.5397 5.46028 17.0662 3.64266 17.0662C1.82504 17.0662 0.351562 18.5397 0.351562 20.3573C0.351562 22.1749 1.82504 23.6484 3.64266 23.6484Z" fill="#ED5152"/>
<path d="M3.64265 21.7678C4.42163 21.7678 5.05312 21.1363 5.05312 20.3573C5.05312 19.5783 4.42163 18.9468 3.64265 18.9468C2.86367 18.9468 2.23218 19.5783 2.23218 20.3573C2.23218 21.1363 2.86367 21.7678 3.64265 21.7678Z" fill="#E3E9F7"/>
<path d="M12.3165 7.02699C11.9493 6.65978 11.354 6.65978 10.9867 7.02699C10.6195 7.39421 10.6195 7.98958 10.9867 8.3568L15.641 13.0111C16.0083 13.3783 16.6036 13.3783 16.9709 13.0111C17.3381 12.6439 17.3381 12.0485 16.9709 11.6813L12.3165 7.02699Z" fill="#FCC855"/>
<path d="M9.65767 9.68593C9.29045 9.31871 8.69508 9.31871 8.32787 9.68593C7.96065 10.0531 7.96065 10.6485 8.32787 11.0157L12.9822 15.67C13.3494 16.0373 13.9448 16.0373 14.312 15.67C14.6792 15.3028 14.6792 14.7075 14.312 14.3402L9.65767 9.68593Z" fill="#FCC855"/>
<path d="M6.99763 12.3449C6.63042 11.9776 6.03505 11.9776 5.66783 12.3449C5.30062 12.7121 5.30062 13.3075 5.66783 13.6747L10.3221 18.329C10.6894 18.6962 11.2847 18.6962 11.6519 18.329C12.0192 17.9618 12.0192 17.3664 11.6519 16.9992L6.99763 12.3449Z" fill="#FCC855"/>
<path d="M23.6222 2.30671L21.6942 0.378268C21.5742 0.258192 21.4317 0.162938 21.2749 0.0979498C21.118 0.0329614 20.9499 -0.000488281 20.7801 -0.000488281C20.6104 -0.000488281 20.4423 0.0329614 20.2854 0.0979498C20.1286 0.162938 19.9861 0.258192 19.8661 0.378268L18.337 1.90874L17.887 1.45874C17.6444 1.21669 17.3157 1.08076 16.973 1.08076C16.6302 1.08076 16.3015 1.21669 16.0589 1.45874L13.7344 3.78608C13.492 4.02852 13.3558 4.35731 13.3558 4.70014C13.3558 5.04297 13.492 5.37176 13.7344 5.61421L14.4844 6.36421L13.3195 7.52952L12.5695 6.77952C12.4495 6.65948 12.307 6.56426 12.1501 6.4993C11.9933 6.43434 11.8252 6.4009 11.6555 6.4009C11.4857 6.4009 11.3176 6.43434 11.1608 6.4993C11.0039 6.56426 10.8614 6.65948 10.7414 6.77952C10.6214 6.89955 10.5261 7.04206 10.4612 7.19889C10.3962 7.35573 10.3628 7.52382 10.3628 7.69358C10.3628 7.86334 10.3962 8.03143 10.4612 8.18827C10.5261 8.3451 10.6214 8.48761 10.7414 8.60764L11.4914 9.35764L10.657 10.1859L9.90702 9.43592C9.66459 9.1935 9.33579 9.05731 8.99295 9.05731C8.65011 9.05731 8.32132 9.1935 8.07889 9.43592C7.83647 9.67835 7.70027 10.0071 7.70027 10.35C7.70027 10.5197 7.73371 10.6878 7.79867 10.8447C7.86364 11.0015 7.95885 11.144 8.07889 11.264L8.82889 12.014L7.9978 12.8437L7.2478 12.0937C7.00537 11.8513 6.67657 11.7151 6.33373 11.7151C5.99089 11.7151 5.6621 11.8513 5.41967 12.0937C5.17725 12.3362 5.04106 12.665 5.04105 13.0078C5.04105 13.3506 5.17725 13.6794 5.41967 13.9219L6.16967 14.6719L4.09733 16.7456C3.94589 16.7265 3.79341 16.7168 3.64077 16.7165C2.92032 16.7165 2.21605 16.9302 1.61701 17.3304C1.01798 17.7307 0.551094 18.2996 0.27539 18.9652C-0.000313789 19.6308 -0.0724505 20.3632 0.0681022 21.0699C0.208655 21.7765 0.555584 22.4255 1.06502 22.935C1.57445 23.4444 2.22351 23.7913 2.93012 23.9319C3.63672 24.0724 4.36914 24.0003 5.03475 23.7246C5.70036 23.4489 6.26926 22.982 6.66952 22.383C7.06978 21.7839 7.28342 21.0797 7.28342 20.3592C7.2832 20.2066 7.27349 20.0541 7.25436 19.9026L9.32811 17.8294L10.0781 18.5794C10.3206 18.8218 10.6493 18.9579 10.9922 18.9579C11.335 18.9579 11.6638 18.8218 11.9062 18.5794C12.1486 18.3369 12.2848 18.0081 12.2848 17.6653C12.2848 17.3225 12.1486 16.9937 11.9062 16.7512L11.1562 16.0012L11.9887 15.1687L12.7387 15.9187C12.9812 16.161 13.31 16.2971 13.6528 16.2971C13.9956 16.2971 14.3244 16.161 14.5669 15.9187C14.8089 15.6761 14.9448 15.3474 14.9448 15.0047C14.9448 14.662 14.8089 14.3332 14.5669 14.0906L13.8169 13.3406L14.6494 12.5081L15.3994 13.2581C15.6418 13.5005 15.9706 13.6367 16.3134 13.6367C16.6562 13.6367 16.985 13.5005 17.2275 13.2581C17.3476 13.1381 17.4428 12.9956 17.5078 12.8388C17.5728 12.6819 17.6062 12.5138 17.6062 12.344C17.6062 12.1743 17.5728 12.0062 17.5078 11.8493C17.4428 11.6925 17.3476 11.55 17.2275 11.43L16.4775 10.68L17.6428 9.51514L18.3928 10.2651C18.5128 10.3853 18.6553 10.4806 18.8121 10.5456C18.969 10.6106 19.1371 10.6441 19.3069 10.6441C19.4766 10.6441 19.6448 10.6106 19.8016 10.5456C19.9585 10.4806 20.1009 10.3853 20.2209 10.2651L22.5483 7.93827C22.6683 7.81825 22.7636 7.67576 22.8286 7.51892C22.8936 7.36208 22.927 7.19398 22.927 7.02421C22.927 6.85444 22.8936 6.68633 22.8286 6.52949C22.7636 6.37265 22.6683 6.23016 22.5483 6.11014L22.0992 5.66108L23.6292 4.13061C23.8694 3.88742 24.0035 3.55901 24.0022 3.21721C24.0008 2.87541 23.8642 2.54804 23.6222 2.30671ZM5.71873 22.4376C5.23787 22.9184 4.6052 23.2175 3.92851 23.2841C3.25183 23.3507 2.57299 23.1805 2.00767 22.8027C1.44234 22.4249 1.02551 21.8628 0.828185 21.2121C0.630861 20.5614 0.665255 19.8624 0.925508 19.2342C1.18576 18.606 1.65577 18.0875 2.25545 17.767C2.85514 17.4466 3.5474 17.3439 4.21428 17.4766C4.88116 17.6093 5.48141 17.9691 5.91275 18.4947C6.34409 19.0203 6.57984 19.6793 6.57983 20.3592C6.5794 21.1387 6.26971 21.8862 5.71873 22.4376ZM7.0603 19.1015C6.87733 18.6064 6.58932 18.1567 6.21605 17.7835C5.84278 17.4102 5.39311 17.1222 4.89795 16.9392L6.66749 15.1697L8.82983 17.332L7.0603 19.1015ZM11.4051 18.0811C11.2945 18.1911 11.1447 18.2529 10.9887 18.2529C10.8326 18.2529 10.6828 18.1911 10.5722 18.0811L5.91795 13.4269C5.81281 13.3155 5.75521 13.1675 5.7574 13.0143C5.75958 12.8612 5.82138 12.7149 5.92966 12.6065C6.03794 12.4982 6.18419 12.4363 6.33735 12.434C6.49052 12.4318 6.63854 12.4893 6.74998 12.5944L11.4056 17.25C11.5153 17.3605 11.5769 17.5098 11.5769 17.6655C11.5769 17.8212 11.5153 17.9706 11.4056 18.0811H11.4051ZM10.6551 15.503L8.4928 13.3406L9.32811 12.5105L11.4895 14.6719L10.6551 15.503ZM14.0653 15.4219C13.9548 15.5321 13.8051 15.594 13.649 15.594C13.493 15.594 13.3433 15.5321 13.2328 15.4219L8.57811 10.7672C8.47077 10.6562 8.41134 10.5074 8.41265 10.353C8.41395 10.1986 8.47587 10.0508 8.58507 9.94163C8.69426 9.83243 8.84199 9.77051 8.99641 9.76921C9.15084 9.76791 9.29959 9.82733 9.41061 9.93467L14.0648 14.5889C14.1753 14.6993 14.2374 14.8491 14.2375 15.0053C14.2376 15.1615 14.1756 15.3113 14.0653 15.4219ZM13.3153 12.8461L11.1562 10.6833L11.9887 9.85077L14.1511 12.0131L13.3153 12.8461ZM16.8961 12.3459C16.8961 12.4624 16.8615 12.5763 16.7967 12.6731C16.732 12.7699 16.64 12.8454 16.5323 12.8899C16.4247 12.9344 16.3062 12.946 16.192 12.9232C16.0778 12.9003 15.9729 12.8442 15.8906 12.7617L11.2383 8.10936C11.1309 7.99834 11.0715 7.84959 11.0728 7.69517C11.0741 7.54074 11.136 7.39302 11.2452 7.28382C11.3544 7.17462 11.5021 7.1127 11.6566 7.1114C11.811 7.1101 11.9597 7.16952 12.0708 7.27686L16.725 11.9311C16.7796 11.9854 16.8229 12.05 16.8525 12.1211C16.8821 12.1922 16.8974 12.2684 16.8975 12.3455L16.8961 12.3459ZM15.9764 10.1859L13.814 8.02358L14.9789 6.85874L17.1412 9.02108L15.9764 10.1859ZM22.0439 7.4428L19.717 9.76967C19.6624 9.82438 19.5975 9.86778 19.5261 9.8974C19.4546 9.92701 19.3781 9.94225 19.3008 9.94225C19.2234 9.94225 19.1469 9.92701 19.0755 9.8974C19.004 9.86778 18.9392 9.82438 18.8845 9.76967L14.2303 5.11546C14.12 5.00499 14.0581 4.85528 14.0581 4.69921C14.0581 4.54313 14.12 4.39342 14.2303 4.28296L16.5572 1.95608C16.6677 1.84593 16.8174 1.78409 16.9734 1.78409C17.1295 1.78409 17.2791 1.84593 17.3897 1.95608L22.0439 6.60936C22.0986 6.664 22.142 6.72888 22.1716 6.80031C22.2012 6.87173 22.2165 6.94829 22.2165 7.02561C22.2165 7.10293 22.2012 7.17949 22.1716 7.25092C22.142 7.32234 22.0986 7.38722 22.0439 7.44186V7.4428ZM23.1248 3.63608L21.5948 5.16655L18.8339 2.40561L20.3644 0.875612C20.419 0.820903 20.4839 0.777502 20.5553 0.74789C20.6267 0.718278 20.7033 0.703036 20.7806 0.703036C20.8579 0.703036 20.9345 0.718278 21.0059 0.74789C21.0773 0.777502 21.1422 0.820903 21.1969 0.875612L23.1248 2.80358C23.2351 2.91405 23.297 3.06375 23.297 3.21983C23.297 3.37591 23.2351 3.52561 23.1248 3.63608Z" fill="black"/>
<path d="M3.64262 18.5953C3.23496 18.5954 2.83994 18.7368 2.52488 18.9956C2.20983 19.2543 1.99422 19.6142 1.9148 20.0141C1.83539 20.4139 1.89707 20.8289 2.08935 21.1884C2.28163 21.5479 2.59261 21.8295 2.96929 21.9854C3.34597 22.1413 3.76505 22.1618 4.15512 22.0433C4.54519 21.9248 4.88212 21.6748 5.10849 21.3357C5.33486 20.9967 5.43666 20.5897 5.39656 20.184C5.35646 19.7783 5.17693 19.3991 4.88856 19.1109C4.72529 18.9469 4.5311 18.8168 4.31724 18.7283C4.10337 18.6398 3.87408 18.5946 3.64262 18.5953ZM4.39262 21.1059C4.21951 21.2788 3.99181 21.3864 3.7483 21.4103C3.5048 21.4342 3.26053 21.3729 3.0571 21.237C2.85368 21.101 2.70366 20.8988 2.6326 20.6646C2.56154 20.4305 2.57383 20.179 2.66737 19.9529C2.76091 19.7268 2.92993 19.5401 3.14564 19.4246C3.36136 19.3092 3.61043 19.272 3.85044 19.3195C4.09046 19.3671 4.30659 19.4963 4.46202 19.6853C4.61746 19.8742 4.7026 20.1112 4.70293 20.3559C4.70284 20.4953 4.67526 20.6333 4.62177 20.762C4.56828 20.8906 4.48993 21.0075 4.39121 21.1059H4.39262Z" fill="black"/>
</g>
<defs>
<clipPath id="clip0_1_1695">
<rect width="24" height="24" fill="white"/>
</clipPath>
</defs>
</svg>
