<svg width="24" height="24" viewBox="0 0 24 24" fill="none" xmlns="http://www.w3.org/2000/svg">
<g clip-path="url(#clip0_1_1608)">
<path d="M12 10.4437C11.1418 10.4437 10.4437 11.1419 10.4437 12C10.5292 14.0646 13.4711 14.064 13.5562 12C13.5562 11.1419 12.8581 10.4437 12 10.4437ZM11.2186 18.0252C11.7374 18.0914 12.2626 18.0914 12.7814 18.0252C12.6797 16.2831 12.2445 15.2635 12 15.004C11.7554 15.2635 11.3203 16.2831 11.2186 18.0252ZM9.39616 13.4121C8.47404 13.882 7.51118 14.0576 6.32449 14.1662C6.94109 15.7762 8.22377 17.0589 9.83374 17.6755C9.90448 16.7832 10.0607 15.9611 10.289 15.2993C10.3821 15.0293 10.4827 14.7993 10.5879 14.6038C10.0844 14.3293 9.67067 13.9155 9.39616 13.4121ZM12.7813 5.97482C12.2625 5.90854 11.7374 5.90854 11.2186 5.97482C11.3203 7.71688 11.7554 8.73646 11.9999 8.99601C12.2445 8.73646 12.6796 7.71688 12.7813 5.97482ZM5.9748 11.2186C5.90838 11.7374 5.90838 12.2626 5.9748 12.7814C7.71691 12.6797 8.73644 12.2445 8.99599 12C8.73644 11.7554 7.71691 11.3204 5.9748 11.2186ZM9.39616 10.5879C9.67063 10.0844 10.0844 9.67065 10.5879 9.39618C10.4827 9.20066 10.3821 8.97065 10.289 8.70065C10.0607 8.03891 9.90448 7.21677 9.83374 6.32451C8.22377 6.9411 6.94109 8.22379 6.32449 9.83376C7.51118 9.94237 8.47413 10.1181 9.39616 10.5879Z" fill="black"/>
<path d="M23.2969 9.79063C23.2766 9.79063 23.2612 9.77806 23.2578 9.76072C23.2562 9.75229 23.2575 9.74355 23.2615 9.73598C23.2656 9.72841 23.2721 9.72248 23.2801 9.71919C23.6444 9.5682 23.8104 9.15547 23.6629 8.79941L22.5101 6.0162C22.3625 5.66014 21.9534 5.48567 21.589 5.63652C21.581 5.63979 21.5722 5.64022 21.564 5.63773C21.5557 5.63525 21.5486 5.63 21.5438 5.62288C21.534 5.6082 21.536 5.58847 21.5503 5.57413C21.8249 5.29953 21.8249 4.85436 21.5503 4.57977L19.4202 2.44963C19.1456 2.17503 18.7004 2.17503 18.4258 2.44963C18.4115 2.46397 18.3917 2.46594 18.377 2.4561C18.3699 2.4513 18.3647 2.44419 18.3622 2.43598C18.3597 2.42776 18.3601 2.41894 18.3634 2.411C18.5143 2.0466 18.3398 1.63742 17.9837 1.48991L15.2006 0.337017C14.8445 0.189548 14.4318 0.355533 14.2808 0.719845C14.2775 0.727779 14.2716 0.73433 14.264 0.738388C14.2564 0.742446 14.2477 0.743761 14.2393 0.742111C14.2219 0.738689 14.2093 0.723361 14.2093 0.703064C14.2093 0.314751 13.8945 -6.10352e-05 13.5062 -6.10352e-05H10.4937C10.1054 -6.10352e-05 9.79058 0.314751 9.79058 0.703064C9.79058 0.723361 9.77802 0.738689 9.76067 0.742111C9.75224 0.743761 9.74351 0.742446 9.73594 0.738388C9.72837 0.73433 9.72243 0.727779 9.71914 0.719845C9.56816 0.355486 9.15542 0.189548 8.79936 0.337017L6.01616 1.48986C5.6601 1.63738 5.48563 2.04655 5.63647 2.41095C5.63975 2.41889 5.64018 2.42772 5.63769 2.43593C5.63521 2.44415 5.62996 2.45126 5.62283 2.45605C5.60816 2.46589 5.58842 2.46392 5.57408 2.44958C5.29949 2.17499 4.85431 2.17499 4.57972 2.44958L2.44963 4.57977C2.17503 4.85436 2.17503 5.29953 2.44963 5.57413C2.46397 5.58847 2.46594 5.6082 2.4561 5.62288C2.45129 5.63 2.44418 5.63525 2.43595 5.63773C2.42773 5.64022 2.4189 5.63979 2.41095 5.63652C2.04655 5.48563 1.63738 5.66014 1.48986 6.0162L0.337017 8.79941C0.189548 9.15547 0.355533 9.5682 0.719845 9.71919C0.736205 9.72599 0.745626 9.74356 0.742111 9.76072C0.738689 9.77806 0.723361 9.79063 0.703064 9.79063C0.314751 9.79063 -6.10352e-05 10.1054 -6.10352e-05 10.4938V13.5063C-6.10352e-05 13.8946 0.314751 14.2094 0.703064 14.2094C0.723361 14.2094 0.738689 14.222 0.742111 14.2393C0.743761 14.2477 0.742446 14.2565 0.738388 14.264C0.73433 14.2716 0.727779 14.2775 0.719845 14.2808C0.355486 14.4318 0.189548 14.8445 0.337017 15.2006L1.48986 17.9838C1.63738 18.3399 2.04655 18.5143 2.41095 18.3635C2.4189 18.3602 2.42773 18.3598 2.43595 18.3623C2.44418 18.3648 2.45129 18.37 2.4561 18.3771C2.46594 18.3918 2.46397 18.4115 2.44963 18.4259C2.17503 18.7005 2.17503 19.1457 2.44963 19.4203L4.57977 21.5504C4.85436 21.825 5.29953 21.825 5.57413 21.5504C5.58847 21.536 5.6082 21.5341 5.62288 21.5439C5.63 21.5487 5.63525 21.5558 5.63773 21.5641C5.64022 21.5723 5.63979 21.5811 5.63652 21.5891C5.48563 21.9535 5.66014 22.3626 6.0162 22.5102L8.79941 23.663C9.15547 23.8105 9.5682 23.6445 9.71919 23.2802C9.72248 23.2722 9.72841 23.2657 9.73598 23.2616C9.74355 23.2576 9.75229 23.2563 9.76072 23.2579C9.77806 23.2613 9.79063 23.2767 9.79063 23.297C9.79063 23.6853 10.1054 24.0001 10.4938 24.0001H13.5063C13.8946 24.0001 14.2094 23.6853 14.2094 23.297C14.2094 23.2767 14.222 23.2613 14.2393 23.2579C14.2477 23.2563 14.2565 23.2576 14.264 23.2616C14.2716 23.2657 14.2775 23.2722 14.2808 23.2802C14.4318 23.6445 14.8445 23.8105 15.2006 23.663L17.9838 22.5102C18.3399 22.3626 18.5143 21.9535 18.3635 21.5891C18.3602 21.5811 18.3598 21.5723 18.3623 21.5641C18.3648 21.5558 18.37 21.5487 18.3771 21.5439C18.3918 21.5341 18.4115 21.536 18.4259 21.5504C18.7005 21.825 19.1457 21.825 19.4203 21.5504L21.5504 19.4203C21.825 19.1457 21.825 18.7005 21.5504 18.4259C21.536 18.4115 21.5341 18.3918 21.5439 18.3771C21.5487 18.37 21.5558 18.3648 21.5641 18.3623C21.5723 18.3598 21.5811 18.3602 21.5891 18.3635C21.9535 18.5144 22.3626 18.3399 22.5102 17.9838L23.663 15.2006C23.8105 14.8445 23.6445 14.4318 23.2802 14.2808C23.2722 14.2775 23.2657 14.2716 23.2616 14.264C23.2576 14.2565 23.2563 14.2477 23.2579 14.2393C23.2613 14.222 23.2767 14.2094 23.297 14.2094C23.6853 14.2094 24.0001 13.8946 24.0001 13.5063V10.4938C24 10.1054 23.6852 9.79063 23.2969 9.79063ZM12 19.4812C7.8748 19.4812 4.51874 16.1252 4.51874 12C4.92969 2.0751 19.0718 2.07796 19.4813 12C19.4812 16.1252 16.1252 19.4812 12 19.4812Z" fill="black"/>
<path d="M14.6038 13.4121C14.3293 13.9156 13.9156 14.3294 13.412 14.6038C13.5173 14.7993 13.6178 15.0294 13.711 15.2994C13.9393 15.9611 14.0955 16.7832 14.1662 17.6755C15.7762 17.0589 17.0589 15.7762 17.6755 14.1662C16.4888 14.0576 15.5258 13.8819 14.6038 13.4121ZM14.1662 6.32452C14.0955 7.21679 13.9393 8.03893 13.711 8.70066C13.6178 8.97066 13.5173 9.20068 13.412 9.3962C13.9156 9.67066 14.3293 10.0844 14.6038 10.5879C15.5259 10.118 16.4887 9.94243 17.6755 9.83377C17.0589 8.22381 15.7762 6.94112 14.1662 6.32452ZM18.0252 12.7814C18.0916 12.2626 18.0916 11.7374 18.0252 11.2186C16.283 11.3203 15.2635 11.7555 15.004 12C15.2635 12.2446 16.283 12.6796 18.0252 12.7814Z" fill="black"/>
</g>
<defs>
<clipPath id="clip0_1_1608">
<rect width="24" height="24" fill="white"/>
</clipPath>
</defs>
</svg>
